STARTFONT 2.1
FONT -benis-lemon-medium-r-normal--10-110-75-75-m-50-ISO8859-1
SIZE 10 75 75
FONTBOUNDINGBOX 12 12 -2 -3
STARTPROPERTIES 26
FONTNAME_REGISTRY ""
FOUNDRY "artwiz"
FAMILY_NAME "lemon"
WEIGHT_NAME "medium"
SLANT "r"
SETWIDTH_NAME "normal"
ADD_STYLE_NAME ""
PIXEL_SIZE 10
POINT_SIZE 110
RESOLUTION_X 75
RESOLUTION_Y 75
SPACING "m"
AVERAGE_WIDTH 50
CHARSET_REGISTRY "ISO8859"
CHARSET_ENCODING "1"
OPYRIGHT "artwiz, fixed by aleczapka"
FACE_NAME "lemon"
WEIGHT 10
X_HEIGHT 6
QUAD_WIDTH 5
_ORIGINAL_FONT_NAME "lime"
_GBDFED_INFO "Edited with gbdfed 1.6."
CHARSET_COLLECTIONS "ISO8859-2 ISO8859-5 ISO8859-9 ISO8859-4 ISO10646-1"
DEFAULT_CHAR 52
FONT_DESCENT 2
FONT_ASCENT 8
ENDPROPERTIES
CHARS 7248
STARTCHAR 5240
ENCODING -1
SWIDTH 480 0
DWIDTH 5 0
BBX 8 8 0 -2
BITMAP
10
7C
25
4B
08
FF
08
08
ENDCHAR
STARTCHAR char32
ENCODING 32
SWIDTH 480 0
DWIDTH 5 0
BBX 0 0 0 0
BITMAP
ENDCHAR
STARTCHAR uni0021
ENCODING 33
SWIDTH 480 0
DWIDTH 5 0
BBX 1 6 2 0
BITMAP
80
80
80
80
00
80
ENDCHAR
STARTCHAR uni0022
ENCODING 34
SWIDTH 480 0
DWIDTH 5 0
BBX 3 3 1 4
BITMAP
A0
A0
A0
ENDCHAR
STARTCHAR uni0023
ENCODING 35
SWIDTH 480 0
DWIDTH 5 0
BBX 5 5 0 0
BITMAP
50
D8
50
D8
50
ENDCHAR
STARTCHAR uni0024
ENCODING 36
SWIDTH 480 0
DWIDTH 5 0
BBX 4 8 1 -1
BITMAP
20
70
A0
60
50
50
E0
40
ENDCHAR
STARTCHAR uni0025
ENCODING 37
SWIDTH 480 0
DWIDTH 5 0
BBX 4 6 1 0
BITMAP
90
90
20
40
90
90
ENDCHAR
STARTCHAR uni0026
ENCODING 38
SWIDTH 480 0
DWIDTH 5 0
BBX 5 6 0 0
BITMAP
40
A0
40
A8
90
68
ENDCHAR
STARTCHAR uni0027
ENCODING 39
SWIDTH 480 0
DWIDTH 5 0
BBX 1 3 2 4
BITMAP
80
80
80
ENDCHAR
STARTCHAR uni0028
ENCODING 40
SWIDTH 480 0
DWIDTH 5 0
BBX 3 8 2 -1
BITMAP
20
40
80
80
80
80
40
20
ENDCHAR
STARTCHAR uni0029
ENCODING 41
SWIDTH 480 0
DWIDTH 5 0
BBX 3 8 1 -1
BITMAP
80
40
20
20
20
20
40
80
ENDCHAR
STARTCHAR uni002A
ENCODING 42
SWIDTH 480 0
DWIDTH 5 0
BBX 4 5 1 0
BITMAP
90
60
F0
60
90
ENDCHAR
STARTCHAR uni002B
ENCODING 43
SWIDTH 480 0
DWIDTH 5 0
BBX 5 5 0 1
BITMAP
20
20
F8
20
20
ENDCHAR
STARTCHAR uni002C
ENCODING 44
SWIDTH 480 0
DWIDTH 5 0
BBX 2 3 1 -1
BITMAP
40
40
80
ENDCHAR
STARTCHAR uni002D
ENCODING 45
SWIDTH 480 0
DWIDTH 5 0
BBX 4 1 1 3
BITMAP
F0
ENDCHAR
STARTCHAR uni002E
ENCODING 46
SWIDTH 480 0
DWIDTH 5 0
BBX 1 2 2 0
BITMAP
80
80
ENDCHAR
STARTCHAR uni002F
ENCODING 47
SWIDTH 480 0
DWIDTH 5 0
BBX 4 8 1 -1
BITMAP
10
10
20
20
40
40
80
80
ENDCHAR
STARTCHAR uni0030
ENCODING 48
SWIDTH 480 0
DWIDTH 5 0
BBX 4 6 1 0
BITMAP
60
90
B0
D0
90
60
ENDCHAR
STARTCHAR uni0031
ENCODING 49
SWIDTH 480 0
DWIDTH 5 0
BBX 2 6 1 0
BITMAP
40
C0
40
40
40
40
ENDCHAR
STARTCHAR uni0032
ENCODING 50
SWIDTH 480 0
DWIDTH 5 0
BBX 4 6 1 0
BITMAP
E0
10
10
60
80
F0
ENDCHAR
STARTCHAR uni0033
ENCODING 51
SWIDTH 480 0
DWIDTH 5 0
BBX 4 6 1 0
BITMAP
E0
10
60
10
10
E0
ENDCHAR
STARTCHAR uni0034
ENCODING 52
SWIDTH 480 0
DWIDTH 5 0
BBX 4 6 1 0
BITMAP
90
90
90
70
10
10
ENDCHAR
STARTCHAR uni0035
ENCODING 53
SWIDTH 480 0
DWIDTH 5 0
BBX 4 6 1 0
BITMAP
F0
80
E0
10
10
E0
ENDCHAR
STARTCHAR uni0036
ENCODING 54
SWIDTH 480 0
DWIDTH 5 0
BBX 4 6 1 0
BITMAP
60
80
E0
90
90
60
ENDCHAR
STARTCHAR uni0037
ENCODING 55
SWIDTH 480 0
DWIDTH 5 0
BBX 4 6 1 0
BITMAP
F0
10
20
20
40
40
ENDCHAR
STARTCHAR uni0038
ENCODING 56
SWIDTH 480 0
DWIDTH 5 0
BBX 4 6 1 0
BITMAP
60
90
60
90
90
60
ENDCHAR
STARTCHAR uni0039
ENCODING 57
SWIDTH 480 0
DWIDTH 5 0
BBX 4 6 1 0
BITMAP
60
90
90
70
10
60
ENDCHAR
STARTCHAR uni003A
ENCODING 58
SWIDTH 480 0
DWIDTH 5 0
BBX 1 5 2 0
BITMAP
80
80
00
80
80
ENDCHAR
STARTCHAR uni003B
ENCODING 59
SWIDTH 480 0
DWIDTH 5 0
BBX 2 6 1 -1
BITMAP
40
40
00
40
40
80
ENDCHAR
STARTCHAR uni003C
ENCODING 60
SWIDTH 480 0
DWIDTH 5 0
BBX 3 5 1 0
BITMAP
20
40
80
40
20
ENDCHAR
STARTCHAR uni003D
ENCODING 61
SWIDTH 480 0
DWIDTH 5 0
BBX 3 3 1 2
BITMAP
E0
00
E0
ENDCHAR
STARTCHAR uni003E
ENCODING 62
SWIDTH 480 0
DWIDTH 5 0
BBX 3 5 2 0
BITMAP
80
40
20
40
80
ENDCHAR
STARTCHAR uni003F
ENCODING 63
SWIDTH 480 0
DWIDTH 5 0
BBX 3 6 1 0
BITMAP
E0
A0
20
40
00
40
ENDCHAR
STARTCHAR uni0040
ENCODING 64
SWIDTH 480 0
DWIDTH 5 0
BBX 4 6 1 0
BITMAP
60
90
B0
B0
80
70
ENDCHAR
STARTCHAR uni0041
ENCODING 65
SWIDTH 480 0
DWIDTH 5 0
BBX 4 6 1 0
BITMAP
60
90
90
F0
90
90
ENDCHAR
STARTCHAR uni0042
ENCODING 66
SWIDTH 480 0
DWIDTH 5 0
BBX 4 6 1 0
BITMAP
E0
90
E0
90
90
E0
ENDCHAR
STARTCHAR uni0043
ENCODING 67
SWIDTH 480 0
DWIDTH 5 0
BBX 4 6 1 0
BITMAP
70
80
80
80
80
70
ENDCHAR
STARTCHAR uni0044
ENCODING 68
SWIDTH 480 0
DWIDTH 5 0
BBX 4 6 1 0
BITMAP
E0
90
90
90
90
E0
ENDCHAR
STARTCHAR uni0045
ENCODING 69
SWIDTH 480 0
DWIDTH 5 0
BBX 4 6 1 0
BITMAP
F0
80
E0
80
80
F0
ENDCHAR
STARTCHAR uni0046
ENCODING 70
SWIDTH 480 0
DWIDTH 5 0
BBX 4 6 1 0
BITMAP
F0
80
E0
80
80
80
ENDCHAR
STARTCHAR uni0047
ENCODING 71
SWIDTH 480 0
DWIDTH 5 0
BBX 4 6 1 0
BITMAP
70
80
80
B0
90
70
ENDCHAR
STARTCHAR uni0048
ENCODING 72
SWIDTH 480 0
DWIDTH 5 0
BBX 4 6 1 0
BITMAP
90
90
F0
90
90
90
ENDCHAR
STARTCHAR uni0049
ENCODING 73
SWIDTH 480 0
DWIDTH 5 0
BBX 3 6 1 0
BITMAP
E0
40
40
40
40
E0
ENDCHAR
STARTCHAR uni004A
ENCODING 74
SWIDTH 480 0
DWIDTH 5 0
BBX 4 6 1 0
BITMAP
70
10
10
10
90
60
ENDCHAR
STARTCHAR uni004B
ENCODING 75
SWIDTH 480 0
DWIDTH 5 0
BBX 4 6 1 0
BITMAP
90
A0
C0
A0
90
90
ENDCHAR
STARTCHAR uni004C
ENCODING 76
SWIDTH 480 0
DWIDTH 5 0
BBX 4 6 1 0
BITMAP
80
80
80
80
80
F0
ENDCHAR
STARTCHAR uni004D
ENCODING 77
SWIDTH 480 0
DWIDTH 5 0
BBX 4 6 1 0
BITMAP
90
F0
90
90
90
90
ENDCHAR
STARTCHAR uni004E
ENCODING 78
SWIDTH 480 0
DWIDTH 5 0
BBX 4 6 1 0
BITMAP
90
D0
D0
B0
B0
90
ENDCHAR
STARTCHAR uni004F
ENCODING 79
SWIDTH 480 0
DWIDTH 5 0
BBX 4 6 1 0
BITMAP
60
90
90
90
90
60
ENDCHAR
STARTCHAR uni0050
ENCODING 80
SWIDTH 480 0
DWIDTH 5 0
BBX 4 6 1 0
BITMAP
E0
90
90
E0
80
80
ENDCHAR
STARTCHAR uni0051
ENCODING 81
SWIDTH 480 0
DWIDTH 5 0
BBX 4 7 1 -1
BITMAP
60
90
90
90
90
60
30
ENDCHAR
STARTCHAR uni0052
ENCODING 82
SWIDTH 480 0
DWIDTH 5 0
BBX 4 6 1 0
BITMAP
E0
90
90
E0
90
90
ENDCHAR
STARTCHAR uni0053
ENCODING 83
SWIDTH 480 0
DWIDTH 5 0
BBX 4 6 1 0
BITMAP
70
80
60
10
10
E0
ENDCHAR
STARTCHAR uni0054
ENCODING 84
SWIDTH 480 0
DWIDTH 5 0
BBX 5 6 0 0
BITMAP
F8
20
20
20
20
20
ENDCHAR
STARTCHAR uni0055
ENCODING 85
SWIDTH 480 0
DWIDTH 5 0
BBX 4 6 1 0
BITMAP
90
90
90
90
90
70
ENDCHAR
STARTCHAR uni0056
ENCODING 86
SWIDTH 480 0
DWIDTH 5 0
BBX 4 6 1 0
BITMAP
90
90
90
60
60
60
ENDCHAR
STARTCHAR uni0057
ENCODING 87
SWIDTH 480 0
DWIDTH 5 0
BBX 4 6 1 0
BITMAP
90
90
90
90
F0
90
ENDCHAR
STARTCHAR uni0058
ENCODING 88
SWIDTH 480 0
DWIDTH 5 0
BBX 4 6 1 0
BITMAP
90
90
60
90
90
90
ENDCHAR
STARTCHAR uni0059
ENCODING 89
SWIDTH 480 0
DWIDTH 5 0
BBX 5 6 0 0
BITMAP
88
88
50
20
20
20
ENDCHAR
STARTCHAR uni005A
ENCODING 90
SWIDTH 480 0
DWIDTH 5 0
BBX 4 6 1 0
BITMAP
F0
10
20
40
80
F0
ENDCHAR
STARTCHAR uni005B
ENCODING 91
SWIDTH 480 0
DWIDTH 5 0
BBX 3 8 1 -1
BITMAP
E0
80
80
80
80
80
80
E0
ENDCHAR
STARTCHAR uni005C
ENCODING 92
SWIDTH 480 0
DWIDTH 5 0
BBX 4 8 1 -1
BITMAP
80
80
40
40
20
20
10
10
ENDCHAR
STARTCHAR uni005D
ENCODING 93
SWIDTH 480 0
DWIDTH 5 0
BBX 3 8 1 -1
BITMAP
E0
20
20
20
20
20
20
E0
ENDCHAR
STARTCHAR uni005E
ENCODING 94
SWIDTH 480 0
DWIDTH 5 0
BBX 5 3 0 4
BITMAP
20
50
88
ENDCHAR
STARTCHAR uni005F
ENCODING 95
SWIDTH 480 0
DWIDTH 5 0
BBX 4 1 1 -1
BITMAP
F0
ENDCHAR
STARTCHAR uni0060
ENCODING 96
SWIDTH 480 0
DWIDTH 5 0
BBX 2 3 2 4
BITMAP
80
80
40
ENDCHAR
STARTCHAR uni0061
ENCODING 97
SWIDTH 480 0
DWIDTH 5 0
BBX 4 5 1 0
BITMAP
70
90
90
B0
50
ENDCHAR
STARTCHAR uni0062
ENCODING 98
SWIDTH 480 0
DWIDTH 5 0
BBX 4 7 1 0
BITMAP
80
80
E0
90
90
90
E0
ENDCHAR
STARTCHAR uni0063
ENCODING 99
SWIDTH 480 0
DWIDTH 5 0
BBX 4 5 1 0
BITMAP
70
80
80
80
70
ENDCHAR
STARTCHAR uni0064
ENCODING 100
SWIDTH 480 0
DWIDTH 5 0
BBX 4 7 1 0
BITMAP
10
10
70
90
90
B0
50
ENDCHAR
STARTCHAR uni0065
ENCODING 101
SWIDTH 480 0
DWIDTH 5 0
BBX 4 5 1 0
BITMAP
60
90
F0
80
70
ENDCHAR
STARTCHAR uni0066
ENCODING 102
SWIDTH 480 0
DWIDTH 5 0
BBX 3 7 2 0
BITMAP
60
80
E0
80
80
80
80
ENDCHAR
STARTCHAR uni0067
ENCODING 103
SWIDTH 480 0
DWIDTH 5 0
BBX 4 7 1 -2
BITMAP
70
90
90
B0
50
10
60
ENDCHAR
STARTCHAR uni0068
ENCODING 104
SWIDTH 480 0
DWIDTH 5 0
BBX 4 7 1 0
BITMAP
80
80
E0
90
90
90
90
ENDCHAR
STARTCHAR uni0069
ENCODING 105
SWIDTH 480 0
DWIDTH 5 0
BBX 2 7 2 0
BITMAP
40
00
C0
40
40
40
40
ENDCHAR
STARTCHAR uni006A
ENCODING 106
SWIDTH 480 0
DWIDTH 5 0
BBX 3 9 1 -2
BITMAP
20
00
60
20
20
20
20
20
C0
ENDCHAR
STARTCHAR uni006B
ENCODING 107
SWIDTH 480 0
DWIDTH 5 0
BBX 4 7 1 0
BITMAP
80
80
90
A0
E0
90
90
ENDCHAR
STARTCHAR uni006C
ENCODING 108
SWIDTH 480 0
DWIDTH 5 0
BBX 2 7 2 0
BITMAP
C0
40
40
40
40
40
40
ENDCHAR
STARTCHAR uni006D
ENCODING 109
SWIDTH 480 0
DWIDTH 5 0
BBX 4 5 1 0
BITMAP
90
F0
90
90
90
ENDCHAR
STARTCHAR uni006E
ENCODING 110
SWIDTH 480 0
DWIDTH 5 0
BBX 4 5 1 0
BITMAP
E0
90
90
90
90
ENDCHAR
STARTCHAR uni006F
ENCODING 111
SWIDTH 480 0
DWIDTH 5 0
BBX 4 5 1 0
BITMAP
60
90
90
90
60
ENDCHAR
STARTCHAR uni0070
ENCODING 112
SWIDTH 480 0
DWIDTH 5 0
BBX 4 7 1 -2
BITMAP
E0
90
90
90
E0
80
80
ENDCHAR
STARTCHAR uni0071
ENCODING 113
SWIDTH 480 0
DWIDTH 5 0
BBX 4 7 1 -2
BITMAP
70
90
90
90
70
10
10
ENDCHAR
STARTCHAR uni0072
ENCODING 114
SWIDTH 480 0
DWIDTH 5 0
BBX 4 5 1 0
BITMAP
B0
C0
80
80
80
ENDCHAR
STARTCHAR uni0073
ENCODING 115
SWIDTH 480 0
DWIDTH 5 0
BBX 4 5 1 0
BITMAP
70
80
60
10
E0
ENDCHAR
STARTCHAR uni0074
ENCODING 116
SWIDTH 480 0
DWIDTH 5 0
BBX 3 6 1 0
BITMAP
40
E0
40
40
40
20
ENDCHAR
STARTCHAR uni0075
ENCODING 117
SWIDTH 480 0
DWIDTH 5 0
BBX 4 5 1 0
BITMAP
90
90
90
90
70
ENDCHAR
STARTCHAR uni0076
ENCODING 118
SWIDTH 480 0
DWIDTH 5 0
BBX 4 5 1 0
BITMAP
90
90
90
60
60
ENDCHAR
STARTCHAR uni0077
ENCODING 119
SWIDTH 480 0
DWIDTH 5 0
BBX 4 5 1 0
BITMAP
90
90
90
F0
90
ENDCHAR
STARTCHAR uni0078
ENCODING 120
SWIDTH 480 0
DWIDTH 5 0
BBX 4 5 1 0
BITMAP
90
90
60
90
90
ENDCHAR
STARTCHAR uni0079
ENCODING 121
SWIDTH 480 0
DWIDTH 5 0
BBX 4 7 1 -2
BITMAP
90
90
90
90
70
10
60
ENDCHAR
STARTCHAR uni007A
ENCODING 122
SWIDTH 480 0
DWIDTH 5 0
BBX 4 5 1 0
BITMAP
F0
20
40
80
F0
ENDCHAR
STARTCHAR uni007B
ENCODING 123
SWIDTH 480 0
DWIDTH 5 0
BBX 3 8 1 -1
BITMAP
20
40
40
C0
C0
40
40
20
ENDCHAR
STARTCHAR uni007C
ENCODING 124
SWIDTH 480 0
DWIDTH 5 0
BBX 1 10 2 -2
BITMAP
80
80
80
80
80
80
80
80
80
80
ENDCHAR
STARTCHAR uni007D
ENCODING 125
SWIDTH 480 0
DWIDTH 5 0
BBX 3 8 2 -1
BITMAP
80
40
40
60
60
40
40
80
ENDCHAR
STARTCHAR uni007E
ENCODING 126
SWIDTH 480 0
DWIDTH 5 0
BBX 5 4 0 1
BITMAP
40
A8
A8
10
ENDCHAR
STARTCHAR char149
ENCODING 149
SWIDTH 480 0
DWIDTH 5 0
BBX 4 4 1 1
BITMAP
60
F0
F0
60
ENDCHAR
STARTCHAR char161
ENCODING 161
SWIDTH 480 0
DWIDTH 5 0
BBX 3 6 1 0
BITMAP
40
00
C0
40
40
60
ENDCHAR
STARTCHAR char162
ENCODING 162
SWIDTH 480 0
DWIDTH 5 0
BBX 4 7 0 -1
BITMAP
10
70
A0
A0
A0
70
40
ENDCHAR
STARTCHAR char163
ENCODING 163
SWIDTH 480 0
DWIDTH 5 0
BBX 5 7 0 0
BITMAP
30
40
40
E0
40
48
F0
ENDCHAR
STARTCHAR char164
ENCODING 164
SWIDTH 480 0
DWIDTH 5 0
BBX 5 6 0 0
BITMAP
88
70
50
50
70
88
ENDCHAR
STARTCHAR char165
ENCODING 165
SWIDTH 480 0
DWIDTH 5 0
BBX 5 9 0 -1
BITMAP
88
88
50
20
F8
20
F8
20
20
ENDCHAR
STARTCHAR char166
ENCODING 166
SWIDTH 480 0
DWIDTH 5 0
BBX 2 1 1 1
BITMAP
C0
ENDCHAR
STARTCHAR char167
ENCODING 167
SWIDTH 480 0
DWIDTH 5 0
BBX 5 9 0 -1
BITMAP
30
48
20
70
88
70
20
90
60
ENDCHAR
STARTCHAR char168
ENCODING 168
SWIDTH 480 0
DWIDTH 5 0
BBX 3 1 1 5
BITMAP
A0
ENDCHAR
STARTCHAR char169
ENCODING 169
SWIDTH 480 0
DWIDTH 5 0
BBX 6 7 0 0
BITMAP
38
44
B8
A0
B8
44
38
ENDCHAR
STARTCHAR char170
ENCODING 170
SWIDTH 480 0
DWIDTH 5 0
BBX 4 4 1 4
BITMAP
70
90
90
70
ENDCHAR
STARTCHAR char171
ENCODING 171
SWIDTH 480 0
DWIDTH 5 0
BBX 4 3 1 2
BITMAP
50
A0
50
ENDCHAR
STARTCHAR char172
ENCODING 172
SWIDTH 480 0
DWIDTH 5 0
BBX 5 3 0 1
BITMAP
F8
08
08
ENDCHAR
STARTCHAR char174
ENCODING 174
SWIDTH 480 0
DWIDTH 5 0
BBX 7 7 -1 0
BITMAP
38
44
BA
B2
AA
44
38
ENDCHAR
STARTCHAR char175
ENCODING 175
SWIDTH 480 0
DWIDTH 5 0
BBX 4 1 1 6
BITMAP
E0
ENDCHAR
STARTCHAR char176
ENCODING 176
SWIDTH 480 0
DWIDTH 5 0
BBX 3 3 0 2
BITMAP
40
A0
40
ENDCHAR
STARTCHAR char177
ENCODING 177
SWIDTH 480 0
DWIDTH 5 0
BBX 4 5 0 0
BITMAP
20
70
20
00
70
ENDCHAR
STARTCHAR char178
ENCODING 178
SWIDTH 480 0
DWIDTH 5 0
BBX 3 5 1 2
BITMAP
C0
20
40
80
E0
ENDCHAR
STARTCHAR char179
ENCODING 179
SWIDTH 480 0
DWIDTH 5 0
BBX 3 5 1 2
BITMAP
C0
20
C0
20
C0
ENDCHAR
STARTCHAR char180
ENCODING 180
SWIDTH 480 0
DWIDTH 5 0
BBX 2 2 1 6
BITMAP
40
80
ENDCHAR
STARTCHAR char181
ENCODING 181
SWIDTH 480 0
DWIDTH 5 0
BBX 4 6 0 -1
BITMAP
90
90
90
90
E0
80
ENDCHAR
STARTCHAR char182
ENCODING 182
SWIDTH 480 0
DWIDTH 5 0
BBX 5 6 0 0
BITMAP
78
A8
A8
68
28
28
ENDCHAR
STARTCHAR char183
ENCODING 183
SWIDTH 480 0
DWIDTH 5 0
BBX 2 2 2 2
BITMAP
C0
C0
ENDCHAR
STARTCHAR char184
ENCODING 184
SWIDTH 480 0
DWIDTH 5 0
BBX 3 3 1 1
BITMAP
40
20
E0
ENDCHAR
STARTCHAR char185
ENCODING 185
SWIDTH 480 0
DWIDTH 5 0
BBX 2 4 1 2
BITMAP
40
C0
40
40
ENDCHAR
STARTCHAR char186
ENCODING 186
SWIDTH 480 0
DWIDTH 5 0
BBX 4 4 0 4
BITMAP
60
90
90
60
ENDCHAR
STARTCHAR char187
ENCODING 187
SWIDTH 480 0
DWIDTH 5 0
BBX 5 3 1 2
BITMAP
A0
50
A0
ENDCHAR
STARTCHAR char188
ENCODING 188
SWIDTH 480 0
DWIDTH 5 0
BBX 5 8 1 0
BITMAP
40
C0
40
50
30
50
78
10
ENDCHAR
STARTCHAR char189
ENCODING 189
SWIDTH 480 0
DWIDTH 5 0
BBX 5 7 1 1
BITMAP
40
C0
40
70
08
10
38
ENDCHAR
STARTCHAR char190
ENCODING 190
SWIDTH 480 0
DWIDTH 5 0
BBX 6 8 0 0
BITMAP
C0
20
40
28
D8
28
3C
08
ENDCHAR
STARTCHAR char191
ENCODING 191
SWIDTH 480 0
DWIDTH 5 0
BBX 3 6 2 0
BITMAP
40
00
40
80
A0
E0
ENDCHAR
STARTCHAR char192
ENCODING 192
SWIDTH 480 0
DWIDTH 5 0
BBX 4 8 1 0
BITMAP
40
20
60
90
90
F0
90
90
ENDCHAR
STARTCHAR char193
ENCODING 193
SWIDTH 480 0
DWIDTH 5 0
BBX 4 8 1 0
BITMAP
20
40
60
90
90
F0
90
90
ENDCHAR
STARTCHAR char194
ENCODING 194
SWIDTH 480 0
DWIDTH 5 0
BBX 4 8 1 0
BITMAP
40
A0
00
60
90
F0
90
90
ENDCHAR
STARTCHAR char195
ENCODING 195
SWIDTH 480 0
DWIDTH 5 0
BBX 4 8 1 0
BITMAP
50
A0
60
90
90
F0
90
90
ENDCHAR
STARTCHAR char196
ENCODING 196
SWIDTH 480 0
DWIDTH 5 0
BBX 5 8 0 0
BITMAP
48
00
30
48
48
78
48
48
ENDCHAR
STARTCHAR char197
ENCODING 197
SWIDTH 480 0
DWIDTH 5 0
BBX 4 8 1 0
BITMAP
60
90
60
90
90
F0
90
90
ENDCHAR
STARTCHAR char198
ENCODING 198
SWIDTH 480 0
DWIDTH 5 0
BBX 6 6 0 0
BITMAP
7C
90
98
F0
90
9C
ENDCHAR
STARTCHAR char199
ENCODING 199
SWIDTH 480 0
DWIDTH 5 0
BBX 4 8 0 -2
BITMAP
70
80
80
80
80
70
20
40
ENDCHAR
STARTCHAR char200
ENCODING 200
SWIDTH 480 0
DWIDTH 5 0
BBX 4 8 1 0
BITMAP
40
20
F0
80
E0
80
80
F0
ENDCHAR
STARTCHAR char201
ENCODING 201
SWIDTH 480 0
DWIDTH 5 0
BBX 4 8 1 0
BITMAP
20
40
F0
80
E0
80
80
F0
ENDCHAR
STARTCHAR char202
ENCODING 202
SWIDTH 480 0
DWIDTH 5 0
BBX 4 8 1 0
BITMAP
40
A0
F0
80
E0
80
80
F0
ENDCHAR
STARTCHAR char203
ENCODING 203
SWIDTH 480 0
DWIDTH 5 0
BBX 4 8 1 0
BITMAP
A0
00
F0
80
E0
80
80
F0
ENDCHAR
STARTCHAR char204
ENCODING 204
SWIDTH 480 0
DWIDTH 5 0
BBX 3 8 1 0
BITMAP
80
40
00
E0
40
40
40
E0
ENDCHAR
STARTCHAR char205
ENCODING 205
SWIDTH 480 0
DWIDTH 5 0
BBX 3 8 1 0
BITMAP
20
40
00
E0
40
40
40
E0
ENDCHAR
STARTCHAR char206
ENCODING 206
SWIDTH 480 0
DWIDTH 5 0
BBX 3 8 1 0
BITMAP
40
A0
00
E0
40
40
40
E0
ENDCHAR
STARTCHAR char207
ENCODING 207
SWIDTH 480 0
DWIDTH 5 0
BBX 3 8 1 0
BITMAP
A0
00
E0
40
40
40
40
E0
ENDCHAR
STARTCHAR char208
ENCODING 208
SWIDTH 480 0
DWIDTH 5 0
BBX 5 6 0 0
BITMAP
70
48
E8
48
48
70
ENDCHAR
STARTCHAR char209
ENCODING 209
SWIDTH 480 0
DWIDTH 5 0
BBX 5 8 0 0
BITMAP
28
50
00
70
48
48
48
48
ENDCHAR
STARTCHAR char210
ENCODING 210
SWIDTH 480 0
DWIDTH 5 0
BBX 4 8 1 0
BITMAP
80
40
00
60
90
90
90
60
ENDCHAR
STARTCHAR char211
ENCODING 211
SWIDTH 480 0
DWIDTH 5 0
BBX 4 8 1 0
BITMAP
20
40
00
60
90
90
90
60
ENDCHAR
STARTCHAR char212
ENCODING 212
SWIDTH 480 0
DWIDTH 5 0
BBX 4 8 1 0
BITMAP
40
A0
00
60
90
90
90
60
ENDCHAR
STARTCHAR char213
ENCODING 213
SWIDTH 480 0
DWIDTH 5 0
BBX 4 8 1 0
BITMAP
50
A0
00
60
90
90
90
60
ENDCHAR
STARTCHAR char214
ENCODING 214
SWIDTH 480 0
DWIDTH 5 0
BBX 5 7 0 0
BITMAP
48
00
30
48
48
48
30
ENDCHAR
STARTCHAR char215
ENCODING 215
SWIDTH 480 0
DWIDTH 5 0
BBX 3 3 1 2
BITMAP
A0
40
A0
ENDCHAR
STARTCHAR char216
ENCODING 216
SWIDTH 480 0
DWIDTH 5 0
BBX 4 8 1 -1
BITMAP
10
60
B0
B0
D0
D0
60
80
ENDCHAR
STARTCHAR char217
ENCODING 217
SWIDTH 480 0
DWIDTH 5 0
BBX 4 8 1 0
BITMAP
80
40
90
90
90
90
90
70
ENDCHAR
STARTCHAR char218
ENCODING 218
SWIDTH 480 0
DWIDTH 5 0
BBX 4 8 1 0
BITMAP
10
20
90
90
90
90
90
70
ENDCHAR
STARTCHAR char219
ENCODING 219
SWIDTH 480 0
DWIDTH 5 0
BBX 4 8 1 0
BITMAP
40
A0
00
90
90
90
90
70
ENDCHAR
STARTCHAR char220
ENCODING 220
SWIDTH 480 0
DWIDTH 5 0
BBX 4 8 1 0
BITMAP
50
00
00
90
90
90
90
70
ENDCHAR
STARTCHAR char221
ENCODING 221
SWIDTH 480 0
DWIDTH 5 0
BBX 5 8 0 0
BITMAP
10
20
88
50
20
20
20
20
ENDCHAR
STARTCHAR char222
ENCODING 222
SWIDTH 480 0
DWIDTH 5 0
BBX 4 7 1 -1
BITMAP
80
80
E0
90
90
E0
80
ENDCHAR
STARTCHAR char223
ENCODING 223
SWIDTH 480 0
DWIDTH 5 0
BBX 4 7 1 -1
BITMAP
60
90
A0
90
90
A0
80
ENDCHAR
STARTCHAR char224
ENCODING 224
SWIDTH 480 0
DWIDTH 5 0
BBX 4 8 1 0
BITMAP
80
40
00
70
90
90
B0
50
ENDCHAR
STARTCHAR char225
ENCODING 225
SWIDTH 480 0
DWIDTH 5 0
BBX 4 8 1 0
BITMAP
20
40
00
70
90
90
B0
50
ENDCHAR
STARTCHAR char226
ENCODING 226
SWIDTH 480 0
DWIDTH 5 0
BBX 4 8 1 0
BITMAP
40
A0
00
70
90
90
B0
50
ENDCHAR
STARTCHAR char227
ENCODING 227
SWIDTH 480 0
DWIDTH 5 0
BBX 4 8 1 0
BITMAP
50
A0
00
70
90
90
B0
50
ENDCHAR
STARTCHAR char228
ENCODING 228
SWIDTH 480 0
DWIDTH 5 0
BBX 4 7 1 0
BITMAP
90
00
70
90
90
B0
50
ENDCHAR
STARTCHAR char229
ENCODING 229
SWIDTH 480 0
DWIDTH 5 0
BBX 4 7 1 0
BITMAP
20
00
70
90
90
B0
50
ENDCHAR
STARTCHAR char230
ENCODING 230
SWIDTH 480 0
DWIDTH 5 0
BBX 6 5 1 0
BITMAP
78
94
9C
B0
5C
ENDCHAR
STARTCHAR char231
ENCODING 231
SWIDTH 480 0
DWIDTH 5 0
BBX 4 7 1 -2
BITMAP
70
80
80
80
70
20
40
ENDCHAR
STARTCHAR char232
ENCODING 232
SWIDTH 480 0
DWIDTH 5 0
BBX 4 8 1 0
BITMAP
80
40
00
60
90
F0
80
70
ENDCHAR
STARTCHAR char233
ENCODING 233
SWIDTH 480 0
DWIDTH 5 0
BBX 4 8 1 0
BITMAP
20
40
00
60
90
F0
80
70
ENDCHAR
STARTCHAR char234
ENCODING 234
SWIDTH 480 0
DWIDTH 5 0
BBX 4 8 1 0
BITMAP
40
A0
00
60
90
F0
80
70
ENDCHAR
STARTCHAR char235
ENCODING 235
SWIDTH 480 0
DWIDTH 5 0
BBX 4 7 1 0
BITMAP
A0
00
60
90
F0
80
70
ENDCHAR
STARTCHAR char236
ENCODING 236
SWIDTH 480 0
DWIDTH 5 0
BBX 2 8 2 0
BITMAP
80
40
00
C0
40
40
40
40
ENDCHAR
STARTCHAR char237
ENCODING 237
SWIDTH 480 0
DWIDTH 5 0
BBX 3 8 2 0
BITMAP
20
40
00
C0
40
40
40
40
ENDCHAR
STARTCHAR char238
ENCODING 238
SWIDTH 480 0
DWIDTH 5 0
BBX 3 8 2 0
BITMAP
40
A0
00
C0
40
40
40
40
ENDCHAR
STARTCHAR char239
ENCODING 239
SWIDTH 480 0
DWIDTH 5 0
BBX 3 7 2 0
BITMAP
A0
00
C0
40
40
40
40
ENDCHAR
STARTCHAR char240
ENCODING 240
SWIDTH 480 0
DWIDTH 5 0
BBX 4 8 1 0
BITMAP
A0
60
90
70
90
90
90
60
ENDCHAR
STARTCHAR char241
ENCODING 241
SWIDTH 480 0
DWIDTH 5 0
BBX 4 8 1 0
BITMAP
50
A0
00
E0
90
90
90
90
ENDCHAR
STARTCHAR char242
ENCODING 242
SWIDTH 480 0
DWIDTH 5 0
BBX 5 8 0 0
BITMAP
40
20
00
30
48
48
48
30
ENDCHAR
STARTCHAR char243
ENCODING 243
SWIDTH 480 0
DWIDTH 5 0
BBX 4 8 1 0
BITMAP
10
20
00
60
90
90
90
60
ENDCHAR
STARTCHAR char244
ENCODING 244
SWIDTH 480 0
DWIDTH 5 0
BBX 4 8 1 0
BITMAP
40
A0
00
60
90
90
90
60
ENDCHAR
STARTCHAR char245
ENCODING 245
SWIDTH 480 0
DWIDTH 5 0
BBX 4 8 1 0
BITMAP
50
A0
00
60
90
90
90
60
ENDCHAR
STARTCHAR char246
ENCODING 246
SWIDTH 480 0
DWIDTH 5 0
BBX 4 7 1 0
BITMAP
90
00
60
90
90
90
60
ENDCHAR
STARTCHAR char247
ENCODING 247
SWIDTH 480 0
DWIDTH 5 0
BBX 5 5 0 1
BITMAP
20
00
F8
00
20
ENDCHAR
STARTCHAR char248
ENCODING 248
SWIDTH 480 0
DWIDTH 5 0
BBX 4 7 1 -1
BITMAP
10
60
B0
90
D0
60
80
ENDCHAR
STARTCHAR char249
ENCODING 249
SWIDTH 480 0
DWIDTH 5 0
BBX 4 8 1 0
BITMAP
80
40
00
90
90
90
90
70
ENDCHAR
STARTCHAR char250
ENCODING 250
SWIDTH 480 0
DWIDTH 5 0
BBX 5 8 0 0
BITMAP
10
20
00
48
48
48
48
38
ENDCHAR
STARTCHAR char251
ENCODING 251
SWIDTH 480 0
DWIDTH 5 0
BBX 4 8 1 0
BITMAP
40
A0
00
90
90
90
90
70
ENDCHAR
STARTCHAR char252
ENCODING 252
SWIDTH 480 0
DWIDTH 5 0
BBX 5 7 0 0
BITMAP
50
00
48
48
48
48
38
ENDCHAR
STARTCHAR char253
ENCODING 253
SWIDTH 480 0
DWIDTH 5 0
BBX 4 10 1 -2
BITMAP
20
40
00
90
90
90
90
70
10
60
ENDCHAR
STARTCHAR char254
ENCODING 254
SWIDTH 480 0
DWIDTH 5 0
BBX 5 9 -1 -1
BITMAP
40
40
70
48
48
48
70
40
40
ENDCHAR
STARTCHAR char255
ENCODING 255
SWIDTH 480 0
DWIDTH 5 0
BBX 4 9 1 -2
BITMAP
50
00
90
90
90
90
70
10
60
ENDCHAR
STARTCHAR COMBINING GREEK KORONIS
ENCODING 835
SWIDTH 480 0
DWIDTH 5 0
BBX 2 4 1 3
BITMAP
40
40
40
80
ENDCHAR
STARTCHAR COMBINING DOUBLE BREVE BELOW
ENCODING 860
SWIDTH 480 0
DWIDTH 5 0
BBX 5 2 0 -1
BITMAP
88
70
ENDCHAR
STARTCHAR COMBINING DOUBLE INVERTED BREVE
ENCODING 865
SWIDTH 480 0
DWIDTH 5 0
BBX 5 2 0 7
BITMAP
70
88
ENDCHAR
STARTCHAR GREEK CAPITAL LETTER HETA
ENCODING 880
SWIDTH 480 0
DWIDTH 5 0
BBX 4 7 0 0
BITMAP
80
80
80
F0
80
80
80
ENDCHAR
STARTCHAR GREEK SMALL LETTER HETA
ENCODING 881
SWIDTH 480 0
DWIDTH 5 0
BBX 5 6 0 0
BITMAP
80
40
40
78
40
40
ENDCHAR
STARTCHAR GREEK CAPITAL LETTER ARCHAIC SAMPI
ENCODING 882
SWIDTH 480 0
DWIDTH 5 0
BBX 5 6 0 0
BITMAP
F8
A8
20
20
20
20
ENDCHAR
STARTCHAR GREEK SMALL LETTER ARCHAIC SAMPI
ENCODING 883
SWIDTH 480 0
DWIDTH 5 0
BBX 5 5 0 0
BITMAP
F8
A8
20
20
20
ENDCHAR
STARTCHAR GREEK NUMERAL SIGN
ENCODING 884
SWIDTH 480 0
DWIDTH 5 0
BBX 3 2 1 6
BITMAP
60
C0
ENDCHAR
STARTCHAR GREEK LOWER NUMERAL SIGN
ENCODING 885
SWIDTH 480 0
DWIDTH 5 0
BBX 4 3 0 -1
BITMAP
30
60
C0
ENDCHAR
STARTCHAR uni004E
ENCODING 886
SWIDTH 480 0
DWIDTH 5 0
BBX 4 6 1 0
BITMAP
90
B0
B0
D0
D0
90
ENDCHAR
STARTCHAR GREEK SMALL LETTER PAMPHYLIAN DIGAMMA
ENCODING 887
SWIDTH 480 0
DWIDTH 5 0
BBX 5 6 1 -1
BITMAP
90
B0
D0
90
90
08
ENDCHAR
STARTCHAR GREEK YPOGEGRAMMENI
ENCODING 890
SWIDTH 480 0
DWIDTH 5 0
BBX 5 2 -2 -2
BITMAP
10
18
ENDCHAR
STARTCHAR GREEK SMALL REVERSED LUNATE SIGMA SYMBOL
ENCODING 891
SWIDTH 480 0
DWIDTH 5 0
BBX 5 5 0 0
BITMAP
70
88
08
88
70
ENDCHAR
STARTCHAR GREEK SMALL DOTTED LUNATE SIGMA SYMBOL
ENCODING 892
SWIDTH 480 0
DWIDTH 5 0
BBX 5 5 0 0
BITMAP
70
88
A0
88
70
ENDCHAR
STARTCHAR GREEK SMALL REVERSED DOTTED LUNATE SIGMA SYMBOL
ENCODING 893
SWIDTH 480 0
DWIDTH 5 0
BBX 5 5 0 0
BITMAP
70
88
28
88
70
ENDCHAR
STARTCHAR uni003B
ENCODING 894
SWIDTH 480 0
DWIDTH 5 0
BBX 2 6 1 -1
BITMAP
40
40
00
40
40
80
ENDCHAR
STARTCHAR uni037F
ENCODING 895
SWIDTH 480 0
DWIDTH 5 0
BBX 6 3 0 1
BITMAP
FC
FC
FC
ENDCHAR
STARTCHAR uni037F
ENCODING 896
SWIDTH 480 0
DWIDTH 5 0
BBX 5 3 0 0
BITMAP
F8
F8
F8
ENDCHAR
STARTCHAR uni0380
ENCODING 897
SWIDTH 480 0
DWIDTH 5 0
BBX 5 3 0 0
BITMAP
A8
50
A8
ENDCHAR
STARTCHAR GREEK TONOS
ENCODING 900
SWIDTH 480 0
DWIDTH 5 0
BBX 2 3 2 5
BITMAP
40
C0
80
ENDCHAR
STARTCHAR GREEK DIALYTIKA TONOS
ENCODING 901
SWIDTH 480 0
DWIDTH 5 0
BBX 6 3 0 5
BITMAP
10
B4
20
ENDCHAR
STARTCHAR GREEK CAPITAL LETTER ALPHA WITH TONOS
ENCODING 902
SWIDTH 480 0
DWIDTH 5 0
BBX 4 9 1 0
BITMAP
20
40
00
60
90
90
F0
90
90
ENDCHAR
STARTCHAR GREEK ANO TELEIA
ENCODING 903
SWIDTH 480 0
DWIDTH 5 0
BBX 2 2 2 3
BITMAP
C0
C0
ENDCHAR
STARTCHAR char201
ENCODING 904
SWIDTH 480 0
DWIDTH 5 0
BBX 4 8 1 0
BITMAP
20
40
F0
80
E0
80
80
F0
ENDCHAR
STARTCHAR GREEK CAPITAL LETTER ETA WITH TONOS
ENCODING 905
SWIDTH 480 0
DWIDTH 5 0
BBX 5 7 0 0
BITMAP
20
48
C8
78
48
48
48
ENDCHAR
STARTCHAR GREEK CAPITAL LETTER IOTA WITH TONOS
ENCODING 906
SWIDTH 480 0
DWIDTH 5 0
BBX 4 7 0 0
BITMAP
20
70
A0
20
20
20
70
ENDCHAR
STARTCHAR GREEK CAPITAL LETTER OMICRON WITH TONOS
ENCODING 908
SWIDTH 480 0
DWIDTH 5 0
BBX 5 8 0 0
BITMAP
40
80
30
48
48
48
48
30
ENDCHAR
STARTCHAR GREEK CAPITAL LETTER UPSILON WITH TONOS
ENCODING 910
SWIDTH 480 0
DWIDTH 5 0
BBX 5 7 0 0
BITMAP
40
A8
28
28
10
10
10
ENDCHAR
STARTCHAR GREEK CAPITAL LETTER OMEGA WITH TONOS
ENCODING 911
SWIDTH 480 0
DWIDTH 5 0
BBX 5 8 0 0
BITMAP
40
80
70
88
88
88
50
D8
ENDCHAR
STARTCHAR GREEK SMALL LETTER IOTA WITH DIALYTIKA AND TONOS
ENCODING 912
SWIDTH 480 0
DWIDTH 5 0
BBX 6 9 0 0
BITMAP
10
B4
20
00
20
20
20
20
20
ENDCHAR
STARTCHAR GREEK CAPITAL LETTER ALPHA
ENCODING 913
SWIDTH 480 0
DWIDTH 5 0
BBX 4 6 1 0
BITMAP
60
90
90
F0
90
90
ENDCHAR
STARTCHAR uni0042
ENCODING 914
SWIDTH 480 0
DWIDTH 5 0
BBX 4 6 1 0
BITMAP
E0
90
E0
90
90
E0
ENDCHAR
STARTCHAR GREEK CAPITAL LETTER GAMMA
ENCODING 915
SWIDTH 480 0
DWIDTH 5 0
BBX 4 5 1 0
BITMAP
F0
80
80
80
80
ENDCHAR
STARTCHAR GREEK CAPITAL LETTER DELTA
ENCODING 916
SWIDTH 480 0
DWIDTH 5 0
BBX 5 6 0 0
BITMAP
20
20
50
50
88
F8
ENDCHAR
STARTCHAR uni0045
ENCODING 917
SWIDTH 480 0
DWIDTH 5 0
BBX 4 6 1 0
BITMAP
F0
80
E0
80
80
F0
ENDCHAR
STARTCHAR uni005A
ENCODING 918
SWIDTH 480 0
DWIDTH 5 0
BBX 4 6 1 0
BITMAP
F0
10
20
40
80
F0
ENDCHAR
STARTCHAR uni0048
ENCODING 919
SWIDTH 480 0
DWIDTH 5 0
BBX 4 6 1 0
BITMAP
90
90
F0
90
90
90
ENDCHAR
STARTCHAR GREEK CAPITAL LETTER THETA
ENCODING 920
SWIDTH 480 0
DWIDTH 5 0
BBX 4 6 1 0
BITMAP
60
90
B0
D0
90
60
ENDCHAR
STARTCHAR GREEK CAPITAL LETTER IOTA
ENCODING 921
SWIDTH 480 0
DWIDTH 5 0
BBX 3 6 1 0
BITMAP
E0
40
40
40
40
E0
ENDCHAR
STARTCHAR uni004B
ENCODING 922
SWIDTH 480 0
DWIDTH 5 0
BBX 4 6 1 0
BITMAP
90
A0
C0
A0
90
90
ENDCHAR
STARTCHAR GREEK CAPITAL LETTER LAMDA
ENCODING 923
SWIDTH 480 0
DWIDTH 5 0
BBX 5 6 0 0
BITMAP
20
20
50
50
88
88
ENDCHAR
STARTCHAR uni004D
ENCODING 924
SWIDTH 480 0
DWIDTH 5 0
BBX 4 6 1 0
BITMAP
90
F0
90
90
90
90
ENDCHAR
STARTCHAR uni004E
ENCODING 925
SWIDTH 480 0
DWIDTH 5 0
BBX 4 6 1 0
BITMAP
90
D0
D0
B0
B0
90
ENDCHAR
STARTCHAR GREEK CAPITAL LETTER XI
ENCODING 926
SWIDTH 480 0
DWIDTH 5 0
BBX 5 5 0 0
BITMAP
F8
00
70
00
F8
ENDCHAR
STARTCHAR GREEK CAPITAL LETTER OMICRON
ENCODING 927
SWIDTH 480 0
DWIDTH 5 0
BBX 4 6 1 0
BITMAP
60
90
90
90
90
60
ENDCHAR
STARTCHAR char1055
ENCODING 928
SWIDTH 480 0
DWIDTH 5 0
BBX 5 6 0 0
BITMAP
78
48
48
48
48
48
ENDCHAR
STARTCHAR uni0050
ENCODING 929
SWIDTH 480 0
DWIDTH 5 0
BBX 4 6 1 0
BITMAP
E0
90
90
E0
80
80
ENDCHAR
STARTCHAR GREEK CAPITAL LETTER SIGMA
ENCODING 931
SWIDTH 480 0
DWIDTH 5 0
BBX 5 6 0 0
BITMAP
F8
40
20
40
80
F8
ENDCHAR
STARTCHAR GREEK CAPITAL LETTER TAU
ENCODING 932
SWIDTH 480 0
DWIDTH 5 0
BBX 5 6 0 0
BITMAP
F8
20
20
20
20
20
ENDCHAR
STARTCHAR uni0059
ENCODING 933
SWIDTH 480 0
DWIDTH 5 0
BBX 5 6 0 0
BITMAP
88
88
50
20
20
20
ENDCHAR
STARTCHAR GREEK CAPITAL LETTER PHI
ENCODING 934
SWIDTH 480 0
DWIDTH 5 0
BBX 5 7 0 0
BITMAP
20
70
A8
A8
A8
70
20
ENDCHAR
STARTCHAR uni0058
ENCODING 935
SWIDTH 480 0
DWIDTH 5 0
BBX 4 6 1 0
BITMAP
90
90
60
90
90
90
ENDCHAR
STARTCHAR GREEK CAPITAL LETTER PSI
ENCODING 936
SWIDTH 480 0
DWIDTH 5 0
BBX 5 6 0 0
BITMAP
A8
A8
A8
70
20
20
ENDCHAR
STARTCHAR GREEK CAPITAL LETTER OMEGA
ENCODING 937
SWIDTH 480 0
DWIDTH 5 0
BBX 5 6 0 0
BITMAP
70
88
88
88
50
D8
ENDCHAR
STARTCHAR GREEK CAPITAL LETTER IOTA WITH DIALYTIKA
ENCODING 938
SWIDTH 480 0
DWIDTH 5 0
BBX 3 8 1 0
BITMAP
A0
00
40
40
40
40
40
40
ENDCHAR
STARTCHAR GREEK CAPITAL LETTER UPSILON WITH DIALYTIKA
ENCODING 939
SWIDTH 480 0
DWIDTH 5 0
BBX 5 8 0 0
BITMAP
50
00
88
88
50
20
20
20
ENDCHAR
STARTCHAR char225
ENCODING 940
SWIDTH 480 0
DWIDTH 5 0
BBX 4 8 1 0
BITMAP
20
40
00
70
90
90
B0
50
ENDCHAR
STARTCHAR GREEK SMALL LETTER EPSILON WITH TONOS
ENCODING 941
SWIDTH 480 0
DWIDTH 5 0
BBX 4 8 0 0
BITMAP
20
40
00
70
80
E0
80
70
ENDCHAR
STARTCHAR uni006E
ENCODING 942
SWIDTH 480 0
DWIDTH 5 0
BBX 4 9 1 -1
BITMAP
20
40
00
E0
90
90
90
90
10
ENDCHAR
STARTCHAR GREEK SMALL LETTER IOTA WITH TONOS
ENCODING 943
SWIDTH 480 0
DWIDTH 5 0
BBX 3 8 1 0
BITMAP
20
40
00
C0
40
40
40
40
ENDCHAR
STARTCHAR GREEK SMALL LETTER UPSILON WITH DIALYTIKA AND TONOS
ENCODING 944
SWIDTH 480 0
DWIDTH 5 0
BBX 6 8 0 0
BITMAP
10
B4
20
48
48
48
48
38
ENDCHAR
STARTCHAR uni0061
ENCODING 945
SWIDTH 480 0
DWIDTH 5 0
BBX 4 5 1 0
BITMAP
70
90
90
B0
50
ENDCHAR
STARTCHAR char223
ENCODING 946
SWIDTH 480 0
DWIDTH 5 0
BBX 4 7 0 -1
BITMAP
60
90
A0
90
90
A0
80
ENDCHAR
STARTCHAR uni0076
ENCODING 947
SWIDTH 480 0
DWIDTH 5 0
BBX 4 7 1 -2
BITMAP
90
90
50
60
50
50
20
ENDCHAR
STARTCHAR GREEK SMALL LETTER DELTA
ENCODING 948
SWIDTH 480 0
DWIDTH 5 0
BBX 4 7 1 0
BITMAP
F0
80
60
90
90
90
60
ENDCHAR
STARTCHAR GREEK SMALL LETTER EPSILON
ENCODING 949
SWIDTH 480 0
DWIDTH 5 0
BBX 4 5 0 0
BITMAP
70
80
E0
80
70
ENDCHAR
STARTCHAR GREEK SMALL LETTER ZETA
ENCODING 950
SWIDTH 480 0
DWIDTH 5 0
BBX 5 7 0 -1
BITMAP
F0
20
40
80
80
78
10
ENDCHAR
STARTCHAR GREEK SMALL LETTER ETA
ENCODING 951
SWIDTH 480 0
DWIDTH 5 0
BBX 4 6 1 -1
BITMAP
E0
90
90
90
90
10
ENDCHAR
STARTCHAR GREEK SMALL LETTER THETA
ENCODING 952
SWIDTH 480 0
DWIDTH 5 0
BBX 4 5 0 0
BITMAP
60
90
F0
90
60
ENDCHAR
STARTCHAR GREEK SMALL LETTER IOTA
ENCODING 953
SWIDTH 480 0
DWIDTH 5 0
BBX 2 5 2 0
BITMAP
C0
40
40
40
40
ENDCHAR
STARTCHAR uni006B
ENCODING 954
SWIDTH 480 0
DWIDTH 5 0
BBX 4 5 1 0
BITMAP
90
A0
E0
90
90
ENDCHAR
STARTCHAR GREEK SMALL LETTER LAMDA
ENCODING 955
SWIDTH 480 0
DWIDTH 5 0
BBX 4 7 1 0
BITMAP
80
80
40
60
60
90
90
ENDCHAR
STARTCHAR uni0075
ENCODING 956
SWIDTH 480 0
DWIDTH 5 0
BBX 5 6 1 -1
BITMAP
90
90
90
90
E8
80
ENDCHAR
STARTCHAR uni0076
ENCODING 957
SWIDTH 480 0
DWIDTH 5 0
BBX 4 5 1 0
BITMAP
90
90
90
60
60
ENDCHAR
STARTCHAR GREEK SMALL LETTER XI
ENCODING 958
SWIDTH 480 0
DWIDTH 5 0
BBX 4 8 0 -2
BITMAP
60
90
40
80
80
60
10
20
ENDCHAR
STARTCHAR GREEK SMALL LETTER OMICRON
ENCODING 959
SWIDTH 480 0
DWIDTH 5 0
BBX 4 5 1 0
BITMAP
60
90
90
90
60
ENDCHAR
STARTCHAR GREEK SMALL LETTER PI
ENCODING 960
SWIDTH 480 0
DWIDTH 5 0
BBX 5 5 1 0
BITMAP
F8
50
50
50
50
ENDCHAR
STARTCHAR uni0070
ENCODING 961
SWIDTH 480 0
DWIDTH 5 0
BBX 4 8 1 -3
BITMAP
60
90
90
90
E0
80
80
80
ENDCHAR
STARTCHAR char231
ENCODING 962
SWIDTH 480 0
DWIDTH 5 0
BBX 4 7 1 -2
BITMAP
70
80
80
80
70
20
40
ENDCHAR
STARTCHAR char240
ENCODING 963
SWIDTH 480 0
DWIDTH 5 0
BBX 5 5 1 0
BITMAP
78
90
90
90
60
ENDCHAR
STARTCHAR GREEK SMALL LETTER TAU
ENCODING 964
SWIDTH 480 0
DWIDTH 5 0
BBX 5 5 0 0
BITMAP
78
A0
20
20
10
ENDCHAR
STARTCHAR uni0075
ENCODING 965
SWIDTH 480 0
DWIDTH 5 0
BBX 4 5 1 0
BITMAP
90
90
90
90
70
ENDCHAR
STARTCHAR GREEK SMALL LETTER PHI
ENCODING 966
SWIDTH 480 0
DWIDTH 5 0
BBX 5 7 1 -2
BITMAP
B0
A8
A8
A8
70
20
20
ENDCHAR
STARTCHAR uni0078
ENCODING 967
SWIDTH 480 0
DWIDTH 5 0
BBX 4 5 1 0
BITMAP
90
90
60
90
90
ENDCHAR
STARTCHAR GREEK SMALL LETTER PSI
ENCODING 968
SWIDTH 480 0
DWIDTH 5 0
BBX 5 7 1 -2
BITMAP
A8
A8
A8
70
20
20
20
ENDCHAR
STARTCHAR GREEK SMALL LETTER OMEGA
ENCODING 969
SWIDTH 480 0
DWIDTH 5 0
BBX 5 5 0 0
BITMAP
50
88
A8
A8
50
ENDCHAR
STARTCHAR GREEK SMALL LETTER IOTA WITH DIALYTIKA
ENCODING 970
SWIDTH 480 0
DWIDTH 5 0
BBX 3 7 2 0
BITMAP
A0
00
C0
40
40
40
40
ENDCHAR
STARTCHAR char252
ENCODING 971
SWIDTH 480 0
DWIDTH 5 0
BBX 5 7 0 0
BITMAP
50
00
48
48
48
48
38
ENDCHAR
STARTCHAR char243
ENCODING 972
SWIDTH 480 0
DWIDTH 5 0
BBX 4 8 1 0
BITMAP
10
20
00
60
90
90
90
60
ENDCHAR
STARTCHAR char250
ENCODING 973
SWIDTH 480 0
DWIDTH 5 0
BBX 5 8 0 0
BITMAP
10
20
00
48
48
48
48
38
ENDCHAR
STARTCHAR GREEK SMALL LETTER OMEGA WITH TONOS
ENCODING 974
SWIDTH 480 0
DWIDTH 5 0
BBX 5 8 0 0
BITMAP
20
40
00
50
88
A8
D8
88
ENDCHAR
STARTCHAR uni004B
ENCODING 975
SWIDTH 480 0
DWIDTH 5 0
BBX 4 7 1 -1
BITMAP
90
A0
C0
A0
90
90
20
ENDCHAR
STARTCHAR GREEK BETA SYMBOL
ENCODING 976
SWIDTH 480 0
DWIDTH 5 0
BBX 4 6 0 0
BITMAP
60
90
E0
90
90
60
ENDCHAR
STARTCHAR GREEK THETA SYMBOL
ENCODING 977
SWIDTH 480 0
DWIDTH 5 0
BBX 6 6 0 0
BITMAP
30
48
5C
E8
48
30
ENDCHAR
STARTCHAR uni0059
ENCODING 978
SWIDTH 480 0
DWIDTH 5 0
BBX 6 6 0 0
BITMAP
88
8C
50
20
20
20
ENDCHAR
STARTCHAR uni0059
ENCODING 979
SWIDTH 480 0
DWIDTH 5 0
BBX 6 7 0 0
BITMAP
40
88
8C
50
20
20
20
ENDCHAR
STARTCHAR uni0059
ENCODING 980
SWIDTH 480 0
DWIDTH 5 0
BBX 6 8 0 0
BITMAP
50
00
88
8C
50
20
20
20
ENDCHAR
STARTCHAR GREEK PHI SYMBOL
ENCODING 981
SWIDTH 480 0
DWIDTH 5 0
BBX 5 9 0 -2
BITMAP
20
20
70
A8
A8
A8
70
20
20
ENDCHAR
STARTCHAR GREEK PI SYMBOL
ENCODING 982
SWIDTH 480 0
DWIDTH 5 0
BBX 5 5 0 0
BITMAP
F8
88
A8
D8
88
ENDCHAR
STARTCHAR uni0078
ENCODING 983
SWIDTH 480 0
DWIDTH 5 0
BBX 5 6 1 -1
BITMAP
90
90
60
90
98
20
ENDCHAR
STARTCHAR GREEK LETTER ARCHAIC KOPPA
ENCODING 984
SWIDTH 480 0
DWIDTH 5 0
BBX 5 8 0 -2
BITMAP
70
88
88
88
88
70
20
20
ENDCHAR
STARTCHAR GREEK SMALL LETTER ARCHAIC KOPPA
ENCODING 985
SWIDTH 480 0
DWIDTH 5 0
BBX 5 7 0 -2
BITMAP
70
88
88
88
70
20
20
ENDCHAR
STARTCHAR GREEK LETTER STIGMA
ENCODING 986
SWIDTH 480 0
DWIDTH 5 0
BBX 5 8 1 -2
BITMAP
70
80
80
80
80
70
08
30
ENDCHAR
STARTCHAR GREEK SMALL LETTER STIGMA
ENCODING 987
SWIDTH 480 0
DWIDTH 5 0
BBX 5 7 1 -2
BITMAP
70
80
80
80
70
08
30
ENDCHAR
STARTCHAR uni0046
ENCODING 988
SWIDTH 480 0
DWIDTH 5 0
BBX 4 6 1 0
BITMAP
F0
80
F0
90
80
80
ENDCHAR
STARTCHAR uni0046
ENCODING 989
SWIDTH 480 0
DWIDTH 5 0
BBX 4 6 1 -1
BITMAP
F0
80
E0
A0
80
80
ENDCHAR
STARTCHAR GREEK LETTER KOPPA
ENCODING 990
SWIDTH 480 0
DWIDTH 5 0
BBX 6 6 0 -1
BITMAP
80
48
58
68
48
04
ENDCHAR
STARTCHAR GREEK SMALL LETTER KOPPA
ENCODING 991
SWIDTH 480 0
DWIDTH 5 0
BBX 3 7 0 -1
BITMAP
20
40
80
E0
20
40
80
ENDCHAR
STARTCHAR GREEK LETTER SAMPI
ENCODING 992
SWIDTH 480 0
DWIDTH 5 0
BBX 4 7 0 -1
BITMAP
40
20
60
90
30
50
10
ENDCHAR
STARTCHAR GREEK SMALL LETTER SAMPI
ENCODING 993
SWIDTH 480 0
DWIDTH 5 0
BBX 4 7 0 -1
BITMAP
40
20
60
90
30
50
10
ENDCHAR
STARTCHAR COPTIC CAPITAL LETTER SHEI
ENCODING 994
SWIDTH 480 0
DWIDTH 5 0
BBX 5 7 1 -1
BITMAP
A8
A8
A8
A8
58
08
F0
ENDCHAR
STARTCHAR COPTIC SMALL LETTER SHEI
ENCODING 995
SWIDTH 480 0
DWIDTH 5 0
BBX 5 7 1 -2
BITMAP
A8
A8
A8
A8
58
08
F0
ENDCHAR
STARTCHAR COPTIC CAPITAL LETTER FEI
ENCODING 996
SWIDTH 480 0
DWIDTH 5 0
BBX 4 7 0 0
BITMAP
50
90
90
70
10
10
10
ENDCHAR
STARTCHAR COPTIC SMALL LETTER FEI
ENCODING 997
SWIDTH 480 0
DWIDTH 5 0
BBX 4 6 0 0
BITMAP
50
90
90
70
10
10
ENDCHAR
STARTCHAR COPTIC CAPITAL LETTER KHEI
ENCODING 998
SWIDTH 480 0
DWIDTH 5 0
BBX 4 9 0 -2
BITMAP
80
80
80
E0
90
90
90
10
E0
ENDCHAR
STARTCHAR COPTIC SMALL LETTER KHEI
ENCODING 999
SWIDTH 480 0
DWIDTH 5 0
BBX 5 7 0 -1
BITMAP
10
70
A8
48
08
70
80
ENDCHAR
STARTCHAR uni0053
ENCODING 1000
SWIDTH 480 0
DWIDTH 5 0
BBX 4 6 1 0
BITMAP
E0
10
60
80
90
60
ENDCHAR
STARTCHAR uni0053
ENCODING 1001
SWIDTH 480 0
DWIDTH 5 0
BBX 4 6 1 0
BITMAP
E0
10
60
80
80
70
ENDCHAR
STARTCHAR COPTIC CAPITAL LETTER GANGIA
ENCODING 1002
SWIDTH 480 0
DWIDTH 5 0
BBX 5 7 0 0
BITMAP
50
A8
20
50
50
88
F8
ENDCHAR
STARTCHAR COPTIC SMALL LETTER GANGIA
ENCODING 1003
SWIDTH 480 0
DWIDTH 5 0
BBX 5 5 0 0
BITMAP
50
A8
20
50
70
ENDCHAR
STARTCHAR COPTIC CAPITAL LETTER SHIMA
ENCODING 1004
SWIDTH 480 0
DWIDTH 5 0
BBX 4 7 0 0
BITMAP
70
80
E0
90
90
90
60
ENDCHAR
STARTCHAR COPTIC SMALL LETTER SHIMA
ENCODING 1005
SWIDTH 480 0
DWIDTH 5 0
BBX 4 6 0 0
BITMAP
60
80
A0
90
90
60
ENDCHAR
STARTCHAR COPTIC CAPITAL LETTER DEI
ENCODING 1006
SWIDTH 480 0
DWIDTH 5 0
BBX 5 6 0 0
BITMAP
20
70
A8
20
20
20
ENDCHAR
STARTCHAR COPTIC SMALL LETTER DEI
ENCODING 1007
SWIDTH 480 0
DWIDTH 5 0
BBX 5 6 0 0
BITMAP
30
20
F8
A0
20
60
ENDCHAR
STARTCHAR uni0078
ENCODING 1008
SWIDTH 480 0
DWIDTH 5 0
BBX 4 5 1 0
BITMAP
90
A0
60
50
90
ENDCHAR
STARTCHAR GREEK RHO SYMBOL
ENCODING 1009
SWIDTH 480 0
DWIDTH 5 0
BBX 4 8 0 -3
BITMAP
60
90
90
90
E0
80
60
10
ENDCHAR
STARTCHAR uni0063
ENCODING 1010
SWIDTH 480 0
DWIDTH 5 0
BBX 4 5 1 0
BITMAP
70
80
80
80
70
ENDCHAR
STARTCHAR uni006A
ENCODING 1011
SWIDTH 480 0
DWIDTH 5 0
BBX 3 9 1 -2
BITMAP
20
00
60
20
20
20
20
20
C0
ENDCHAR
STARTCHAR GREEK CAPITAL LETTER THETA
ENCODING 1012
SWIDTH 480 0
DWIDTH 5 0
BBX 4 6 1 0
BITMAP
60
90
B0
D0
90
60
ENDCHAR
STARTCHAR GREEK LUNATE EPSILON SYMBOL
ENCODING 1013
SWIDTH 480 0
DWIDTH 5 0
BBX 4 5 0 0
BITMAP
70
80
E0
80
70
ENDCHAR
STARTCHAR GREEK REVERSED LUNATE EPSILON SYMBOL
ENCODING 1014
SWIDTH 480 0
DWIDTH 5 0
BBX 4 5 0 0
BITMAP
E0
10
70
10
E0
ENDCHAR
STARTCHAR GREEK CAPITAL LETTER SHO
ENCODING 1015
SWIDTH 480 0
DWIDTH 5 0
BBX 4 6 0 0
BITMAP
80
E0
90
90
E0
80
ENDCHAR
STARTCHAR GREEK SMALL LETTER SHO
ENCODING 1016
SWIDTH 480 0
DWIDTH 5 0
BBX 4 7 0 -1
BITMAP
80
E0
90
90
E0
80
80
ENDCHAR
STARTCHAR uni0043
ENCODING 1017
SWIDTH 480 0
DWIDTH 5 0
BBX 4 6 1 0
BITMAP
70
80
80
80
80
70
ENDCHAR
STARTCHAR uni004D
ENCODING 1018
SWIDTH 480 0
DWIDTH 5 0
BBX 4 6 1 0
BITMAP
90
F0
90
90
90
90
ENDCHAR
STARTCHAR GREEK SMALL LETTER SAN
ENCODING 1019
SWIDTH 480 0
DWIDTH 5 0
BBX 4 6 1 -2
BITMAP
90
F0
90
90
80
80
ENDCHAR
STARTCHAR uni0070
ENCODING 1020
SWIDTH 480 0
DWIDTH 5 0
BBX 4 8 1 -3
BITMAP
60
90
90
90
E0
80
C0
80
ENDCHAR
STARTCHAR uni0043
ENCODING 1021
SWIDTH 480 0
DWIDTH 5 0
BBX 5 6 1 0
BITMAP
70
88
08
08
88
70
ENDCHAR
STARTCHAR uni0043
ENCODING 1022
SWIDTH 480 0
DWIDTH 5 0
BBX 4 6 1 0
BITMAP
70
80
A0
80
80
70
ENDCHAR
STARTCHAR uni0043
ENCODING 1023
SWIDTH 480 0
DWIDTH 5 0
BBX 4 6 1 0
BITMAP
E0
10
50
10
10
E0
ENDCHAR
STARTCHAR char203
ENCODING 1025
SWIDTH 480 0
DWIDTH 5 0
BBX 4 8 1 0
BITMAP
A0
00
F0
80
E0
80
80
F0
ENDCHAR
STARTCHAR char1026
ENCODING 1026
SWIDTH 480 0
DWIDTH 5 0
BBX 5 8 0 -1
BITMAP
E0
40
70
48
48
48
48
10
ENDCHAR
STARTCHAR char1027
ENCODING 1027
SWIDTH 480 0
DWIDTH 5 0
BBX 4 8 1 0
BITMAP
20
40
F0
80
80
80
80
80
ENDCHAR
STARTCHAR char1028
ENCODING 1028
SWIDTH 480 0
DWIDTH 5 0
BBX 4 6 0 0
BITMAP
60
90
C0
80
90
60
ENDCHAR
STARTCHAR char1029
ENCODING 1029
SWIDTH 480 0
DWIDTH 5 0
BBX 5 6 0 0
BITMAP
38
40
30
08
08
70
ENDCHAR
STARTCHAR char1030
ENCODING 1030
SWIDTH 480 0
DWIDTH 5 0
BBX 3 6 0 0
BITMAP
20
20
20
20
20
20
ENDCHAR
STARTCHAR char1031
ENCODING 1031
SWIDTH 480 0
DWIDTH 5 0
BBX 3 7 1 0
BITMAP
A0
40
40
40
40
40
40
ENDCHAR
STARTCHAR char1032
ENCODING 1032
SWIDTH 480 0
DWIDTH 5 0
BBX 5 6 0 0
BITMAP
38
08
08
08
48
30
ENDCHAR
STARTCHAR char1033
ENCODING 1033
SWIDTH 480 0
DWIDTH 5 0
BBX 6 6 0 0
BITMAP
30
50
58
54
54
98
ENDCHAR
STARTCHAR char1034
ENCODING 1034
SWIDTH 480 0
DWIDTH 5 0
BBX 5 6 0 0
BITMAP
A0
A0
F0
A8
A8
B0
ENDCHAR
STARTCHAR char1035
ENCODING 1035
SWIDTH 480 0
DWIDTH 5 0
BBX 5 7 0 0
BITMAP
F0
40
70
48
48
48
48
ENDCHAR
STARTCHAR char1036
ENCODING 1036
SWIDTH 480 0
DWIDTH 5 0
BBX 5 7 0 0
BITMAP
10
68
50
60
50
48
48
ENDCHAR
STARTCHAR char1038
ENCODING 1038
SWIDTH 480 0
DWIDTH 5 0
BBX 4 8 1 0
BITMAP
50
20
90
90
90
70
10
60
ENDCHAR
STARTCHAR char1039
ENCODING 1039
SWIDTH 480 0
DWIDTH 5 0
BBX 5 7 0 -1
BITMAP
88
88
88
88
F8
20
20
ENDCHAR
STARTCHAR char1040
ENCODING 1040
SWIDTH 480 0
DWIDTH 5 0
BBX 4 6 0 0
BITMAP
60
90
90
F0
90
90
ENDCHAR
STARTCHAR char1041
ENCODING 1041
SWIDTH 480 0
DWIDTH 5 0
BBX 5 7 0 0
BITMAP
70
40
70
48
48
48
70
ENDCHAR
STARTCHAR char1042
ENCODING 1042
SWIDTH 480 0
DWIDTH 5 0
BBX 4 6 1 0
BITMAP
E0
90
E0
90
90
E0
ENDCHAR
STARTCHAR char1043
ENCODING 1043
SWIDTH 480 0
DWIDTH 5 0
BBX 4 6 1 0
BITMAP
F0
80
80
80
80
80
ENDCHAR
STARTCHAR char1044
ENCODING 1044
SWIDTH 480 0
DWIDTH 5 0
BBX 5 7 0 -1
BITMAP
30
50
50
50
50
F8
88
ENDCHAR
STARTCHAR uni0045
ENCODING 1045
SWIDTH 480 0
DWIDTH 5 0
BBX 4 6 1 0
BITMAP
F0
80
E0
80
80
F0
ENDCHAR
STARTCHAR uni0058
ENCODING 1046
SWIDTH 480 0
DWIDTH 5 0
BBX 5 6 0 0
BITMAP
A8
A8
70
A8
A8
A8
ENDCHAR
STARTCHAR uni0033
ENCODING 1047
SWIDTH 480 0
DWIDTH 5 0
BBX 4 6 1 0
BITMAP
60
90
20
10
90
60
ENDCHAR
STARTCHAR char1080
ENCODING 1048
SWIDTH 480 0
DWIDTH 5 0
BBX 5 6 0 0
BITMAP
48
58
58
68
68
48
ENDCHAR
STARTCHAR char1080
ENCODING 1049
SWIDTH 480 0
DWIDTH 5 0
BBX 4 8 1 0
BITMAP
50
20
90
B0
B0
D0
D0
90
ENDCHAR
STARTCHAR uni004B
ENCODING 1050
SWIDTH 480 0
DWIDTH 5 0
BBX 4 6 1 0
BITMAP
90
A0
C0
A0
90
90
ENDCHAR
STARTCHAR char1051
ENCODING 1051
SWIDTH 480 0
DWIDTH 5 0
BBX 4 6 0 0
BITMAP
30
50
50
50
50
90
ENDCHAR
STARTCHAR uni004D
ENCODING 1052
SWIDTH 480 0
DWIDTH 5 0
BBX 4 6 1 0
BITMAP
90
F0
90
90
90
90
ENDCHAR
STARTCHAR uni0048
ENCODING 1053
SWIDTH 480 0
DWIDTH 5 0
BBX 4 6 1 0
BITMAP
90
90
F0
90
90
90
ENDCHAR
STARTCHAR uni004F
ENCODING 1054
SWIDTH 480 0
DWIDTH 5 0
BBX 4 6 1 0
BITMAP
60
90
90
90
90
60
ENDCHAR
STARTCHAR char1055
ENCODING 1055
SWIDTH 480 0
DWIDTH 5 0
BBX 5 6 0 0
BITMAP
78
48
48
48
48
48
ENDCHAR
STARTCHAR uni0043
ENCODING 1057
SWIDTH 480 0
DWIDTH 5 0
BBX 4 6 1 0
BITMAP
70
80
80
80
80
70
ENDCHAR
STARTCHAR uni0054
ENCODING 1058
SWIDTH 480 0
DWIDTH 5 0
BBX 3 6 2 0
BITMAP
E0
40
40
40
40
40
ENDCHAR
STARTCHAR char1038
ENCODING 1059
SWIDTH 480 0
DWIDTH 5 0
BBX 4 6 1 0
BITMAP
90
90
90
70
10
60
ENDCHAR
STARTCHAR char1060
ENCODING 1060
SWIDTH 480 0
DWIDTH 5 0
BBX 5 8 0 -1
BITMAP
20
70
A8
A8
A8
A8
70
20
ENDCHAR
STARTCHAR uni0058
ENCODING 1061
SWIDTH 480 0
DWIDTH 5 0
BBX 4 6 1 0
BITMAP
90
90
60
90
90
90
ENDCHAR
STARTCHAR char1062
ENCODING 1062
SWIDTH 480 0
DWIDTH 5 0
BBX 4 7 1 -1
BITMAP
A0
A0
A0
A0
A0
F0
10
ENDCHAR
STARTCHAR char1063
ENCODING 1063
SWIDTH 480 0
DWIDTH 5 0
BBX 4 6 0 0
BITMAP
90
90
70
10
10
10
ENDCHAR
STARTCHAR char1064
ENCODING 1064
SWIDTH 480 0
DWIDTH 5 0
BBX 5 6 0 0
BITMAP
A8
A8
A8
A8
A8
F0
ENDCHAR
STARTCHAR char1065
ENCODING 1065
SWIDTH 480 0
DWIDTH 5 0
BBX 6 7 0 -1
BITMAP
A8
A8
A8
A8
A8
FC
04
ENDCHAR
STARTCHAR char1066
ENCODING 1066
SWIDTH 480 0
DWIDTH 5 0
BBX 4 6 0 0
BITMAP
C0
40
40
60
50
60
ENDCHAR
STARTCHAR char1067
ENCODING 1067
SWIDTH 480 0
DWIDTH 5 0
BBX 5 6 0 0
BITMAP
48
48
48
68
58
68
ENDCHAR
STARTCHAR char1068
ENCODING 1068
SWIDTH 480 0
DWIDTH 5 0
BBX 5 6 0 0
BITMAP
40
40
40
70
48
70
ENDCHAR
STARTCHAR uni0033
ENCODING 1069
SWIDTH 480 0
DWIDTH 5 0
BBX 4 6 1 0
BITMAP
60
90
30
10
90
60
ENDCHAR
STARTCHAR char1070
ENCODING 1070
SWIDTH 480 0
DWIDTH 5 0
BBX 6 6 -1 0
BITMAP
48
54
74
54
54
48
ENDCHAR
STARTCHAR char1071
ENCODING 1071
SWIDTH 480 0
DWIDTH 5 0
BBX 4 6 1 0
BITMAP
70
90
90
70
90
90
ENDCHAR
STARTCHAR uni0061
ENCODING 1072
SWIDTH 480 0
DWIDTH 5 0
BBX 4 5 1 0
BITMAP
70
90
90
B0
50
ENDCHAR
STARTCHAR char1073
ENCODING 1073
SWIDTH 480 0
DWIDTH 5 0
BBX 4 7 1 0
BITMAP
10
60
80
E0
90
90
E0
ENDCHAR
STARTCHAR char1074
ENCODING 1074
SWIDTH 480 0
DWIDTH 5 0
BBX 4 5 1 0
BITMAP
E0
90
E0
90
E0
ENDCHAR
STARTCHAR char1075
ENCODING 1075
SWIDTH 480 0
DWIDTH 5 0
BBX 4 5 1 0
BITMAP
F0
80
80
80
80
ENDCHAR
STARTCHAR char1044
ENCODING 1076
SWIDTH 480 0
DWIDTH 5 0
BBX 5 7 0 -1
BITMAP
30
50
50
50
50
F8
88
ENDCHAR
STARTCHAR uni0065
ENCODING 1077
SWIDTH 480 0
DWIDTH 5 0
BBX 4 5 1 0
BITMAP
60
90
F0
80
70
ENDCHAR
STARTCHAR uni0058
ENCODING 1078
SWIDTH 480 0
DWIDTH 5 0
BBX 5 5 0 0
BITMAP
A8
A8
70
A8
A8
ENDCHAR
STARTCHAR uni0033
ENCODING 1079
SWIDTH 480 0
DWIDTH 5 0
BBX 4 5 1 0
BITMAP
60
90
20
90
60
ENDCHAR
STARTCHAR char1080
ENCODING 1080
SWIDTH 480 0
DWIDTH 5 0
BBX 4 5 1 0
BITMAP
90
B0
F0
D0
90
ENDCHAR
STARTCHAR char1080
ENCODING 1081
SWIDTH 480 0
DWIDTH 5 0
BBX 4 7 1 0
BITMAP
50
20
90
B0
F0
D0
90
ENDCHAR
STARTCHAR uni006B
ENCODING 1082
SWIDTH 480 0
DWIDTH 5 0
BBX 4 5 1 0
BITMAP
90
A0
E0
90
90
ENDCHAR
STARTCHAR char1051
ENCODING 1083
SWIDTH 480 0
DWIDTH 5 0
BBX 4 5 0 0
BITMAP
30
50
50
50
90
ENDCHAR
STARTCHAR uni006D
ENCODING 1084
SWIDTH 480 0
DWIDTH 5 0
BBX 4 5 1 0
BITMAP
90
F0
90
90
90
ENDCHAR
STARTCHAR uni006D
ENCODING 1085
SWIDTH 480 0
DWIDTH 5 0
BBX 4 5 1 0
BITMAP
90
90
F0
90
90
ENDCHAR
STARTCHAR uni006F
ENCODING 1086
SWIDTH 480 0
DWIDTH 5 0
BBX 4 5 1 0
BITMAP
60
90
90
90
60
ENDCHAR
STARTCHAR uni006E
ENCODING 1087
SWIDTH 480 0
DWIDTH 5 0
BBX 4 5 1 0
BITMAP
F0
90
90
90
90
ENDCHAR
STARTCHAR uni0070
ENCODING 1088
SWIDTH 480 0
DWIDTH 5 0
BBX 4 7 1 -2
BITMAP
E0
90
90
90
E0
80
80
ENDCHAR
STARTCHAR uni0063
ENCODING 1089
SWIDTH 480 0
DWIDTH 5 0
BBX 4 5 1 0
BITMAP
70
80
80
80
70
ENDCHAR
STARTCHAR uni0074
ENCODING 1090
SWIDTH 480 0
DWIDTH 5 0
BBX 3 5 2 0
BITMAP
E0
40
40
40
40
ENDCHAR
STARTCHAR uni0079
ENCODING 1091
SWIDTH 480 0
DWIDTH 5 0
BBX 4 7 1 -2
BITMAP
90
90
90
90
70
10
60
ENDCHAR
STARTCHAR char1060
ENCODING 1092
SWIDTH 480 0
DWIDTH 5 0
BBX 5 7 0 -1
BITMAP
20
70
A8
A8
A8
70
20
ENDCHAR
STARTCHAR uni0078
ENCODING 1093
SWIDTH 480 0
DWIDTH 5 0
BBX 4 5 1 0
BITMAP
90
90
60
90
90
ENDCHAR
STARTCHAR char1062
ENCODING 1094
SWIDTH 480 0
DWIDTH 5 0
BBX 4 6 1 -1
BITMAP
A0
A0
A0
A0
F0
10
ENDCHAR
STARTCHAR char1063
ENCODING 1095
SWIDTH 480 0
DWIDTH 5 0
BBX 4 5 0 0
BITMAP
90
90
70
10
10
ENDCHAR
STARTCHAR char1064
ENCODING 1096
SWIDTH 480 0
DWIDTH 5 0
BBX 5 5 0 0
BITMAP
A8
A8
A8
A8
F0
ENDCHAR
STARTCHAR char1065
ENCODING 1097
SWIDTH 480 0
DWIDTH 5 0
BBX 6 6 0 -1
BITMAP
A8
A8
A8
A8
FC
04
ENDCHAR
STARTCHAR char1066
ENCODING 1098
SWIDTH 480 0
DWIDTH 5 0
BBX 4 5 0 0
BITMAP
C0
40
60
50
60
ENDCHAR
STARTCHAR char1067
ENCODING 1099
SWIDTH 480 0
DWIDTH 5 0
BBX 4 5 1 0
BITMAP
90
90
D0
B0
D0
ENDCHAR
STARTCHAR char1068
ENCODING 1100
SWIDTH 480 0
DWIDTH 5 0
BBX 4 5 1 0
BITMAP
80
80
E0
90
E0
ENDCHAR
STARTCHAR uni0033
ENCODING 1101
SWIDTH 480 0
DWIDTH 5 0
BBX 4 5 1 0
BITMAP
60
90
30
90
60
ENDCHAR
STARTCHAR char1070
ENCODING 1102
SWIDTH 480 0
DWIDTH 5 0
BBX 5 5 0 0
BITMAP
90
A8
E8
A8
90
ENDCHAR
STARTCHAR char1071
ENCODING 1103
SWIDTH 480 0
DWIDTH 5 0
BBX 4 5 1 0
BITMAP
70
90
70
90
90
ENDCHAR
STARTCHAR uni0065
ENCODING 1105
SWIDTH 480 0
DWIDTH 5 0
BBX 4 7 1 0
BITMAP
A0
00
60
90
F0
80
70
ENDCHAR
STARTCHAR char1026
ENCODING 1106
SWIDTH 480 0
DWIDTH 5 0
BBX 5 7 0 -1
BITMAP
40
E0
40
70
48
48
10
ENDCHAR
STARTCHAR char1027
ENCODING 1107
SWIDTH 480 0
DWIDTH 5 0
BBX 4 7 1 0
BITMAP
20
40
F0
80
80
80
80
ENDCHAR
STARTCHAR char1028
ENCODING 1108
SWIDTH 480 0
DWIDTH 5 0
BBX 4 5 0 0
BITMAP
60
90
C0
90
60
ENDCHAR
STARTCHAR uni0073
ENCODING 1109
SWIDTH 480 0
DWIDTH 5 0
BBX 4 5 1 0
BITMAP
70
80
60
10
E0
ENDCHAR
STARTCHAR uni0069
ENCODING 1110
SWIDTH 480 0
DWIDTH 5 0
BBX 2 7 2 0
BITMAP
40
00
C0
40
40
40
40
ENDCHAR
STARTCHAR uni0069
ENCODING 1111
SWIDTH 480 0
DWIDTH 5 0
BBX 3 7 2 0
BITMAP
A0
00
C0
40
40
40
40
ENDCHAR
STARTCHAR uni006A
ENCODING 1112
SWIDTH 480 0
DWIDTH 5 0
BBX 3 9 1 -2
BITMAP
20
00
60
20
20
20
20
20
C0
ENDCHAR
STARTCHAR uni0079
ENCODING 1118
SWIDTH 480 0
DWIDTH 5 0
BBX 4 7 1 -2
BITMAP
90
90
90
90
70
10
60
ENDCHAR
STARTCHAR char1027
ENCODING 1168
SWIDTH 480 0
DWIDTH 5 0
BBX 4 7 1 0
BITMAP
10
F0
80
80
80
80
80
ENDCHAR
STARTCHAR char1075
ENCODING 1169
SWIDTH 480 0
DWIDTH 5 0
BBX 4 6 1 0
BITMAP
10
F0
80
80
80
80
ENDCHAR
STARTCHAR char1984
ENCODING 1984
SWIDTH 480 0
DWIDTH 5 0
BBX 6 2 0 -1
BITMAP
FC
FC
ENDCHAR
STARTCHAR char1984
ENCODING 1985
SWIDTH 480 0
DWIDTH 5 0
BBX 6 2 0 -1
BITMAP
A8
54
ENDCHAR
STARTCHAR char1986
ENCODING 1986
SWIDTH 480 0
DWIDTH 5 0
BBX 6 1 0 -1
BITMAP
FC
ENDCHAR
STARTCHAR char1987
ENCODING 1987
SWIDTH 480 0
DWIDTH 5 0
BBX 5 1 2 -1
BITMAP
A8
ENDCHAR
STARTCHAR 5240
ENCODING 2480
SWIDTH 480 0
DWIDTH 5 0
BBX 9 9 1 -1
BITMAP
1000
FC00
2480
C780
0800
0800
FF80
0800
0800
ENDCHAR
STARTCHAR char3232
ENCODING 3232
SWIDTH 480 0
DWIDTH 5 0
BBX 6 7 0 0
BITMAP
18
04
F8
44
54
44
38
ENDCHAR
STARTCHAR uni0061
ENCODING 7936
SWIDTH 480 0
DWIDTH 5 0
BBX 5 7 0 0
BITMAP
40
80
38
48
48
58
28
ENDCHAR
STARTCHAR uni0041
ENCODING 7944
SWIDTH 480 0
DWIDTH 5 0
BBX 5 8 0 0
BITMAP
40
80
30
48
48
78
48
48
ENDCHAR
STARTCHAR char8216
ENCODING 8216
SWIDTH 480 0
DWIDTH 5 0
BBX 1 3 2 4
BITMAP
80
80
80
ENDCHAR
STARTCHAR char8217
ENCODING 8217
SWIDTH 480 0
DWIDTH 5 0
BBX 1 3 2 4
BITMAP
80
80
80
ENDCHAR
STARTCHAR char8218
ENCODING 8218
SWIDTH 480 0
DWIDTH 5 0
BBX 4 3 0 -1
BITMAP
10
10
20
ENDCHAR
STARTCHAR char8220
ENCODING 8220
SWIDTH 480 0
DWIDTH 5 0
BBX 4 3 1 3
BITMAP
50
A0
F0
ENDCHAR
STARTCHAR char8221
ENCODING 8221
SWIDTH 480 0
DWIDTH 5 0
BBX 4 3 1 3
BITMAP
F0
50
A0
ENDCHAR
STARTCHAR char8222
ENCODING 8222
SWIDTH 480 0
DWIDTH 5 0
BBX 4 3 1 -1
BITMAP
F0
50
A0
ENDCHAR
STARTCHAR char8223
ENCODING 8223
SWIDTH 480 0
DWIDTH 5 0
BBX 4 3 1 3
BITMAP
F0
A0
50
ENDCHAR
STARTCHAR char8228
ENCODING 8228
SWIDTH 480 0
DWIDTH 5 0
BBX 3 1 0 0
BITMAP
20
ENDCHAR
STARTCHAR char8229
ENCODING 8229
SWIDTH 480 0
DWIDTH 5 0
BBX 4 1 0 0
BITMAP
50
ENDCHAR
STARTCHAR char8230
ENCODING 8230
SWIDTH 480 0
DWIDTH 5 0
BBX 5 1 1 0
BITMAP
A8
ENDCHAR
STARTCHAR char8231
ENCODING 8231
SWIDTH 480 0
DWIDTH 5 0
BBX 1 1 2 2
BITMAP
80
ENDCHAR
STARTCHAR char8364
ENCODING 8364
SWIDTH 480 0
DWIDTH 5 0
BBX 5 7 0 0
BITMAP
30
48
E0
40
E0
48
30
ENDCHAR
STARTCHAR char8482
ENCODING 8482
SWIDTH 480 0
DWIDTH 5 0
BBX 6 3 0 2
BITMAP
F4
5C
54
ENDCHAR
STARTCHAR char8592
ENCODING 8592
SWIDTH 480 0
DWIDTH 5 0
BBX 6 5 0 0
BITMAP
20
60
FC
60
20
ENDCHAR
STARTCHAR char8593
ENCODING 8593
SWIDTH 480 0
DWIDTH 5 0
BBX 5 6 0 0
BITMAP
20
70
F8
20
20
20
ENDCHAR
STARTCHAR char8594
ENCODING 8594
SWIDTH 480 0
DWIDTH 5 0
BBX 6 5 0 0
BITMAP
10
18
FC
18
10
ENDCHAR
STARTCHAR char8595
ENCODING 8595
SWIDTH 480 0
DWIDTH 5 0
BBX 5 6 0 0
BITMAP
20
20
20
F8
70
20
ENDCHAR
STARTCHAR char8596
ENCODING 8596
SWIDTH 480 0
DWIDTH 5 0
BBX 6 3 0 1
BITMAP
48
FC
48
ENDCHAR
STARTCHAR char8597
ENCODING 8597
SWIDTH 480 0
DWIDTH 5 0
BBX 5 8 0 -1
BITMAP
20
70
F8
20
20
F8
70
20
ENDCHAR
STARTCHAR char8598
ENCODING 8598
SWIDTH 480 0
DWIDTH 5 0
BBX 4 4 0 1
BITMAP
E0
C0
A0
10
ENDCHAR
STARTCHAR char8599
ENCODING 8599
SWIDTH 480 0
DWIDTH 5 0
BBX 4 4 1 1
BITMAP
70
30
50
80
ENDCHAR
STARTCHAR char8600
ENCODING 8600
SWIDTH 480 0
DWIDTH 5 0
BBX 4 4 1 0
BITMAP
80
50
30
70
ENDCHAR
STARTCHAR char8601
ENCODING 8601
SWIDTH 480 0
DWIDTH 5 0
BBX 4 4 0 0
BITMAP
10
A0
C0
E0
ENDCHAR
STARTCHAR char8624
ENCODING 8624
SWIDTH 480 0
DWIDTH 5 0
BBX 4 5 0 0
BITMAP
40
F0
50
10
10
ENDCHAR
STARTCHAR char8625
ENCODING 8625
SWIDTH 480 0
DWIDTH 5 0
BBX 4 5 0 0
BITMAP
20
F0
A0
80
80
ENDCHAR
STARTCHAR char8626
ENCODING 8626
SWIDTH 480 0
DWIDTH 5 0
BBX 4 5 0 -1
BITMAP
10
10
50
F0
40
ENDCHAR
STARTCHAR char8627
ENCODING 8627
SWIDTH 480 0
DWIDTH 5 0
BBX 4 5 0 -1
BITMAP
80
80
A0
F0
20
ENDCHAR
STARTCHAR char8628
ENCODING 8628
SWIDTH 480 0
DWIDTH 5 0
BBX 4 4 0 -1
BITMAP
E0
20
70
20
ENDCHAR
STARTCHAR char8629
ENCODING 8629
SWIDTH 480 0
DWIDTH 5 0
BBX 4 5 0 -1
BITMAP
10
10
50
F0
40
ENDCHAR
STARTCHAR char8630
ENCODING 8630
SWIDTH 480 0
DWIDTH 5 0
BBX 4 5 0 0
BITMAP
20
50
40
E0
40
ENDCHAR
STARTCHAR char8631
ENCODING 8631
SWIDTH 480 0
DWIDTH 5 0
BBX 4 5 1 0
BITMAP
40
A0
20
70
20
ENDCHAR
STARTCHAR char8689
ENCODING 8689
SWIDTH 480 0
DWIDTH 5 0
BBX 6 6 0 0
BITMAP
F8
80
B8
B0
A8
04
ENDCHAR
STARTCHAR char8690
ENCODING 8690
SWIDTH 480 0
DWIDTH 5 0
BBX 6 6 1 -1
BITMAP
80
54
34
74
04
7C
ENDCHAR
STARTCHAR char8693
ENCODING 8693
SWIDTH 480 0
DWIDTH 5 0
BBX 6 6 0 0
BITMAP
48
E8
48
48
5C
48
ENDCHAR
STARTCHAR char8694
ENCODING 8694
SWIDTH 480 0
DWIDTH 5 0
BBX 5 7 1 -1
BITMAP
10
F8
10
F8
10
F8
10
ENDCHAR
STARTCHAR char8695
ENCODING 8695
SWIDTH 480 0
DWIDTH 5 0
BBX 6 3 0 0
BITMAP
50
FC
50
ENDCHAR
STARTCHAR char8696
ENCODING 8696
SWIDTH 480 0
DWIDTH 5 0
BBX 6 3 0 0
BITMAP
28
FC
28
ENDCHAR
STARTCHAR char8701
ENCODING 8701
SWIDTH 480 0
DWIDTH 5 0
BBX 6 3 0 1
BITMAP
40
BC
40
ENDCHAR
STARTCHAR char8702
ENCODING 8702
SWIDTH 480 0
DWIDTH 5 0
BBX 6 3 0 1
BITMAP
08
F4
08
ENDCHAR
STARTCHAR char8703
ENCODING 8703
SWIDTH 480 0
DWIDTH 5 0
BBX 6 3 0 1
BITMAP
48
B4
48
ENDCHAR
STARTCHAR char8704
ENCODING 8704
SWIDTH 480 0
DWIDTH 5 0
BBX 5 6 1 -1
BITMAP
88
88
70
50
20
20
ENDCHAR
STARTCHAR char8705
ENCODING 8705
SWIDTH 480 0
DWIDTH 5 0
BBX 5 7 1 -1
BITMAP
70
88
88
80
88
88
70
ENDCHAR
STARTCHAR char8706
ENCODING 8706
SWIDTH 480 0
DWIDTH 5 0
BBX 4 7 1 0
BITMAP
80
40
20
50
90
90
60
ENDCHAR
STARTCHAR char8707
ENCODING 8707
SWIDTH 480 0
DWIDTH 5 0
BBX 5 6 1 0
BITMAP
F8
08
78
08
08
F8
ENDCHAR
STARTCHAR char8708
ENCODING 8708
SWIDTH 480 0
DWIDTH 5 0
BBX 5 8 1 -1
BITMAP
10
F8
28
78
28
48
F8
40
ENDCHAR
STARTCHAR char8709
ENCODING 8709
SWIDTH 480 0
DWIDTH 5 0
BBX 7 6 0 0
BITMAP
38
46
4C
74
C4
38
ENDCHAR
STARTCHAR char8710
ENCODING 8710
SWIDTH 480 0
DWIDTH 5 0
BBX 6 5 0 0
BITMAP
10
28
28
44
7C
ENDCHAR
STARTCHAR char8711
ENCODING 8711
SWIDTH 480 0
DWIDTH 5 0
BBX 5 5 1 0
BITMAP
F8
88
50
50
20
ENDCHAR
STARTCHAR char8712
ENCODING 8712
SWIDTH 480 0
DWIDTH 5 0
BBX 5 7 1 -1
BITMAP
38
40
80
F0
80
40
38
ENDCHAR
STARTCHAR char8713
ENCODING 8713
SWIDTH 480 0
DWIDTH 5 0
BBX 5 8 1 -1
BITMAP
08
38
50
A0
F0
A0
40
78
ENDCHAR
STARTCHAR char8714
ENCODING 8714
SWIDTH 480 0
DWIDTH 5 0
BBX 4 5 1 0
BITMAP
70
80
E0
80
70
ENDCHAR
STARTCHAR char8715
ENCODING 8715
SWIDTH 480 0
DWIDTH 5 0
BBX 6 7 0 -1
BITMAP
70
08
04
3C
04
08
70
ENDCHAR
STARTCHAR char8716
ENCODING 8716
SWIDTH 480 0
DWIDTH 5 0
BBX 6 8 0 -1
BITMAP
80
70
48
24
3C
14
08
74
ENDCHAR
STARTCHAR char8717
ENCODING 8717
SWIDTH 480 0
DWIDTH 5 0
BBX 6 5 0 0
BITMAP
38
04
1C
04
38
ENDCHAR
STARTCHAR char8719
ENCODING 8719
SWIDTH 480 0
DWIDTH 5 0
BBX 5 5 1 0
BITMAP
F8
50
50
50
50
ENDCHAR
STARTCHAR char8720
ENCODING 8720
SWIDTH 480 0
DWIDTH 5 0
BBX 6 5 0 0
BITMAP
28
28
28
28
7C
ENDCHAR
STARTCHAR char8721
ENCODING 8721
SWIDTH 480 0
DWIDTH 5 0
BBX 5 7 0 -1
BITMAP
F8
88
40
20
40
88
F8
ENDCHAR
STARTCHAR char8722
ENCODING 8722
SWIDTH 480 0
DWIDTH 5 0
BBX 3 1 0 2
BITMAP
E0
ENDCHAR
STARTCHAR char8723
ENCODING 8723
SWIDTH 480 0
DWIDTH 5 0
BBX 3 5 0 -1
BITMAP
E0
00
40
E0
40
ENDCHAR
STARTCHAR char8724
ENCODING 8724
SWIDTH 480 0
DWIDTH 5 0
BBX 5 8 0 -1
BITMAP
20
70
20
20
20
F8
20
20
ENDCHAR
STARTCHAR char8730
ENCODING 8730
SWIDTH 480 0
DWIDTH 5 0
BBX 7 7 0 -1
BITMAP
02
02
04
C4
28
28
10
ENDCHAR
STARTCHAR char8731
ENCODING 8731
SWIDTH 480 0
DWIDTH 5 0
BBX 7 8 0 -1
BITMAP
30
32
12
34
C4
28
28
10
ENDCHAR
STARTCHAR char8732
ENCODING 8732
SWIDTH 480 0
DWIDTH 5 0
BBX 7 7 0 -1
BITMAP
12
32
14
C4
28
28
10
ENDCHAR
STARTCHAR char8733
ENCODING 8733
SWIDTH 480 0
DWIDTH 5 0
BBX 4 3 0 1
BITMAP
D0
A0
D0
ENDCHAR
STARTCHAR char8734
ENCODING 8734
SWIDTH 480 0
DWIDTH 5 0
BBX 6 4 0 0
BITMAP
48
B4
B4
48
ENDCHAR
STARTCHAR char8776
ENCODING 8776
SWIDTH 480 0
DWIDTH 5 0
BBX 5 5 0 0
BITMAP
08
70
88
70
80
ENDCHAR
STARTCHAR char8790
ENCODING 8790
SWIDTH 480 0
DWIDTH 5 0
BBX 5 3 0 1
BITMAP
F8
50
F8
ENDCHAR
STARTCHAR char8800
ENCODING 8800
SWIDTH 480 0
DWIDTH 5 0
BBX 3 5 2 1
BITMAP
20
E0
40
E0
80
ENDCHAR
STARTCHAR char8804
ENCODING 8804
SWIDTH 480 0
DWIDTH 5 0
BBX 4 7 1 -1
BITMAP
20
40
80
40
20
00
F0
ENDCHAR
STARTCHAR char8805
ENCODING 8805
SWIDTH 480 0
DWIDTH 5 0
BBX 5 7 0 -1
BITMAP
20
10
08
10
20
00
78
ENDCHAR
STARTCHAR char8978
ENCODING 8978
SWIDTH 480 0
DWIDTH 5 0
BBX 4 2 0 2
BITMAP
60
90
ENDCHAR
STARTCHAR char8994
ENCODING 8994
SWIDTH 480 0
DWIDTH 5 0
BBX 5 2 0 2
BITMAP
70
88
ENDCHAR
STARTCHAR 2421
ENCODING 9249
SWIDTH 480 0
DWIDTH 5 0
BBX 6 7 1 -1
BITMAP
20
F8
20
28
78
B4
64
ENDCHAR
STARTCHAR 2422
ENCODING 9250
SWIDTH 480 0
DWIDTH 5 0
BBX 8 8 0 -1
BITMAP
10
7E
10
12
3E
55
59
32
ENDCHAR
STARTCHAR 2423
ENCODING 9251
SWIDTH 480 0
DWIDTH 5 0
BBX 6 4 1 0
BITMAP
88
84
84
40
ENDCHAR
STARTCHAR 2424
ENCODING 9252
SWIDTH 480 0
DWIDTH 5 0
BBX 7 5 1 0
BITMAP
84
82
82
82
40
ENDCHAR
STARTCHAR 2425
ENCODING 9253
SWIDTH 480 0
DWIDTH 5 0
BBX 5 6 2 -1
BITMAP
70
00
F0
08
08
70
ENDCHAR
STARTCHAR 2426
ENCODING 9254
SWIDTH 480 0
DWIDTH 5 0
BBX 8 8 0 -1
BITMAP
3C
00
7C
02
02
02
04
18
ENDCHAR
STARTCHAR 2427
ENCODING 9255
SWIDTH 480 0
DWIDTH 5 0
BBX 5 6 2 -1
BITMAP
60
00
F0
20
60
98
ENDCHAR
STARTCHAR 2428
ENCODING 9256
SWIDTH 480 0
DWIDTH 5 0
BBX 8 8 0 -1
BITMAP
38
00
7E
04
08
18
28
47
ENDCHAR
STARTCHAR 2429
ENCODING 9257
SWIDTH 480 0
DWIDTH 5 0
BBX 6 6 1 -1
BITMAP
28
F4
20
78
A4
E8
ENDCHAR
STARTCHAR 242a
ENCODING 9258
SWIDTH 480 0
DWIDTH 5 0
BBX 8 8 0 -1
BITMAP
20
FA
21
3C
62
A1
A1
66
ENDCHAR
STARTCHAR 242b
ENCODING 9259
SWIDTH 480 0
DWIDTH 5 0
BBX 8 8 0 -1
BITMAP
20
20
FA
25
25
24
24
48
ENDCHAR
STARTCHAR 242c
ENCODING 9260
SWIDTH 480 0
DWIDTH 5 0
BBX 8 8 0 -1
BITMAP
23
20
FA
25
25
24
24
48
ENDCHAR
STARTCHAR 242d
ENCODING 9261
SWIDTH 480 0
DWIDTH 5 0
BBX 8 8 0 -1
BITMAP
10
7E
08
7E
04
3C
40
3E
ENDCHAR
STARTCHAR 242e
ENCODING 9262
SWIDTH 480 0
DWIDTH 5 0
BBX 8 8 0 -1
BITMAP
13
7E
08
7E
04
3C
40
3E
ENDCHAR
STARTCHAR 242f
ENCODING 9263
SWIDTH 480 0
DWIDTH 5 0
BBX 8 8 0 -1
BITMAP
04
08
10
20
20
10
08
04
ENDCHAR
STARTCHAR 2430
ENCODING 9264
SWIDTH 480 0
DWIDTH 5 0
BBX 8 8 0 -1
BITMAP
04
08
10
23
20
10
08
04
ENDCHAR
STARTCHAR 2431
ENCODING 9265
SWIDTH 480 0
DWIDTH 5 0
BBX 8 8 0 -1
BITMAP
04
84
9F
84
84
84
84
48
ENDCHAR
STARTCHAR 2432
ENCODING 9266
SWIDTH 480 0
DWIDTH 5 0
BBX 8 8 0 -1
BITMAP
07
84
9F
84
84
84
84
48
ENDCHAR
STARTCHAR 2433
ENCODING 9267
SWIDTH 480 0
DWIDTH 5 0
BBX 6 7 1 -1
BITMAP
78
04
00
00
80
80
7C
ENDCHAR
STARTCHAR 2434
ENCODING 9268
SWIDTH 480 0
DWIDTH 5 0
BBX 8 8 0 -1
BITMAP
03
3C
02
00
00
40
40
3E
ENDCHAR
STARTCHAR 2435
ENCODING 9269
SWIDTH 480 0
DWIDTH 5 0
BBX 8 8 0 -1
BITMAP
10
7E
08
04
3E
40
40
3E
ENDCHAR
STARTCHAR 2436
ENCODING 9270
SWIDTH 480 0
DWIDTH 5 0
BBX 8 8 0 -1
BITMAP
13
7C
08
04
3E
40
40
3E
ENDCHAR
STARTCHAR 2437
ENCODING 9271
SWIDTH 480 0
DWIDTH 5 0
BBX 8 8 0 -1
BITMAP
20
20
20
20
20
20
22
1C
ENDCHAR
STARTCHAR 2438
ENCODING 9272
SWIDTH 480 0
DWIDTH 5 0
BBX 8 8 0 -1
BITMAP
26
20
20
20
20
20
22
1C
ENDCHAR
STARTCHAR 2439
ENCODING 9273
SWIDTH 480 0
DWIDTH 5 0
BBX 8 8 0 -1
BITMAP
08
FE
08
38
48
38
08
30
ENDCHAR
STARTCHAR 243a
ENCODING 9274
SWIDTH 480 0
DWIDTH 5 0
BBX 8 8 0 -1
BITMAP
0B
FE
08
38
48
38
08
30
ENDCHAR
STARTCHAR 243b
ENCODING 9275
SWIDTH 480 0
DWIDTH 5 0
BBX 8 8 0 -1
BITMAP
04
24
FF
24
24
20
20
1E
ENDCHAR
STARTCHAR 243c
ENCODING 9276
SWIDTH 480 0
DWIDTH 5 0
BBX 8 8 0 -1
BITMAP
07
24
FF
24
24
20
20
1E
ENDCHAR
STARTCHAR 243d
ENCODING 9277
SWIDTH 480 0
DWIDTH 5 0
BBX 8 8 0 -1
BITMAP
3C
08
10
7E
08
10
10
0C
ENDCHAR
STARTCHAR 243e
ENCODING 9278
SWIDTH 480 0
DWIDTH 5 0
BBX 8 8 0 -1
BITMAP
3C
0B
10
7E
08
10
10
0C
ENDCHAR
STARTCHAR 243f
ENCODING 9279
SWIDTH 480 0
DWIDTH 5 0
BBX 8 8 0 -1
BITMAP
20
7C
20
27
20
40
48
47
ENDCHAR
STARTCHAR 2440
ENCODING 9280
SWIDTH 480 0
DWIDTH 5 0
BBX 8 8 0 -1
BITMAP
23
7C
20
27
20
40
48
47
ENDCHAR
STARTCHAR 2441
ENCODING 9281
SWIDTH 480 0
DWIDTH 5 0
BBX 8 8 0 -1
BITMAP
20
FC
20
20
3C
02
02
3C
ENDCHAR
STARTCHAR 2442
ENCODING 9282
SWIDTH 480 0
DWIDTH 5 0
BBX 8 8 0 -1
BITMAP
23
7E
20
20
3C
02
02
3C
ENDCHAR
STARTCHAR 2443
ENCODING 9283
SWIDTH 480 0
DWIDTH 5 0
BBX 5 4 2 -1
BITMAP
70
88
08
70
ENDCHAR
STARTCHAR 2444
ENCODING 9284
SWIDTH 480 0
DWIDTH 5 0
BBX 7 6 1 0
BITMAP
3C
C2
02
02
02
3C
ENDCHAR
STARTCHAR 2445
ENCODING 9285
SWIDTH 480 0
DWIDTH 5 0
BBX 7 7 1 0
BITMAP
06
3C
C2
02
02
02
3C
ENDCHAR
STARTCHAR 2446
ENCODING 9286
SWIDTH 480 0
DWIDTH 5 0
BBX 7 7 0 -1
BITMAP
FE
08
10
10
10
08
06
ENDCHAR
STARTCHAR 2447
ENCODING 9287
SWIDTH 480 0
DWIDTH 5 0
BBX 8 7 0 -1
BITMAP
FE
08
13
10
10
08
06
ENDCHAR
STARTCHAR 2448
ENCODING 9288
SWIDTH 480 0
DWIDTH 5 0
BBX 8 8 0 -1
BITMAP
20
20
16
18
20
40
40
3E
ENDCHAR
STARTCHAR 2449
ENCODING 9289
SWIDTH 480 0
DWIDTH 5 0
BBX 8 8 0 -1
BITMAP
23
20
16
18
20
40
40
3E
ENDCHAR
STARTCHAR 244a
ENCODING 9290
SWIDTH 480 0
DWIDTH 5 0
BBX 8 8 0 -1
BITMAP
20
F0
42
48
88
3C
4A
38
ENDCHAR
STARTCHAR 244b
ENCODING 9291
SWIDTH 480 0
DWIDTH 5 0
BBX 8 8 0 -1
BITMAP
40
5E
41
40
40
50
4F
20
ENDCHAR
STARTCHAR 244c
ENCODING 9292
SWIDTH 480 0
DWIDTH 5 0
BBX 8 8 0 -1
BITMAP
08
48
7C
4A
AA
96
AA
45
ENDCHAR
STARTCHAR 244d
ENCODING 9293
SWIDTH 480 0
DWIDTH 5 0
BBX 8 8 0 -1
BITMAP
20
20
EC
32
22
66
AA
25
ENDCHAR
STARTCHAR 244e
ENCODING 9294
SWIDTH 480 0
DWIDTH 5 0
BBX 7 7 1 -1
BITMAP
38
54
92
92
92
92
64
ENDCHAR
STARTCHAR 244f
ENCODING 9295
SWIDTH 480 0
DWIDTH 5 0
BBX 8 8 0 -1
BITMAP
04
84
9F
84
84
9E
A5
5C
ENDCHAR
STARTCHAR 2450
ENCODING 9296
SWIDTH 480 0
DWIDTH 5 0
BBX 8 8 0 -1
BITMAP
03
84
9F
84
84
9E
A5
5C
ENDCHAR
STARTCHAR 2451
ENCODING 9297
SWIDTH 480 0
DWIDTH 5 0
BBX 8 8 0 -1
BITMAP
02
85
9E
84
84
9E
A5
5C
ENDCHAR
STARTCHAR 2452
ENCODING 9298
SWIDTH 480 0
DWIDTH 5 0
BBX 8 7 0 -1
BITMAP
E0
26
25
44
44
44
38
ENDCHAR
STARTCHAR 2453
ENCODING 9299
SWIDTH 480 0
DWIDTH 5 0
BBX 8 8 0 -1
BITMAP
03
E0
26
25
44
44
44
38
ENDCHAR
STARTCHAR 2454
ENCODING 9300
SWIDTH 480 0
DWIDTH 5 0
BBX 8 8 0 -1
BITMAP
02
E5
22
26
45
44
44
38
ENDCHAR
STARTCHAR 2455
ENCODING 9301
SWIDTH 480 0
DWIDTH 5 0
BBX 8 7 0 -1
BITMAP
10
08
10
10
4A
49
91
ENDCHAR
STARTCHAR 2456
ENCODING 9302
SWIDTH 480 0
DWIDTH 5 0
BBX 8 8 0 -1
BITMAP
03
10
08
10
10
4A
49
91
ENDCHAR
STARTCHAR 2457
ENCODING 9303
SWIDTH 480 0
DWIDTH 5 0
BBX 8 8 0 -1
BITMAP
02
15
0A
10
10
4A
49
91
ENDCHAR
STARTCHAR 2458
ENCODING 9304
SWIDTH 480 0
DWIDTH 5 0
BBX 8 4 0 1
BITMAP
30
48
84
03
ENDCHAR
STARTCHAR 2459
ENCODING 9305
SWIDTH 480 0
DWIDTH 5 0
BBX 8 6 0 1
BITMAP
03
00
30
48
84
03
ENDCHAR
STARTCHAR 245a
ENCODING 9306
SWIDTH 480 0
DWIDTH 5 0
BBX 8 6 0 1
BITMAP
02
05
32
48
84
03
ENDCHAR
STARTCHAR 245b
ENCODING 9307
SWIDTH 480 0
DWIDTH 5 0
BBX 8 7 0 -1
BITMAP
9F
84
9F
84
9E
A5
5C
ENDCHAR
STARTCHAR 245c
ENCODING 9308
SWIDTH 480 0
DWIDTH 5 0
BBX 8 8 0 -1
BITMAP
03
9E
84
9F
84
9E
A5
5C
ENDCHAR
STARTCHAR 245d
ENCODING 9309
SWIDTH 480 0
DWIDTH 5 0
BBX 8 8 0 -1
BITMAP
02
9D
86
9F
84
9E
A5
5C
ENDCHAR
STARTCHAR 245e
ENCODING 9310
SWIDTH 480 0
DWIDTH 5 0
BBX 8 8 0 -1
BITMAP
08
7E
08
7E
08
3C
4A
38
ENDCHAR
STARTCHAR 245f
ENCODING 9311
SWIDTH 480 0
DWIDTH 5 0
BBX 8 7 0 -1
BITMAP
70
12
12
7E
93
92
64
ENDCHAR
STARTCHAR 2460
ENCODING 9312
SWIDTH 480 0
DWIDTH 5 0
BBX 8 8 0 -1
BITMAP
20
FA
21
60
A0
62
22
1C
ENDCHAR
STARTCHAR 2461
ENCODING 9313
SWIDTH 480 0
DWIDTH 5 0
BBX 8 7 0 -1
BITMAP
48
7E
49
A9
91
B1
46
ENDCHAR
STARTCHAR 2462
ENCODING 9314
SWIDTH 480 0
DWIDTH 5 0
BBX 8 8 0 -1
BITMAP
10
7E
10
7E
10
10
12
0C
ENDCHAR
STARTCHAR 2463
ENCODING 9315
SWIDTH 480 0
DWIDTH 5 0
BBX 6 6 1 -1
BITMAP
50
F8
54
44
28
20
ENDCHAR
STARTCHAR 2464
ENCODING 9316
SWIDTH 480 0
DWIDTH 5 0
BBX 8 7 0 -1
BITMAP
28
FE
29
21
22
10
10
ENDCHAR
STARTCHAR 2465
ENCODING 9317
SWIDTH 480 0
DWIDTH 5 0
BBX 6 6 1 -1
BITMAP
20
B8
E4
A4
28
40
ENDCHAR
STARTCHAR 2466
ENCODING 9318
SWIDTH 480 0
DWIDTH 5 0
BBX 8 8 0 -1
BITMAP
08
08
BE
C9
89
89
4A
10
ENDCHAR
STARTCHAR 2467
ENCODING 9319
SWIDTH 480 0
DWIDTH 5 0
BBX 6 6 1 -1
BITMAP
10
1C
10
78
94
70
ENDCHAR
STARTCHAR 2468
ENCODING 9320
SWIDTH 480 0
DWIDTH 5 0
BBX 8 8 0 -1
BITMAP
08
08
0E
08
08
3C
4A
30
ENDCHAR
STARTCHAR 2469
ENCODING 9321
SWIDTH 480 0
DWIDTH 5 0
BBX 8 8 0 -1
BITMAP
08
24
20
20
3C
02
02
3C
ENDCHAR
STARTCHAR 246a
ENCODING 9322
SWIDTH 480 0
DWIDTH 5 0
BBX 8 8 0 -1
BITMAP
04
22
22
22
22
02
04
18
ENDCHAR
STARTCHAR 246b
ENCODING 9323
SWIDTH 480 0
DWIDTH 5 0
BBX 8 8 0 -1
BITMAP
3E
04
08
3C
02
1A
26
1C
ENDCHAR
STARTCHAR 246c
ENCODING 9324
SWIDTH 480 0
DWIDTH 5 0
BBX 8 8 0 -1
BITMAP
20
28
F4
24
24
64
A5
22
ENDCHAR
STARTCHAR 246d
ENCODING 9325
SWIDTH 480 0
DWIDTH 5 0
BBX 8 8 0 -1
BITMAP
3E
04
08
3C
02
02
22
1C
ENDCHAR
STARTCHAR 246e
ENCODING 9326
SWIDTH 480 0
DWIDTH 5 0
BBX 6 5 1 -1
BITMAP
40
D8
64
C4
48
ENDCHAR
STARTCHAR 246f
ENCODING 9327
SWIDTH 480 0
DWIDTH 5 0
BBX 8 8 0 -1
BITMAP
20
20
EE
31
21
61
A1
26
ENDCHAR
STARTCHAR 2470
ENCODING 9328
SWIDTH 480 0
DWIDTH 5 0
BBX 8 8 0 -1
BITMAP
38
08
1C
2A
51
67
09
06
ENDCHAR
STARTCHAR 2471
ENCODING 9329
SWIDTH 480 0
DWIDTH 5 0
BBX 8 8 0 -1
BITMAP
3C
08
3C
02
3C
20
6C
93
ENDCHAR
STARTCHAR 2472
ENCODING 9330
SWIDTH 480 0
DWIDTH 5 0
BBX 8 8 0 -1
BITMAP
20
7C
20
36
48
18
20
1E
ENDCHAR
STARTCHAR 2473
ENCODING 9331
SWIDTH 480 0
DWIDTH 5 0
BBX 8 8 0 -1
BITMAP
08
10
10
20
30
49
49
46
ENDCHAR
STARTCHAR 2521
ENCODING 9505
SWIDTH 480 0
DWIDTH 5 0
BBX 5 5 2 -1
BITMAP
F8
28
30
20
40
ENDCHAR
STARTCHAR 2522
ENCODING 9506
SWIDTH 480 0
DWIDTH 5 0
BBX 7 7 1 -1
BITMAP
FE
02
14
18
10
10
20
ENDCHAR
STARTCHAR 2523
ENCODING 9507
SWIDTH 480 0
DWIDTH 5 0
BBX 4 5 2 -1
BITMAP
10
20
60
A0
20
ENDCHAR
STARTCHAR 2524
ENCODING 9508
SWIDTH 480 0
DWIDTH 5 0
BBX 6 7 1 -1
BITMAP
04
08
10
30
50
90
10
ENDCHAR
STARTCHAR 2525
ENCODING 9509
SWIDTH 480 0
DWIDTH 5 0
BBX 5 5 2 -1
BITMAP
20
F8
88
08
30
ENDCHAR
STARTCHAR 2526
ENCODING 9510
SWIDTH 480 0
DWIDTH 5 0
BBX 8 8 0 -1
BITMAP
08
08
7E
42
42
02
04
18
ENDCHAR
STARTCHAR 2527
ENCODING 9511
SWIDTH 480 0
DWIDTH 5 0
BBX 5 4 2 -1
BITMAP
70
20
20
F8
ENDCHAR
STARTCHAR 2528
ENCODING 9512
SWIDTH 480 0
DWIDTH 5 0
BBX 7 7 1 -1
BITMAP
7C
10
10
10
10
10
FE
ENDCHAR
STARTCHAR 2529
ENCODING 9513
SWIDTH 480 0
DWIDTH 5 0
BBX 5 5 2 -1
BITMAP
10
F8
30
50
90
ENDCHAR
STARTCHAR 252a
ENCODING 9514
SWIDTH 480 0
DWIDTH 5 0
BBX 8 8 0 -1
BITMAP
04
04
7F
04
0C
14
24
44
ENDCHAR
STARTCHAR 252b
ENCODING 9515
SWIDTH 480 0
DWIDTH 5 0
BBX 8 8 0 -1
BITMAP
10
10
7E
12
12
22
22
44
ENDCHAR
STARTCHAR 252c
ENCODING 9516
SWIDTH 480 0
DWIDTH 5 0
BBX 8 8 0 -1
BITMAP
13
10
7E
12
12
22
22
44
ENDCHAR
STARTCHAR 252d
ENCODING 9517
SWIDTH 480 0
DWIDTH 5 0
BBX 8 8 0 -1
BITMAP
10
10
7F
08
7F
08
04
04
ENDCHAR
STARTCHAR 252e
ENCODING 9518
SWIDTH 480 0
DWIDTH 5 0
BBX 8 8 0 -1
BITMAP
13
10
7F
08
7F
08
04
04
ENDCHAR
STARTCHAR 252f
ENCODING 9519
SWIDTH 480 0
DWIDTH 5 0
BBX 8 8 0 -1
BITMAP
20
3E
22
42
02
04
04
18
ENDCHAR
STARTCHAR 2530
ENCODING 9520
SWIDTH 480 0
DWIDTH 5 0
BBX 8 8 0 -1
BITMAP
23
3E
22
22
42
04
04
18
ENDCHAR
STARTCHAR 2531
ENCODING 9521
SWIDTH 480 0
DWIDTH 5 0
BBX 8 8 0 -1
BITMAP
20
20
3F
24
44
04
08
30
ENDCHAR
STARTCHAR 2532
ENCODING 9522
SWIDTH 480 0
DWIDTH 5 0
BBX 8 8 0 -1
BITMAP
23
20
3F
24
44
04
08
30
ENDCHAR
STARTCHAR 2533
ENCODING 9523
SWIDTH 480 0
DWIDTH 5 0
BBX 6 6 1 -1
BITMAP
FC
04
04
04
04
FC
ENDCHAR
STARTCHAR 2534
ENCODING 9524
SWIDTH 480 0
DWIDTH 5 0
BBX 8 8 0 -1
BITMAP
03
00
7E
02
02
02
02
7E
ENDCHAR
STARTCHAR 2535
ENCODING 9525
SWIDTH 480 0
DWIDTH 5 0
BBX 8 7 0 -1
BITMAP
24
FF
24
24
04
04
18
ENDCHAR
STARTCHAR 2536
ENCODING 9526
SWIDTH 480 0
DWIDTH 5 0
BBX 8 8 0 -1
BITMAP
03
24
FF
24
24
04
04
18
ENDCHAR
STARTCHAR 2537
ENCODING 9527
SWIDTH 480 0
DWIDTH 5 0
BBX 6 7 1 -1
BITMAP
80
40
84
44
08
10
E0
ENDCHAR
STARTCHAR 2538
ENCODING 9528
SWIDTH 480 0
DWIDTH 5 0
BBX 8 8 0 -1
BITMAP
03
40
20
42
22
04
08
70
ENDCHAR
STARTCHAR 2539
ENCODING 9529
SWIDTH 480 0
DWIDTH 5 0
BBX 7 7 1 -1
BITMAP
FC
04
08
10
28
44
82
ENDCHAR
STARTCHAR 253a
ENCODING 9530
SWIDTH 480 0
DWIDTH 5 0
BBX 8 8 0 -1
BITMAP
03
7F
02
04
08
14
22
41
ENDCHAR
STARTCHAR 253b
ENCODING 9531
SWIDTH 480 0
DWIDTH 5 0
BBX 8 8 0 -1
BITMAP
20
20
7E
22
24
28
20
1E
ENDCHAR
STARTCHAR 253c
ENCODING 9532
SWIDTH 480 0
DWIDTH 5 0
BBX 8 8 0 -1
BITMAP
23
20
7E
22
24
20
20
1E
ENDCHAR
STARTCHAR 253d
ENCODING 9533
SWIDTH 480 0
DWIDTH 5 0
BBX 7 7 1 -1
BITMAP
82
82
42
04
04
08
30
ENDCHAR
STARTCHAR 253e
ENCODING 9534
SWIDTH 480 0
DWIDTH 5 0
BBX 8 8 0 -1
BITMAP
03
40
41
21
02
02
04
18
ENDCHAR
STARTCHAR 253f
ENCODING 9535
SWIDTH 480 0
DWIDTH 5 0
BBX 8 8 0 -1
BITMAP
10
1E
12
32
4E
04
08
70
ENDCHAR
STARTCHAR 2540
ENCODING 9536
SWIDTH 480 0
DWIDTH 5 0
BBX 8 8 0 -1
BITMAP
13
1F
12
32
4E
04
08
70
ENDCHAR
STARTCHAR 2541
ENCODING 9537
SWIDTH 480 0
DWIDTH 5 0
BBX 8 8 0 -1
BITMAP
06
38
08
7F
08
08
08
30
ENDCHAR
STARTCHAR 2542
ENCODING 9538
SWIDTH 480 0
DWIDTH 5 0
BBX 8 8 0 -1
BITMAP
06
38
0B
7F
08
08
08
30
ENDCHAR
STARTCHAR 2543
ENCODING 9539
SWIDTH 480 0
DWIDTH 5 0
BBX 6 4 1 -1
BITMAP
A4
A4
08
30
ENDCHAR
STARTCHAR 2544
ENCODING 9540
SWIDTH 480 0
DWIDTH 5 0
BBX 6 7 1 -1
BITMAP
A4
A4
04
08
08
10
60
ENDCHAR
STARTCHAR 2545
ENCODING 9541
SWIDTH 480 0
DWIDTH 5 0
BBX 8 8 0 -1
BITMAP
03
50
52
02
04
04
08
30
ENDCHAR
STARTCHAR 2546
ENCODING 9542
SWIDTH 480 0
DWIDTH 5 0
BBX 8 8 0 -1
BITMAP
3E
00
00
7F
08
08
08
30
ENDCHAR
STARTCHAR 2547
ENCODING 9543
SWIDTH 480 0
DWIDTH 5 0
BBX 8 8 0 -1
BITMAP
03
3E
00
7F
08
08
08
30
ENDCHAR
STARTCHAR 2548
ENCODING 9544
SWIDTH 480 0
DWIDTH 5 0
BBX 8 8 0 -1
BITMAP
20
20
20
38
24
22
20
20
ENDCHAR
STARTCHAR 2549
ENCODING 9545
SWIDTH 480 0
DWIDTH 5 0
BBX 8 8 0 -1
BITMAP
26
20
20
38
24
22
20
20
ENDCHAR
STARTCHAR 254a
ENCODING 9546
SWIDTH 480 0
DWIDTH 5 0
BBX 8 8 0 -1
BITMAP
04
04
7F
04
04
04
08
30
ENDCHAR
STARTCHAR 254b
ENCODING 9547
SWIDTH 480 0
DWIDTH 5 0
BBX 7 5 1 0
BITMAP
7C
00
00
00
FE
ENDCHAR
STARTCHAR 254c
ENCODING 9548
SWIDTH 480 0
DWIDTH 5 0
BBX 6 7 1 -1
BITMAP
FC
04
44
28
18
24
C0
ENDCHAR
STARTCHAR 254d
ENCODING 9549
SWIDTH 480 0
DWIDTH 5 0
BBX 8 8 0 -1
BITMAP
08
08
7F
01
06
1A
69
08
ENDCHAR
STARTCHAR 254e
ENCODING 9550
SWIDTH 480 0
DWIDTH 5 0
BBX 5 7 2 -1
BITMAP
08
08
08
10
10
20
C0
ENDCHAR
STARTCHAR 254f
ENCODING 9551
SWIDTH 480 0
DWIDTH 5 0
BBX 8 5 0 0
BITMAP
24
24
22
42
81
ENDCHAR
STARTCHAR 2550
ENCODING 9552
SWIDTH 480 0
DWIDTH 5 0
BBX 8 7 0 0
BITMAP
03
00
24
24
22
42
81
ENDCHAR
STARTCHAR 2551
ENCODING 9553
SWIDTH 480 0
DWIDTH 5 0
BBX 8 7 0 0
BITMAP
02
05
26
24
22
42
81
ENDCHAR
STARTCHAR 2552
ENCODING 9554
SWIDTH 480 0
DWIDTH 5 0
BBX 6 7 1 -1
BITMAP
80
80
FC
80
80
80
7C
ENDCHAR
STARTCHAR 2553
ENCODING 9555
SWIDTH 480 0
DWIDTH 5 0
BBX 8 8 0 -1
BITMAP
03
40
40
7E
40
40
40
3E
ENDCHAR
STARTCHAR 2554
ENCODING 9556
SWIDTH 480 0
DWIDTH 5 0
BBX 8 8 0 -1
BITMAP
02
45
42
7E
40
40
40
3E
ENDCHAR
STARTCHAR 2555
ENCODING 9557
SWIDTH 480 0
DWIDTH 5 0
BBX 6 6 1 -1
BITMAP
FC
04
04
08
10
60
ENDCHAR
STARTCHAR 2556
ENCODING 9558
SWIDTH 480 0
DWIDTH 5 0
BBX 8 8 0 -1
BITMAP
03
00
7E
02
02
04
08
30
ENDCHAR
STARTCHAR 2557
ENCODING 9559
SWIDTH 480 0
DWIDTH 5 0
BBX 8 8 0 -1
BITMAP
02
05
7E
02
02
04
08
30
ENDCHAR
STARTCHAR 2558
ENCODING 9560
SWIDTH 480 0
DWIDTH 5 0
BBX 7 4 1 1
BITMAP
30
48
84
02
ENDCHAR
STARTCHAR 2559
ENCODING 9561
SWIDTH 480 0
DWIDTH 5 0
BBX 7 6 1 1
BITMAP
06
00
30
48
84
02
ENDCHAR
STARTCHAR 255a
ENCODING 9562
SWIDTH 480 0
DWIDTH 5 0
BBX 7 6 1 1
BITMAP
04
0A
34
48
84
02
ENDCHAR
STARTCHAR 255b
ENCODING 9563
SWIDTH 480 0
DWIDTH 5 0
BBX 8 8 0 -1
BITMAP
08
08
7F
08
08
2A
49
08
ENDCHAR
STARTCHAR 255c
ENCODING 9564
SWIDTH 480 0
DWIDTH 5 0
BBX 8 8 0 -1
BITMAP
0B
08
7F
08
08
2A
49
08
ENDCHAR
STARTCHAR 255d
ENCODING 9565
SWIDTH 480 0
DWIDTH 5 0
BBX 8 8 0 -1
BITMAP
0A
0D
7E
08
08
2A
49
08
ENDCHAR
STARTCHAR 255e
ENCODING 9566
SWIDTH 480 0
DWIDTH 5 0
BBX 6 7 1 -1
BITMAP
FC
04
04
48
30
10
08
ENDCHAR
STARTCHAR 255f
ENCODING 9567
SWIDTH 480 0
DWIDTH 5 0
BBX 5 7 2 -1
BITMAP
60
18
60
18
00
C0
38
ENDCHAR
STARTCHAR 2560
ENCODING 9568
SWIDTH 480 0
DWIDTH 5 0
BBX 7 7 1 -1
BITMAP
10
10
20
20
48
84
FA
ENDCHAR
STARTCHAR 2561
ENCODING 9569
SWIDTH 480 0
DWIDTH 5 0
BBX 6 7 2 -1
BITMAP
04
04
48
28
10
28
C0
ENDCHAR
STARTCHAR 2562
ENCODING 9570
SWIDTH 480 0
DWIDTH 5 0
BBX 7 7 1 -1
BITMAP
FC
20
20
FE
20
20
3C
ENDCHAR
STARTCHAR 2563
ENCODING 9571
SWIDTH 480 0
DWIDTH 5 0
BBX 5 5 2 -1
BITMAP
40
F8
48
50
40
ENDCHAR
STARTCHAR 2564
ENCODING 9572
SWIDTH 480 0
DWIDTH 5 0
BBX 8 8 0 -1
BITMAP
10
10
FF
11
12
14
10
10
ENDCHAR
STARTCHAR 2565
ENCODING 9573
SWIDTH 480 0
DWIDTH 5 0
BBX 5 4 1 -1
BITMAP
70
10
10
F8
ENDCHAR
STARTCHAR 2566
ENCODING 9574
SWIDTH 480 0
DWIDTH 5 0
BBX 6 6 1 -1
BITMAP
78
08
08
08
08
FC
ENDCHAR
STARTCHAR 2567
ENCODING 9575
SWIDTH 480 0
DWIDTH 5 0
BBX 4 5 2 -1
BITMAP
F0
10
F0
10
F0
ENDCHAR
STARTCHAR 2568
ENCODING 9576
SWIDTH 480 0
DWIDTH 5 0
BBX 6 7 1 -1
BITMAP
FC
04
04
FC
04
04
FC
ENDCHAR
STARTCHAR 2569
ENCODING 9577
SWIDTH 480 0
DWIDTH 5 0
BBX 6 7 1 -1
BITMAP
78
00
FC
04
04
08
70
ENDCHAR
STARTCHAR 256a
ENCODING 9578
SWIDTH 480 0
DWIDTH 5 0
BBX 5 7 2 -1
BITMAP
88
88
88
88
08
10
60
ENDCHAR
STARTCHAR 256b
ENCODING 9579
SWIDTH 480 0
DWIDTH 5 0
BBX 7 7 1 -1
BITMAP
50
50
50
50
52
54
98
ENDCHAR
STARTCHAR 256c
ENCODING 9580
SWIDTH 480 0
DWIDTH 5 0
BBX 5 7 2 -1
BITMAP
80
80
80
88
88
90
E0
ENDCHAR
STARTCHAR 256d
ENCODING 9581
SWIDTH 480 0
DWIDTH 5 0
BBX 6 7 1 -1
BITMAP
FC
84
84
84
84
84
FC
ENDCHAR
STARTCHAR 256e
ENCODING 9582
SWIDTH 480 0
DWIDTH 5 0
BBX 5 5 1 -1
BITMAP
F8
88
88
10
20
ENDCHAR
STARTCHAR 256f
ENCODING 9583
SWIDTH 480 0
DWIDTH 5 0
BBX 6 7 1 -1
BITMAP
FC
84
84
04
08
10
60
ENDCHAR
STARTCHAR 2570
ENCODING 9584
SWIDTH 480 0
DWIDTH 5 0
BBX 8 8 0 -1
BITMAP
04
04
7E
24
24
FF
04
04
ENDCHAR
STARTCHAR 2571
ENCODING 9585
SWIDTH 480 0
DWIDTH 5 0
BBX 7 7 1 -1
BITMAP
7C
04
18
10
10
10
FE
ENDCHAR
STARTCHAR 2572
ENCODING 9586
SWIDTH 480 0
DWIDTH 5 0
BBX 6 7 1 -1
BITMAP
FC
04
FC
04
08
10
60
ENDCHAR
STARTCHAR 2573
ENCODING 9587
SWIDTH 480 0
DWIDTH 5 0
BBX 6 7 1 -1
BITMAP
80
40
04
04
08
10
E0
ENDCHAR
STARTCHAR 2574
ENCODING 9588
SWIDTH 480 0
DWIDTH 5 0
BBX 8 8 0 -1
BITMAP
0B
08
7E
42
42
02
04
18
ENDCHAR
STARTCHAR 2575
ENCODING 9589
SWIDTH 480 0
DWIDTH 5 0
BBX 5 6 2 -1
BITMAP
40
40
F8
48
48
90
ENDCHAR
STARTCHAR 2576
ENCODING 9590
SWIDTH 480 0
DWIDTH 5 0
BBX 6 6 1 -1
BITMAP
40
40
7C
90
10
60
ENDCHAR
STARTCHAR QUADRANT LOWER LEFT
ENCODING 9622
SWIDTH 480 0
DWIDTH 5 0
BBX 3 3 0 0
BITMAP
E0
E0
E0
ENDCHAR
STARTCHAR QUADRANT LOWER RIGHT
ENCODING 9623
SWIDTH 480 0
DWIDTH 5 0
BBX 3 3 3 0
BITMAP
E0
E0
E0
ENDCHAR
STARTCHAR QUADRANT UPPER LEFT
ENCODING 9624
SWIDTH 480 0
DWIDTH 5 0
BBX 3 3 0 3
BITMAP
E0
E0
E0
ENDCHAR
STARTCHAR QUADRANT UPPER LEFT AND LOWER LEFT AND LOWER RIGHT
ENCODING 9625
SWIDTH 480 0
DWIDTH 5 0
BBX 6 6 0 0
BITMAP
E0
E0
E0
FC
FC
FC
ENDCHAR
STARTCHAR QUADRANT UPPER LEFT AND LOWER RIGHT
ENCODING 9626
SWIDTH 480 0
DWIDTH 5 0
BBX 6 6 0 0
BITMAP
E0
E0
E0
1C
1C
1C
ENDCHAR
STARTCHAR QUADRANT UPPER LEFT AND UPPER RIGHT AND LOWER LEFT
ENCODING 9627
SWIDTH 480 0
DWIDTH 5 0
BBX 6 6 0 0
BITMAP
FC
FC
FC
E0
E0
E0
ENDCHAR
STARTCHAR QUADRANT UPPER LEFT AND UPPER RIGHT AND LOWER RIGHT
ENCODING 9628
SWIDTH 480 0
DWIDTH 5 0
BBX 6 6 0 0
BITMAP
FC
FC
FC
1C
1C
1C
ENDCHAR
STARTCHAR QUADRANT UPPER RIGHT
ENCODING 9629
SWIDTH 480 0
DWIDTH 5 0
BBX 3 3 3 3
BITMAP
E0
E0
E0
ENDCHAR
STARTCHAR QUADRANT UPPER RIGHT AND LOWER LEFT
ENCODING 9630
SWIDTH 480 0
DWIDTH 5 0
BBX 6 6 0 0
BITMAP
1C
1C
1C
E0
E0
E0
ENDCHAR
STARTCHAR QUADRANT UPPER RIGHT AND LOWER LEFT AND LOWER RIGHT
ENCODING 9631
SWIDTH 480 0
DWIDTH 5 0
BBX 6 6 0 0
BITMAP
1C
1C
1C
FC
FC
FC
ENDCHAR
STARTCHAR BLACK SQUARE
ENCODING 9632
SWIDTH 480 0
DWIDTH 5 0
BBX 6 6 0 0
BITMAP
FC
FC
FC
FC
FC
FC
ENDCHAR
STARTCHAR WHITE SQUARE
ENCODING 9633
SWIDTH 480 0
DWIDTH 5 0
BBX 6 6 0 0
BITMAP
FC
84
84
84
84
FC
ENDCHAR
STARTCHAR WHITE SQUARE WITH ROUNDED CORNERS
ENCODING 9634
SWIDTH 480 0
DWIDTH 5 0
BBX 6 6 0 0
BITMAP
78
84
84
84
84
78
ENDCHAR
STARTCHAR WHITE SQUARE CONTAINING BLACK SMALL SQUARE
ENCODING 9635
SWIDTH 480 0
DWIDTH 5 0
BBX 5 5 0 0
BITMAP
F8
88
A8
88
F8
ENDCHAR
STARTCHAR SQUARE WITH HORIZONTAL FILL
ENCODING 9636
SWIDTH 480 0
DWIDTH 5 0
BBX 5 5 0 0
BITMAP
F8
88
F8
88
F8
ENDCHAR
STARTCHAR SQUARE WITH VERTICAL FILL
ENCODING 9637
SWIDTH 480 0
DWIDTH 5 0
BBX 5 5 0 0
BITMAP
F8
A8
A8
A8
F8
ENDCHAR
STARTCHAR SQUARE WITH ORTHOGONAL CROSSHATCH FILL
ENCODING 9638
SWIDTH 480 0
DWIDTH 5 0
BBX 5 5 0 0
BITMAP
F8
A8
F8
A8
F8
ENDCHAR
STARTCHAR SQUARE WITH UPPER LEFT TO LOWER RIGHT FILL
ENCODING 9639
SWIDTH 480 0
DWIDTH 5 0
BBX 5 5 0 0
BITMAP
F8
C8
A8
98
F8
ENDCHAR
STARTCHAR SQUARE WITH UPPER RIGHT TO LOWER LEFT FILL
ENCODING 9640
SWIDTH 480 0
DWIDTH 5 0
BBX 5 5 0 0
BITMAP
F8
98
A8
C8
F8
ENDCHAR
STARTCHAR SQUARE WITH DIAGONAL CROSSHATCH FILL
ENCODING 9641
SWIDTH 480 0
DWIDTH 5 0
BBX 5 5 0 0
BITMAP
F8
A8
D8
A8
F8
ENDCHAR
STARTCHAR BLACK SMALL SQUARE
ENCODING 9642
SWIDTH 480 0
DWIDTH 5 0
BBX 5 5 0 0
BITMAP
F8
F8
F8
F8
F8
ENDCHAR
STARTCHAR WHITE SMALL SQUARE
ENCODING 9643
SWIDTH 480 0
DWIDTH 5 0
BBX 5 5 0 0
BITMAP
F8
88
88
88
F8
ENDCHAR
STARTCHAR BLACK RECTANGLE
ENCODING 9644
SWIDTH 480 0
DWIDTH 5 0
BBX 5 3 0 0
BITMAP
F8
F8
F8
ENDCHAR
STARTCHAR WHITE RECTANGLE
ENCODING 9645
SWIDTH 480 0
DWIDTH 5 0
BBX 5 3 0 0
BITMAP
F8
88
F8
ENDCHAR
STARTCHAR BLACK VERTICAL RECTANGLE
ENCODING 9646
SWIDTH 480 0
DWIDTH 5 0
BBX 4 7 0 0
BITMAP
F0
F0
F0
F0
F0
F0
F0
ENDCHAR
STARTCHAR WHITE VERTICAL RECTANGLE
ENCODING 9647
SWIDTH 480 0
DWIDTH 5 0
BBX 4 7 0 0
BITMAP
F0
90
90
90
90
90
F0
ENDCHAR
STARTCHAR BLACK PARALLELOGRAM
ENCODING 9648
SWIDTH 480 0
DWIDTH 5 0
BBX 6 3 0 0
BITMAP
7C
FC
F8
ENDCHAR
STARTCHAR WHITE PARALLELOGRAM
ENCODING 9649
SWIDTH 480 0
DWIDTH 5 0
BBX 6 3 0 0
BITMAP
7C
84
F8
ENDCHAR
STARTCHAR char11155
ENCODING 9650
SWIDTH 480 0
DWIDTH 5 0
BBX 7 4 1 1
BITMAP
10
38
7C
FE
ENDCHAR
STARTCHAR char11155
ENCODING 9651
SWIDTH 480 0
DWIDTH 5 0
BBX 7 4 1 1
BITMAP
10
28
44
FE
ENDCHAR
STARTCHAR char11155
ENCODING 9652
SWIDTH 480 0
DWIDTH 5 0
BBX 5 3 0 1
BITMAP
20
70
F8
ENDCHAR
STARTCHAR char11155
ENCODING 9653
SWIDTH 480 0
DWIDTH 5 0
BBX 5 3 0 1
BITMAP
20
50
F8
ENDCHAR
STARTCHAR char11155
ENCODING 9654
SWIDTH 480 0
DWIDTH 5 0
BBX 4 7 1 -1
BITMAP
80
C0
E0
F0
E0
C0
80
ENDCHAR
STARTCHAR char11155
ENCODING 9655
SWIDTH 480 0
DWIDTH 5 0
BBX 4 7 1 -1
BITMAP
80
C0
A0
90
A0
C0
80
ENDCHAR
STARTCHAR char11155
ENCODING 9656
SWIDTH 480 0
DWIDTH 5 0
BBX 3 5 1 0
BITMAP
80
C0
E0
C0
80
ENDCHAR
STARTCHAR char11155
ENCODING 9657
SWIDTH 480 0
DWIDTH 5 0
BBX 3 5 1 0
BITMAP
80
C0
A0
C0
80
ENDCHAR
STARTCHAR BLACK RIGHT-POINTING POINTER
ENCODING 9658
SWIDTH 480 0
DWIDTH 5 0
BBX 7 5 -1 0
BITMAP
C0
F8
FE
F8
C0
ENDCHAR
STARTCHAR WHITE RIGHT-POINTING POINTER
ENCODING 9659
SWIDTH 480 0
DWIDTH 5 0
BBX 7 5 -1 0
BITMAP
C0
B8
86
B8
C0
ENDCHAR
STARTCHAR char11155
ENCODING 9660
SWIDTH 480 0
DWIDTH 5 0
BBX 7 4 1 1
BITMAP
FE
7C
38
10
ENDCHAR
STARTCHAR char11155
ENCODING 9661
SWIDTH 480 0
DWIDTH 5 0
BBX 7 4 1 1
BITMAP
FE
44
28
10
ENDCHAR
STARTCHAR char11155
ENCODING 9662
SWIDTH 480 0
DWIDTH 5 0
BBX 5 3 0 1
BITMAP
F8
70
20
ENDCHAR
STARTCHAR char11155
ENCODING 9663
SWIDTH 480 0
DWIDTH 5 0
BBX 5 3 0 1
BITMAP
F8
50
20
ENDCHAR
STARTCHAR char11155
ENCODING 9664
SWIDTH 480 0
DWIDTH 5 0
BBX 4 7 1 -1
BITMAP
10
30
70
F0
70
30
10
ENDCHAR
STARTCHAR char11155
ENCODING 9665
SWIDTH 480 0
DWIDTH 5 0
BBX 4 7 1 -1
BITMAP
10
30
50
90
50
30
10
ENDCHAR
STARTCHAR char11155
ENCODING 9666
SWIDTH 480 0
DWIDTH 5 0
BBX 3 5 1 0
BITMAP
20
60
E0
60
20
ENDCHAR
STARTCHAR char11155
ENCODING 9667
SWIDTH 480 0
DWIDTH 5 0
BBX 3 5 1 0
BITMAP
20
60
A0
60
20
ENDCHAR
STARTCHAR BLACK LEFT-POINTING POINTER
ENCODING 9668
SWIDTH 480 0
DWIDTH 5 0
BBX 7 5 -1 0
BITMAP
06
3E
FE
3E
06
ENDCHAR
STARTCHAR WHITE LEFT-POINTING POINTER
ENCODING 9669
SWIDTH 480 0
DWIDTH 5 0
BBX 7 5 -1 0
BITMAP
06
3A
C2
3A
06
ENDCHAR
STARTCHAR BLACK DIAMOND
ENCODING 9670
SWIDTH 480 0
DWIDTH 5 0
BBX 5 5 0 1
BITMAP
20
70
F8
70
20
ENDCHAR
STARTCHAR WHITE DIAMOND
ENCODING 9671
SWIDTH 480 0
DWIDTH 5 0
BBX 5 5 0 1
BITMAP
20
50
88
50
20
ENDCHAR
STARTCHAR WHITE DIAMOND CONTAINING BLACK SMALL DIAMOND
ENCODING 9672
SWIDTH 480 0
DWIDTH 5 0
BBX 5 5 0 1
BITMAP
20
50
A8
50
20
ENDCHAR
STARTCHAR FISHEYE
ENCODING 9673
SWIDTH 480 0
DWIDTH 5 0
BBX 5 5 0 1
BITMAP
70
88
A8
88
70
ENDCHAR
STARTCHAR LOZENGE
ENCODING 9674
SWIDTH 480 0
DWIDTH 5 0
BBX 5 7 0 0
BITMAP
20
50
50
88
50
50
20
ENDCHAR
STARTCHAR WHITE CIRCLE
ENCODING 9675
SWIDTH 480 0
DWIDTH 5 0
BBX 5 5 0 1
BITMAP
70
88
88
88
70
ENDCHAR
STARTCHAR DOTTED CIRCLE
ENCODING 9676
SWIDTH 480 0
DWIDTH 5 0
BBX 5 5 0 1
BITMAP
50
88
00
88
50
ENDCHAR
STARTCHAR CIRCLE WITH VERTICAL FILL
ENCODING 9677
SWIDTH 480 0
DWIDTH 5 0
BBX 5 5 0 0
BITMAP
70
A8
A8
A8
70
ENDCHAR
STARTCHAR BULLSEYE
ENCODING 9678
SWIDTH 480 0
DWIDTH 5 0
BBX 5 5 0 0
BITMAP
70
88
A8
88
70
ENDCHAR
STARTCHAR BLACK CIRCLE
ENCODING 9679
SWIDTH 480 0
DWIDTH 5 0
BBX 4 4 1 2
BITMAP
60
F0
F0
60
ENDCHAR
STARTCHAR CIRCLE WITH LEFT HALF BLACK
ENCODING 9680
SWIDTH 480 0
DWIDTH 5 0
BBX 4 4 1 2
BITMAP
60
D0
D0
60
ENDCHAR
STARTCHAR CIRCLE WITH RIGHT HALF BLACK
ENCODING 9681
SWIDTH 480 0
DWIDTH 5 0
BBX 4 4 1 2
BITMAP
60
B0
B0
60
ENDCHAR
STARTCHAR CIRCLE WITH LOWER HALF BLACK
ENCODING 9682
SWIDTH 480 0
DWIDTH 5 0
BBX 4 4 1 2
BITMAP
60
F0
90
60
ENDCHAR
STARTCHAR CIRCLE WITH UPPER HALF BLACK
ENCODING 9683
SWIDTH 480 0
DWIDTH 5 0
BBX 4 4 1 2
BITMAP
60
90
F0
60
ENDCHAR
STARTCHAR CIRCLE WITH UPPER RIGHT QUADRANT BLACK
ENCODING 9684
SWIDTH 480 0
DWIDTH 5 0
BBX 4 4 1 2
BITMAP
60
B0
90
60
ENDCHAR
STARTCHAR CIRCLE WITH ALL BUT UPPER LEFT QUADRANT BLACK
ENCODING 9685
SWIDTH 480 0
DWIDTH 5 0
BBX 4 4 1 2
BITMAP
60
B0
F0
60
ENDCHAR
STARTCHAR LEFT HALF BLACK CIRCLE
ENCODING 9686
SWIDTH 480 0
DWIDTH 5 0
BBX 2 4 1 2
BITMAP
40
C0
C0
40
ENDCHAR
STARTCHAR RIGHT HALF BLACK CIRCLE
ENCODING 9687
SWIDTH 480 0
DWIDTH 5 0
BBX 2 4 3 2
BITMAP
80
C0
C0
80
ENDCHAR
STARTCHAR INVERSE BULLET
ENCODING 9688
SWIDTH 480 0
DWIDTH 5 0
BBX 6 11 0 -2
BITMAP
FC
FC
FC
FC
CC
84
84
CC
FC
FC
FC
ENDCHAR
STARTCHAR INVERSE WHITE CIRCLE
ENCODING 9689
SWIDTH 480 0
DWIDTH 5 0
BBX 7 7 -1 0
BITMAP
FE
C6
BA
BA
BA
C6
FE
ENDCHAR
STARTCHAR UPPER HALF INVERSE WHITE CIRCLE
ENCODING 9690
SWIDTH 480 0
DWIDTH 5 0
BBX 7 4 -1 3
BITMAP
FE
C6
BA
BA
ENDCHAR
STARTCHAR LOWER HALF INVERSE WHITE CIRCLE
ENCODING 9691
SWIDTH 480 0
DWIDTH 5 0
BBX 7 4 -1 0
BITMAP
BA
BA
C6
FE
ENDCHAR
STARTCHAR UPPER LEFT QUADRANT CIRCULAR ARC
ENCODING 9692
SWIDTH 480 0
DWIDTH 5 0
BBX 3 3 0 3
BITMAP
60
80
80
ENDCHAR
STARTCHAR UPPER RIGHT QUADRANT CIRCULAR ARC
ENCODING 9693
SWIDTH 480 0
DWIDTH 5 0
BBX 3 3 2 3
BITMAP
C0
20
20
ENDCHAR
STARTCHAR LOWER RIGHT QUADRANT CIRCULAR ARC
ENCODING 9694
SWIDTH 480 0
DWIDTH 5 0
BBX 3 3 2 1
BITMAP
20
20
C0
ENDCHAR
STARTCHAR LOWER LEFT QUADRANT CIRCULAR ARC
ENCODING 9695
SWIDTH 480 0
DWIDTH 5 0
BBX 3 3 0 1
BITMAP
80
80
60
ENDCHAR
STARTCHAR UPPER HALF CIRCLE
ENCODING 9696
SWIDTH 480 0
DWIDTH 5 0
BBX 5 3 0 3
BITMAP
70
88
88
ENDCHAR
STARTCHAR LOWER HALF CIRCLE
ENCODING 9697
SWIDTH 480 0
DWIDTH 5 0
BBX 6 3 0 1
BITMAP
84
44
38
ENDCHAR
STARTCHAR BLACK LOWER RIGHT TRIANGLE
ENCODING 9698
SWIDTH 480 0
DWIDTH 5 0
BBX 6 6 0 0
BITMAP
04
0C
1C
3C
7C
FC
ENDCHAR
STARTCHAR BLACK LOWER LEFT TRIANGLE
ENCODING 9699
SWIDTH 480 0
DWIDTH 5 0
BBX 6 6 0 0
BITMAP
80
C0
E0
F0
F8
FC
ENDCHAR
STARTCHAR BLACK UPPER LEFT TRIANGLE
ENCODING 9700
SWIDTH 480 0
DWIDTH 5 0
BBX 6 6 0 0
BITMAP
FC
F8
F0
E0
C0
80
ENDCHAR
STARTCHAR BLACK UPPER RIGHT TRIANGLE
ENCODING 9701
SWIDTH 480 0
DWIDTH 5 0
BBX 6 6 0 0
BITMAP
FC
7C
3C
1C
0C
04
ENDCHAR
STARTCHAR WHITE BULLET
ENCODING 9702
SWIDTH 480 0
DWIDTH 5 0
BBX 5 5 0 1
BITMAP
70
88
88
88
70
ENDCHAR
STARTCHAR SQUARE WITH LEFT HALF BLACK
ENCODING 9703
SWIDTH 480 0
DWIDTH 5 0
BBX 5 5 0 0
BITMAP
F8
C8
C8
C8
F8
ENDCHAR
STARTCHAR SQUARE WITH RIGHT HALF BLACK
ENCODING 9704
SWIDTH 480 0
DWIDTH 5 0
BBX 5 5 0 0
BITMAP
F8
98
98
98
F8
ENDCHAR
STARTCHAR SQUARE WITH UPPER LEFT DIAGONAL HALF BLACK
ENCODING 9705
SWIDTH 480 0
DWIDTH 5 0
BBX 5 5 0 0
BITMAP
F8
E8
C8
88
F8
ENDCHAR
STARTCHAR SQUARE WITH LOWER RIGHT DIAGONAL HALF BLACK
ENCODING 9706
SWIDTH 480 0
DWIDTH 5 0
BBX 5 5 0 0
BITMAP
F8
88
98
B8
F8
ENDCHAR
STARTCHAR WHITE SQUARE WITH VERTICAL BISECTING LINE
ENCODING 9707
SWIDTH 480 0
DWIDTH 5 0
BBX 5 5 0 0
BITMAP
F8
A8
A8
A8
F8
ENDCHAR
STARTCHAR WHITE UP-POINTING TRIANGLE WITH DOT
ENCODING 9708
SWIDTH 480 0
DWIDTH 5 0
BBX 5 7 0 0
BITMAP
20
20
50
50
A8
88
F8
ENDCHAR
STARTCHAR UP-POINTING TRIANGLE WITH LEFT HALF BLACK
ENCODING 9709
SWIDTH 480 0
DWIDTH 5 0
BBX 5 6 0 0
BITMAP
20
20
70
70
E8
F8
ENDCHAR
STARTCHAR UP-POINTING TRIANGLE WITH RIGHT HALF BLACK
ENCODING 9710
SWIDTH 480 0
DWIDTH 5 0
BBX 5 6 0 0
BITMAP
20
20
70
70
B8
F8
ENDCHAR
STARTCHAR LARGE CIRCLE
ENCODING 9711
SWIDTH 480 0
DWIDTH 5 0
BBX 5 5 0 0
BITMAP
70
88
88
88
70
ENDCHAR
STARTCHAR WHITE SQUARE WITH UPPER LEFT QUADRANT
ENCODING 9712
SWIDTH 480 0
DWIDTH 5 0
BBX 5 5 0 0
BITMAP
F8
A8
E8
88
F8
ENDCHAR
STARTCHAR WHITE SQUARE WITH LOWER LEFT QUADRANT
ENCODING 9713
SWIDTH 480 0
DWIDTH 5 0
BBX 5 5 0 0
BITMAP
F8
88
E8
A8
F8
ENDCHAR
STARTCHAR WHITE SQUARE WITH LOWER RIGHT QUADRANT
ENCODING 9714
SWIDTH 480 0
DWIDTH 5 0
BBX 5 5 0 0
BITMAP
F8
88
B8
A8
F8
ENDCHAR
STARTCHAR WHITE SQUARE WITH UPPER RIGHT QUADRANT
ENCODING 9715
SWIDTH 480 0
DWIDTH 5 0
BBX 5 5 0 0
BITMAP
F8
A8
B8
88
F8
ENDCHAR
STARTCHAR WHITE CIRCLE WITH UPPER LEFT QUADRANT
ENCODING 9716
SWIDTH 480 0
DWIDTH 5 0
BBX 5 5 0 0
BITMAP
70
A8
E8
88
70
ENDCHAR
STARTCHAR WHITE CIRCLE WITH LOWER LEFT QUADRANT
ENCODING 9717
SWIDTH 480 0
DWIDTH 5 0
BBX 5 5 0 0
BITMAP
70
88
E8
A8
70
ENDCHAR
STARTCHAR WHITE CIRCLE WITH LOWER RIGHT QUADRANT
ENCODING 9718
SWIDTH 480 0
DWIDTH 5 0
BBX 5 5 0 0
BITMAP
70
88
B8
A8
70
ENDCHAR
STARTCHAR WHITE CIRCLE WITH UPPER RIGHT QUADRANT
ENCODING 9719
SWIDTH 480 0
DWIDTH 5 0
BBX 5 5 0 0
BITMAP
70
A8
B8
88
70
ENDCHAR
STARTCHAR UPPER LEFT TRIANGLE
ENCODING 9720
SWIDTH 480 0
DWIDTH 5 0
BBX 4 4 0 3
BITMAP
F0
A0
C0
80
ENDCHAR
STARTCHAR UPPER RIGHT TRIANGLE
ENCODING 9721
SWIDTH 480 0
DWIDTH 5 0
BBX 4 4 2 3
BITMAP
F0
50
30
10
ENDCHAR
STARTCHAR LOWER LEFT TRIANGLE
ENCODING 9722
SWIDTH 480 0
DWIDTH 5 0
BBX 4 4 0 0
BITMAP
80
C0
A0
F0
ENDCHAR
STARTCHAR WHITE MEDIUM SQUARE
ENCODING 9723
SWIDTH 480 0
DWIDTH 5 0
BBX 6 6 0 0
BITMAP
FC
84
84
84
84
FC
ENDCHAR
STARTCHAR BLACK MEDIUM SQUARE
ENCODING 9724
SWIDTH 480 0
DWIDTH 5 0
BBX 6 6 0 0
BITMAP
FC
FC
FC
FC
FC
FC
ENDCHAR
STARTCHAR WHITE MEDIUM SMALL SQUARE
ENCODING 9725
SWIDTH 480 0
DWIDTH 5 0
BBX 5 5 0 1
BITMAP
F8
88
88
88
F8
ENDCHAR
STARTCHAR BLACK MEDIUM SMALL SQUARE
ENCODING 9726
SWIDTH 480 0
DWIDTH 5 0
BBX 5 5 0 1
BITMAP
F8
F8
F8
F8
F8
ENDCHAR
STARTCHAR LOWER RIGHT TRIANGLE
ENCODING 9727
SWIDTH 480 0
DWIDTH 5 0
BBX 4 4 2 0
BITMAP
10
30
50
F0
ENDCHAR
STARTCHAR char9728
ENCODING 9728
SWIDTH 480 0
DWIDTH 5 0
BBX 5 7 0 -1
BITMAP
20
00
A8
70
A8
00
20
ENDCHAR
STARTCHAR char9729
ENCODING 9729
SWIDTH 480 0
DWIDTH 5 0
BBX 5 3 0 2
BITMAP
50
78
F8
ENDCHAR
STARTCHAR char9730
ENCODING 9730
SWIDTH 480 0
DWIDTH 5 0
BBX 5 5 0 0
BITMAP
70
F8
20
20
40
ENDCHAR
STARTCHAR char9732
ENCODING 9732
SWIDTH 480 0
DWIDTH 5 0
BBX 6 6 0 0
BITMAP
20
48
10
44
A8
40
ENDCHAR
STARTCHAR char9733
ENCODING 9733
SWIDTH 480 0
DWIDTH 5 0
BBX 5 6 0 0
BITMAP
20
20
F8
70
70
88
ENDCHAR
STARTCHAR char9734
ENCODING 9734
SWIDTH 480 0
DWIDTH 5 0
BBX 5 6 0 0
BITMAP
20
20
D8
50
70
88
ENDCHAR
STARTCHAR BLACK SPADE SUIT
ENCODING 9824
SWIDTH 480 0
DWIDTH 5 0
BBX 5 8 0 -1
BITMAP
20
20
70
F8
F8
70
20
70
ENDCHAR
STARTCHAR WHITE HEART SUIT
ENCODING 9825
SWIDTH 480 0
DWIDTH 5 0
BBX 5 5 0 0
BITMAP
50
A8
88
50
20
ENDCHAR
STARTCHAR WHITE DIAMOND SUIT
ENCODING 9826
SWIDTH 480 0
DWIDTH 5 0
BBX 5 6 0 0
BITMAP
20
50
88
88
50
20
ENDCHAR
STARTCHAR BLACK CLUB SUIT
ENCODING 9827
SWIDTH 480 0
DWIDTH 5 0
BBX 5 8 0 -1
BITMAP
70
70
20
F8
F8
F8
20
70
ENDCHAR
STARTCHAR WHITE SPADE SUIT
ENCODING 9828
SWIDTH 480 0
DWIDTH 5 0
BBX 5 8 0 -1
BITMAP
20
20
50
88
88
70
20
70
ENDCHAR
STARTCHAR BLACK HEART SUIT
ENCODING 9829
SWIDTH 480 0
DWIDTH 5 0
BBX 7 6 0 0
BITMAP
6C
FE
FE
7C
38
10
ENDCHAR
STARTCHAR BLACK DIAMOND SUIT
ENCODING 9830
SWIDTH 480 0
DWIDTH 5 0
BBX 5 9 0 -2
BITMAP
20
20
70
70
F8
70
70
20
20
ENDCHAR
STARTCHAR WHITE CLUB SUIT
ENCODING 9831
SWIDTH 480 0
DWIDTH 5 0
BBX 5 8 0 -1
BITMAP
70
50
20
F8
A8
F8
20
70
ENDCHAR
STARTCHAR char9833
ENCODING 9833
SWIDTH 480 0
DWIDTH 5 0
BBX 3 6 0 0
BITMAP
20
20
20
20
60
60
ENDCHAR
STARTCHAR char9834
ENCODING 9834
SWIDTH 480 0
DWIDTH 5 0
BBX 4 6 1 0
BITMAP
60
50
50
40
C0
C0
ENDCHAR
STARTCHAR char9835
ENCODING 9835
SWIDTH 480 0
DWIDTH 5 0
BBX 6 6 0 0
BITMAP
7C
44
44
44
CC
CC
ENDCHAR
STARTCHAR char9836
ENCODING 9836
SWIDTH 480 0
DWIDTH 5 0
BBX 6 6 0 0
BITMAP
7C
44
7C
44
CC
CC
ENDCHAR
STARTCHAR char9837
ENCODING 9837
SWIDTH 480 0
DWIDTH 5 0
BBX 3 6 0 0
BITMAP
80
80
80
E0
A0
C0
ENDCHAR
STARTCHAR MUSIC NATURAL SIGN
ENCODING 9838
SWIDTH 480 0
DWIDTH 5 0
BBX 4 6 0 0
BITMAP
80
B0
D0
B0
D0
10
ENDCHAR
STARTCHAR char9839
ENCODING 9839
SWIDTH 480 0
DWIDTH 5 0
BBX 5 6 0 0
BITMAP
10
58
D0
58
D0
40
ENDCHAR
STARTCHAR char10003
ENCODING 10003
SWIDTH 480 0
DWIDTH 5 0
BBX 5 7 0 -1
BITMAP
08
10
10
A0
A0
40
40
ENDCHAR
STARTCHAR HEAVY CHECK MARK
ENCODING 10004
SWIDTH 480 0
DWIDTH 5 0
BBX 6 8 0 -1
BITMAP
04
08
08
D0
50
50
20
20
ENDCHAR
STARTCHAR MULTIPLICATION X
ENCODING 10005
SWIDTH 480 0
DWIDTH 5 0
BBX 5 5 0 0
BITMAP
88
50
20
50
88
ENDCHAR
STARTCHAR HEAVY MULTIPLICATION X
ENCODING 10006
SWIDTH 480 0
DWIDTH 5 0
BBX 5 5 0 0
BITMAP
D8
50
20
50
D8
ENDCHAR
STARTCHAR BALLOT X
ENCODING 10007
SWIDTH 480 0
DWIDTH 5 0
BBX 5 7 0 0
BITMAP
08
48
50
20
50
90
80
ENDCHAR
STARTCHAR HEAVY BALLOT X
ENCODING 10008
SWIDTH 480 0
DWIDTH 5 0
BBX 5 7 0 0
BITMAP
08
58
70
20
70
D0
80
ENDCHAR
STARTCHAR HEAVY GREEK CROSS
ENCODING 10010
SWIDTH 480 0
DWIDTH 5 0
BBX 6 6 0 0
BITMAP
30
30
FC
FC
30
30
ENDCHAR
STARTCHAR OPEN CENTRE CROSS
ENCODING 10011
SWIDTH 480 0
DWIDTH 5 0
BBX 5 5 0 1
BITMAP
20
20
D8
20
20
ENDCHAR
STARTCHAR HEAVY OPEN CENTRE CROSS
ENCODING 10012
SWIDTH 480 0
DWIDTH 5 0
BBX 6 6 0 0
BITMAP
30
30
CC
CC
30
30
ENDCHAR
STARTCHAR LATIN CROSS
ENCODING 10013
SWIDTH 480 0
DWIDTH 5 0
BBX 5 6 0 0
BITMAP
20
20
F8
20
20
20
ENDCHAR
STARTCHAR SHADOWED WHITE LATIN CROSS
ENCODING 10014
SWIDTH 480 0
DWIDTH 5 0
BBX 6 7 0 0
BITMAP
30
30
FC
FC
30
30
30
ENDCHAR
STARTCHAR CIRCLED WHITE STAR
ENCODING 10026
SWIDTH 480 0
DWIDTH 5 0
BBX 7 8 -1 -1
BITMAP
7C
EE
EE
82
C6
BA
FE
7C
ENDCHAR
STARTCHAR OPEN CENTRE BLACK STAR
ENCODING 10027
SWIDTH 480 0
DWIDTH 5 0
BBX 5 5 0 2
BITMAP
20
20
D8
70
88
ENDCHAR
STARTCHAR EIGHT SPOKED ASTERISK
ENCODING 10035
SWIDTH 480 0
DWIDTH 5 0
BBX 5 7 0 -1
BITMAP
20
A8
70
F8
70
A8
20
ENDCHAR
STARTCHAR SIX POINTED BLACK STAR
ENCODING 10038
SWIDTH 480 0
DWIDTH 5 0
BBX 5 6 0 0
BITMAP
20
A8
70
70
A8
20
ENDCHAR
STARTCHAR LOWER RIGHT DROP-SHADOWED WHITE SQUARE
ENCODING 10063
SWIDTH 480 0
DWIDTH 5 0
BBX 6 6 0 1
BITMAP
F8
8C
8C
8C
FC
7C
ENDCHAR
STARTCHAR UPPER RIGHT DROP-SHADOWED WHITE SQUARE
ENCODING 10064
SWIDTH 480 0
DWIDTH 5 0
BBX 6 6 0 1
BITMAP
7C
FC
8C
8C
8C
F8
ENDCHAR
STARTCHAR LOWER RIGHT SHADOWED WHITE SQUARE
ENCODING 10065
SWIDTH 480 0
DWIDTH 5 0
BBX 6 6 0 1
BITMAP
F8
8C
8C
8C
FC
7C
ENDCHAR
STARTCHAR UPPER RIGHT SHADOWED WHITE SQUARE
ENCODING 10066
SWIDTH 480 0
DWIDTH 5 0
BBX 6 6 0 1
BITMAP
7C
FC
8C
8C
8C
F8
ENDCHAR
STARTCHAR char10075
ENCODING 10075
SWIDTH 480 0
DWIDTH 5 0
BBX 2 4 2 3
BITMAP
40
80
C0
C0
ENDCHAR
STARTCHAR char10076
ENCODING 10076
SWIDTH 480 0
DWIDTH 5 0
BBX 2 4 2 3
BITMAP
C0
C0
40
80
ENDCHAR
STARTCHAR char10077
ENCODING 10077
SWIDTH 480 0
DWIDTH 5 0
BBX 5 4 1 3
BITMAP
48
90
D8
D8
ENDCHAR
STARTCHAR char10078
ENCODING 10078
SWIDTH 480 0
DWIDTH 5 0
BBX 5 4 1 3
BITMAP
D8
D8
48
90
ENDCHAR
STARTCHAR HEAVY LOW DOUBLE COMMA QUOTATION MARK ORNAMENT
ENCODING 10080
SWIDTH 480 0
DWIDTH 5 0
BBX 5 4 0 -2
BITMAP
D8
D8
48
90
ENDCHAR
STARTCHAR HEAVY BLACK HEART
ENCODING 10084
SWIDTH 480 0
DWIDTH 5 0
BBX 7 6 0 0
BITMAP
6C
FE
FE
7C
38
10
ENDCHAR
STARTCHAR MEDIUM LEFT-POINTING ANGLE BRACKET ORNAMENT
ENCODING 10092
SWIDTH 480 0
DWIDTH 5 0
BBX 5 7 0 0
BITMAP
18
30
60
C0
60
30
18
ENDCHAR
STARTCHAR MEDIUM RIGHT-POINTING ANGLE BRACKET ORNAMENT
ENCODING 10093
SWIDTH 480 0
DWIDTH 5 0
BBX 5 7 0 0
BITMAP
C0
60
30
18
30
60
C0
ENDCHAR
STARTCHAR HEAVY LEFT-POINTING ANGLE QUOTATION MARK ORNAMENT
ENCODING 10094
SWIDTH 480 0
DWIDTH 5 0
BBX 6 8 0 -1
BITMAP
1C
38
70
E0
E0
70
38
1C
ENDCHAR
STARTCHAR HEAVY RIGHT-POINTING ANGLE QUOTATION MARK ORNAMENT
ENCODING 10095
SWIDTH 480 0
DWIDTH 5 0
BBX 6 8 0 -1
BITMAP
E0
70
38
1C
1C
38
70
E0
ENDCHAR
STARTCHAR HEAVY LEFT-POINTING ANGLE BRACKET ORNAMENT
ENCODING 10096
SWIDTH 480 0
DWIDTH 5 0
BBX 6 8 0 -1
BITMAP
3C
78
F0
E0
E0
F0
78
3C
ENDCHAR
STARTCHAR HEAVY RIGHT-POINTING ANGLE BRACKET ORNAMENT
ENCODING 10097
SWIDTH 480 0
DWIDTH 5 0
BBX 6 8 0 -1
BITMAP
F0
78
3C
1C
1C
3C
78
F0
ENDCHAR
STARTCHAR HEAVY RIGHT-POINTING ANGLE BRACKET ORNAMENT
ENCODING 10102
SWIDTH 480 0
DWIDTH 5 0
BBX 6 8 0 -1
BITMAP
F0
78
3C
1C
1C
3C
78
F0
ENDCHAR
STARTCHAR DINGBAT NEGATIVE CIRCLED SANS-SERIF DIGIT ONE
ENCODING 10122
SWIDTH 480 0
DWIDTH 5 0
BBX 6 8 0 -1
BITMAP
78
CC
EC
EC
EC
EC
C4
78
ENDCHAR
STARTCHAR DINGBAT NEGATIVE CIRCLED SANS-SERIF DIGIT TWO
ENCODING 10123
SWIDTH 480 0
DWIDTH 5 0
BBX 6 8 0 -1
BITMAP
78
CC
B4
F4
EC
DC
84
78
ENDCHAR
STARTCHAR DINGBAT NEGATIVE CIRCLED SANS-SERIF DIGIT THREE
ENCODING 10124
SWIDTH 480 0
DWIDTH 5 0
BBX 6 8 0 -1
BITMAP
78
8C
F4
CC
F4
F4
8C
78
ENDCHAR
STARTCHAR DINGBAT NEGATIVE CIRCLED SANS-SERIF DIGIT FOUR
ENCODING 10125
SWIDTH 480 0
DWIDTH 5 0
BBX 6 8 0 -1
BITMAP
78
E4
D4
B4
84
F4
F4
78
ENDCHAR
STARTCHAR DINGBAT NEGATIVE CIRCLED SANS-SERIF DIGIT FIVE
ENCODING 10126
SWIDTH 480 0
DWIDTH 5 0
BBX 6 8 0 -1
BITMAP
78
84
BC
8C
F4
F4
8C
78
ENDCHAR
STARTCHAR DINGBAT NEGATIVE CIRCLED SANS-SERIF DIGIT SIX
ENCODING 10127
SWIDTH 480 0
DWIDTH 5 0
BBX 6 8 0 -1
BITMAP
78
CC
BC
8C
B4
B4
CC
78
ENDCHAR
STARTCHAR DINGBAT NEGATIVE CIRCLED SANS-SERIF DIGIT SEVEN
ENCODING 10128
SWIDTH 480 0
DWIDTH 5 0
BBX 6 8 0 -1
BITMAP
78
84
F4
EC
EC
DC
DC
78
ENDCHAR
STARTCHAR DINGBAT NEGATIVE CIRCLED SANS-SERIF DIGIT EIGHT
ENCODING 10129
SWIDTH 480 0
DWIDTH 5 0
BBX 6 8 0 -1
BITMAP
78
CC
B4
CC
B4
B4
CC
78
ENDCHAR
STARTCHAR DINGBAT NEGATIVE CIRCLED SANS-SERIF DIGIT NINE
ENCODING 10130
SWIDTH 480 0
DWIDTH 5 0
BBX 6 8 0 -1
BITMAP
78
CC
B4
B4
C4
F4
CC
78
ENDCHAR
STARTCHAR DINGBAT NEGATIVE CIRCLED SANS-SERIF NUMBER TEN
ENCODING 10131
SWIDTH 480 0
DWIDTH 5 0
BBX 7 8 0 -1
BITMAP
7C
B6
AA
AA
AA
AA
B6
7C
ENDCHAR
STARTCHAR HEAVY WIDE-HEADED RIGHTWARDS ARROW
ENCODING 10132
SWIDTH 480 0
DWIDTH 5 0
BBX 5 5 0 0
BITMAP
20
10
F8
10
20
ENDCHAR
STARTCHAR HEAVY PLUS SIGN
ENCODING 10133
SWIDTH 480 0
DWIDTH 5 0
BBX 6 6 0 0
BITMAP
30
30
FC
FC
30
30
ENDCHAR
STARTCHAR HEAVY MINUS SIGN
ENCODING 10134
SWIDTH 480 0
DWIDTH 5 0
BBX 6 2 0 2
BITMAP
FC
FC
ENDCHAR
STARTCHAR HEAVY DIVISION SIGN
ENCODING 10135
SWIDTH 480 0
DWIDTH 5 0
BBX 6 6 0 0
BITMAP
30
00
FC
FC
00
30
ENDCHAR
STARTCHAR HEAVY SOUTH EAST ARROW
ENCODING 10136
SWIDTH 480 0
DWIDTH 5 0
BBX 5 5 0 0
BITMAP
80
40
28
18
38
ENDCHAR
STARTCHAR HEAVY RIGHTWARDS ARROW
ENCODING 10137
SWIDTH 480 0
DWIDTH 5 0
BBX 5 3 0 1
BITMAP
10
F8
10
ENDCHAR
STARTCHAR HEAVY NORTH EAST ARROW
ENCODING 10138
SWIDTH 480 0
DWIDTH 5 0
BBX 5 5 0 0
BITMAP
38
18
28
40
80
ENDCHAR
STARTCHAR DRAFTING POINT RIGHTWARDS ARROW
ENCODING 10139
SWIDTH 480 0
DWIDTH 5 0
BBX 8 5 -2 0
BITMAP
10
0C
FF
0C
10
ENDCHAR
STARTCHAR char11104
ENCODING 11104
SWIDTH 480 0
DWIDTH 5 0
BBX 6 8 0 -1
BITMAP
C8
DC
C8
C8
D0
E0
C0
C0
ENDCHAR
STARTCHAR char11105
ENCODING 11105
SWIDTH 480 0
DWIDTH 5 0
BBX 4 9 1 -1
BITMAP
80
80
80
F0
00
90
D0
B0
90
ENDCHAR
STARTCHAR char11106
ENCODING 11106
SWIDTH 480 0
DWIDTH 5 0
BBX 6 8 0 -1
BITMAP
3C
40
4C
4C
40
4C
44
60
ENDCHAR
STARTCHAR char11107
ENCODING 11107
SWIDTH 480 0
DWIDTH 5 0
BBX 6 8 0 -1
BITMAP
F8
04
98
90
90
90
90
60
ENDCHAR
STARTCHAR char11108
ENCODING 11108
SWIDTH 480 0
DWIDTH 5 0
BBX 6 9 0 -1
BITMAP
30
48
48
48
FC
CC
CC
FC
78
ENDCHAR
STARTCHAR char11136
ENCODING 11136
SWIDTH 480 0
DWIDTH 5 0
BBX 5 9 0 -1
BITMAP
80
C0
E0
F0
F8
F0
E0
C0
80
ENDCHAR
STARTCHAR char11137
ENCODING 11137
SWIDTH 480 0
DWIDTH 5 0
BBX 5 9 0 -1
BITMAP
80
40
20
10
08
10
20
40
80
ENDCHAR
STARTCHAR char11138
ENCODING 11138
SWIDTH 480 0
DWIDTH 5 0
BBX 5 9 0 -1
BITMAP
08
18
38
78
F8
78
38
18
08
ENDCHAR
STARTCHAR char11139
ENCODING 11139
SWIDTH 480 0
DWIDTH 5 0
BBX 5 9 1 -1
BITMAP
08
10
20
40
80
40
20
10
08
ENDCHAR
STARTCHAR char11140
ENCODING 11140
SWIDTH 480 0
DWIDTH 5 0
BBX 5 8 0 -1
BITMAP
18
38
78
F8
F8
78
38
18
ENDCHAR
STARTCHAR char11141
ENCODING 11141
SWIDTH 480 0
DWIDTH 5 0
BBX 5 8 0 -1
BITMAP
C0
E0
F0
F8
F8
F0
E0
C0
ENDCHAR
STARTCHAR char11150
ENCODING 11150
SWIDTH 480 0
DWIDTH 5 0
BBX 5 8 1 -1
BITMAP
20
F8
A8
88
88
D8
D8
F8
ENDCHAR
STARTCHAR char11151
ENCODING 11151
SWIDTH 480 0
DWIDTH 5 0
BBX 5 8 1 -1
BITMAP
20
F8
88
A8
A8
A8
88
F8
ENDCHAR
STARTCHAR char1480
ENCODING 1480
SWIDTH 480 0
DWIDTH 5 0
BBX 5 8 1 -1
BITMAP
20
F8
88
88
88
88
88
F8
ENDCHAR
STARTCHAR char11153
ENCODING 11153
SWIDTH 480 0
DWIDTH 5 0
BBX 5 8 1 -1
BITMAP
20
F8
88
88
A8
A8
88
F8
ENDCHAR
STARTCHAR char11154
ENCODING 11154
SWIDTH 480 0
DWIDTH 5 0
BBX 5 8 1 -1
BITMAP
20
F8
E8
D8
88
D8
B8
F8
ENDCHAR
STARTCHAR char11155
ENCODING 11155
SWIDTH 480 0
DWIDTH 5 0
BBX 4 7 1 -1
BITMAP
80
C0
E0
F0
E0
C0
80
ENDCHAR
STARTCHAR char11156
ENCODING 11156
SWIDTH 480 0
DWIDTH 5 0
BBX 5 7 1 -1
BITMAP
D8
D8
D8
D8
D8
D8
D8
ENDCHAR
STARTCHAR char11157
ENCODING 11157
SWIDTH 480 0
DWIDTH 5 0
BBX 6 6 0 0
BITMAP
7C
44
44
44
CC
CC
ENDCHAR
STARTCHAR char11158
ENCODING 11158
SWIDTH 480 0
DWIDTH 5 0
BBX 6 6 0 0
BITMAP
78
DC
DC
C4
FC
78
ENDCHAR
STARTCHAR char11159
ENCODING 11159
SWIDTH 480 0
DWIDTH 5 0
BBX 5 7 0 0
BITMAP
20
20
70
70
50
D8
88
ENDCHAR
STARTCHAR char11160
ENCODING 11160
SWIDTH 480 0
DWIDTH 5 0
BBX 6 6 0 0
BITMAP
EC
EC
EC
E0
EC
EC
ENDCHAR
STARTCHAR char11161
ENCODING 11161
SWIDTH 480 0
DWIDTH 5 0
BBX 6 6 0 0
BITMAP
DC
DC
DC
1C
DC
DC
ENDCHAR
STARTCHAR char11162
ENCODING 11162
SWIDTH 480 0
DWIDTH 5 0
BBX 6 6 0 0
BITMAP
FC
FC
FC
00
EC
EC
ENDCHAR
STARTCHAR char11163
ENCODING 11163
SWIDTH 480 0
DWIDTH 5 0
BBX 6 6 0 0
BITMAP
F0
F0
F4
F4
04
3C
ENDCHAR
STARTCHAR char11164
ENCODING 11164
SWIDTH 480 0
DWIDTH 5 0
BBX 5 6 1 0
BITMAP
70
88
88
88
D8
50
ENDCHAR
STARTCHAR char11165
ENCODING 11165
SWIDTH 480 0
DWIDTH 5 0
BBX 6 6 0 0
BITMAP
90
50
A0
D0
38
14
ENDCHAR
STARTCHAR char11166
ENCODING 11166
SWIDTH 480 0
DWIDTH 5 0
BBX 6 6 0 0
BITMAP
10
34
F4
F4
34
10
ENDCHAR
STARTCHAR char11167
ENCODING 11167
SWIDTH 480 0
DWIDTH 5 0
BBX 4 6 0 0
BITMAP
10
30
F0
F0
30
10
ENDCHAR
STARTCHAR char11168
ENCODING 11168
SWIDTH 480 0
DWIDTH 5 0
BBX 5 5 1 0
BITMAP
50
F8
F8
70
20
ENDCHAR
STARTCHAR char11169
ENCODING 11169
SWIDTH 480 0
DWIDTH 5 0
BBX 6 6 0 0
BITMAP
54
00
7C
7C
00
54
ENDCHAR
STARTCHAR char11170
ENCODING 11170
SWIDTH 480 0
DWIDTH 5 0
BBX 5 5 1 0
BITMAP
70
D8
F8
C0
70
ENDCHAR
STARTCHAR char11171
ENCODING 11171
SWIDTH 480 0
DWIDTH 5 0
BBX 5 5 1 0
BITMAP
F8
70
A8
D8
F8
ENDCHAR
STARTCHAR char11172
ENCODING 11172
SWIDTH 480 0
DWIDTH 5 0
BBX 6 6 0 0
BITMAP
FC
84
84
BC
AC
7C
ENDCHAR
STARTCHAR char11173
ENCODING 11173
SWIDTH 480 0
DWIDTH 5 0
BBX 7 7 -1 -1
BITMAP
64
BA
7E
6C
FC
BA
4C
ENDCHAR
STARTCHAR char11174
ENCODING 11174
SWIDTH 480 0
DWIDTH 5 0
BBX 7 7 0 -1
BITMAP
D6
82
38
BA
38
82
D6
ENDCHAR
STARTCHAR char11175
ENCODING 11175
SWIDTH 480 0
DWIDTH 5 0
BBX 7 5 0 0
BITMAP
36
36
00
36
36
ENDCHAR
STARTCHAR char11176
ENCODING 11176
SWIDTH 480 0
DWIDTH 5 0
BBX 6 6 0 0
BITMAP
EC
E0
EC
E0
EC
EC
ENDCHAR
STARTCHAR char11177
ENCODING 11177
SWIDTH 480 0
DWIDTH 5 0
BBX 6 6 0 0
BITMAP
FC
BC
DC
A4
FC
FC
ENDCHAR
STARTCHAR char11178
ENCODING 11178
SWIDTH 480 0
DWIDTH 5 0
BBX 5 7 1 -1
BITMAP
70
50
50
F8
D8
F8
70
ENDCHAR
STARTCHAR char11179
ENCODING 11179
SWIDTH 480 0
DWIDTH 5 0
BBX 4 1 0 3
BITMAP
F0
ENDCHAR
STARTCHAR char11180
ENCODING 11180
SWIDTH 480 0
DWIDTH 5 0
BBX 4 3 0 2
BITMAP
F0
00
F0
ENDCHAR
STARTCHAR char11181
ENCODING 11181
SWIDTH 480 0
DWIDTH 5 0
BBX 5 5 0 1
BITMAP
F8
00
70
00
F8
ENDCHAR
STARTCHAR char11182
ENCODING 11182
SWIDTH 480 0
DWIDTH 5 0
BBX 5 5 0 1
BITMAP
F8
A8
F8
88
F8
ENDCHAR
STARTCHAR char11183
ENCODING 11183
SWIDTH 480 0
DWIDTH 5 0
BBX 5 5 0 1
BITMAP
F0
40
70
50
F8
ENDCHAR
STARTCHAR char11184
ENCODING 11184
SWIDTH 480 0
DWIDTH 5 0
BBX 6 4 0 0
BITMAP
7C
28
28
28
ENDCHAR
STARTCHAR char11185
ENCODING 11185
SWIDTH 480 0
DWIDTH 5 0
BBX 4 5 2 0
BITMAP
50
A0
00
50
A0
ENDCHAR
STARTCHAR char11186
ENCODING 11186
SWIDTH 480 0
DWIDTH 5 0
BBX 6 7 1 -1
BITMAP
84
C4
E4
F4
E4
C4
84
ENDCHAR
STARTCHAR char11187
ENCODING 11187
SWIDTH 480 0
DWIDTH 5 0
BBX 6 7 1 -1
BITMAP
84
8C
9C
BC
9C
8C
84
ENDCHAR
STARTCHAR char11188
ENCODING 11188
SWIDTH 480 0
DWIDTH 5 0
BBX 7 8 0 -1
BITMAP
10
38
7C
FE
38
38
38
70
ENDCHAR
STARTCHAR char11189
ENCODING 11189
SWIDTH 480 0
DWIDTH 5 0
BBX 7 8 0 -1
BITMAP
1C
38
38
38
FE
7C
38
10
ENDCHAR
STARTCHAR 3021
ENCODING 12321
SWIDTH 480 0
DWIDTH 5 0
BBX 8 8 0 -1
BITMAP
FF
14
7F
55
55
7F
14
FF
ENDCHAR
STARTCHAR 3022
ENCODING 12322
SWIDTH 480 0
DWIDTH 5 0
BBX 8 8 0 -1
BITMAP
1F
EA
BF
BB
BB
FF
0A
1F
ENDCHAR
STARTCHAR 3023
ENCODING 12323
SWIDTH 480 0
DWIDTH 5 0
BBX 8 8 0 -1
BITMAP
44
4E
E4
7F
A4
CE
64
9F
ENDCHAR
STARTCHAR 3024
ENCODING 12324
SWIDTH 480 0
DWIDTH 5 0
BBX 8 8 0 -1
BITMAP
FF
A1
DD
B5
B5
DD
81
83
ENDCHAR
STARTCHAR 3025
ENCODING 12325
SWIDTH 480 0
DWIDTH 5 0
BBX 8 8 0 -1
BITMAP
08
FF
3E
22
3E
6A
A4
33
ENDCHAR
STARTCHAR 3026
ENCODING 12326
SWIDTH 480 0
DWIDTH 5 0
BBX 8 8 0 -1
BITMAP
7F
2A
FF
A9
5E
64
18
E7
ENDCHAR
STARTCHAR 3027
ENCODING 12327
SWIDTH 480 0
DWIDTH 5 0
BBX 8 8 0 -1
BITMAP
44
E9
5F
4E
74
DF
44
5B
ENDCHAR
STARTCHAR 3028
ENCODING 12328
SWIDTH 480 0
DWIDTH 5 0
BBX 8 8 0 -1
BITMAP
26
29
F0
5F
50
6F
39
CF
ENDCHAR
STARTCHAR 3029
ENCODING 12329
SWIDTH 480 0
DWIDTH 5 0
BBX 8 8 0 -1
BITMAP
8E
5A
04
DB
44
5F
44
BF
ENDCHAR
STARTCHAR 302a
ENCODING 12330
SWIDTH 480 0
DWIDTH 5 0
BBX 8 8 0 -1
BITMAP
24
FF
75
22
DD
3E
08
F7
ENDCHAR
STARTCHAR 302b
ENCODING 12331
SWIDTH 480 0
DWIDTH 5 0
BBX 8 8 0 -1
BITMAP
14
FF
14
7F
55
67
41
7F
ENDCHAR
STARTCHAR 302c
ENCODING 12332
SWIDTH 480 0
DWIDTH 5 0
BBX 8 8 0 -1
BITMAP
26
CA
4F
ED
5F
F5
DF
47
ENDCHAR
STARTCHAR 302d
ENCODING 12333
SWIDTH 480 0
DWIDTH 5 0
BBX 8 8 0 -1
BITMAP
FF
28
FF
A9
FF
2A
A5
9D
ENDCHAR
STARTCHAR 302e
ENCODING 12334
SWIDTH 480 0
DWIDTH 5 0
BBX 8 8 0 -1
BITMAP
5F
F1
5F
52
7D
DE
54
6F
ENDCHAR
STARTCHAR 302f
ENCODING 12335
SWIDTH 480 0
DWIDTH 5 0
BBX 8 8 0 -1
BITMAP
9F
51
9F
52
1D
5E
54
AF
ENDCHAR
STARTCHAR 3030
ENCODING 12336
SWIDTH 480 0
DWIDTH 5 0
BBX 8 8 0 -1
BITMAP
47
45
F7
55
55
57
50
8F
ENDCHAR
STARTCHAR 3031
ENCODING 12337
SWIDTH 480 0
DWIDTH 5 0
BBX 8 8 0 -1
BITMAP
24
FF
3C
14
7F
24
FF
04
ENDCHAR
STARTCHAR 3032
ENCODING 12338
SWIDTH 480 0
DWIDTH 5 0
BBX 8 8 0 -1
BITMAP
24
FF
24
7E
42
7E
40
80
ENDCHAR
STARTCHAR 3033
ENCODING 12339
SWIDTH 480 0
DWIDTH 5 0
BBX 8 8 0 -1
BITMAP
4A
9D
FF
AA
B5
E8
02
AC
ENDCHAR
STARTCHAR 3034
ENCODING 12340
SWIDTH 480 0
DWIDTH 5 0
BBX 8 8 0 -1
BITMAP
44
FF
4A
FF
C4
5F
44
44
ENDCHAR
STARTCHAR 3035
ENCODING 12341
SWIDTH 480 0
DWIDTH 5 0
BBX 8 8 0 -1
BITMAP
7F
44
44
5F
44
44
44
BF
ENDCHAR
STARTCHAR 3036
ENCODING 12342
SWIDTH 480 0
DWIDTH 5 0
BBX 8 8 0 -1
BITMAP
26
F9
20
7A
5A
73
FE
22
ENDCHAR
STARTCHAR 3037
ENCODING 12343
SWIDTH 480 0
DWIDTH 5 0
BBX 8 8 0 -1
BITMAP
4F
E9
4A
4F
69
CD
52
6D
ENDCHAR
STARTCHAR 3038
ENCODING 12344
SWIDTH 480 0
DWIDTH 5 0
BBX 8 8 0 -1
BITMAP
08
FF
81
77
55
F5
24
C7
ENDCHAR
STARTCHAR 3039
ENCODING 12345
SWIDTH 480 0
DWIDTH 5 0
BBX 8 8 0 -1
BITMAP
27
25
FF
55
57
65
35
CF
ENDCHAR
STARTCHAR 303a
ENCODING 12346
SWIDTH 480 0
DWIDTH 5 0
BBX 8 8 0 -1
BITMAP
44
44
FF
A8
E8
48
68
CF
ENDCHAR
STARTCHAR 303b
ENCODING 12347
SWIDTH 480 0
DWIDTH 5 0
BBX 8 8 0 -1
BITMAP
44
A4
09
EF
A0
EF
89
EF
ENDCHAR
STARTCHAR 303c
ENCODING 12348
SWIDTH 480 0
DWIDTH 5 0
BBX 8 8 0 -1
BITMAP
48
AF
51
9D
F5
5D
F5
5D
ENDCHAR
STARTCHAR 303d
ENCODING 12349
SWIDTH 480 0
DWIDTH 5 0
BBX 8 8 0 -1
BITMAP
44
BF
44
9F
EA
53
EC
53
ENDCHAR
STARTCHAR 303e
ENCODING 12350
SWIDTH 480 0
DWIDTH 5 0
BBX 8 8 0 -1
BITMAP
64
A7
74
54
5F
79
09
BF
ENDCHAR
STARTCHAR 303f
ENCODING 12351
SWIDTH 480 0
DWIDTH 5 0
BBX 8 8 0 -1
BITMAP
05
FF
04
74
55
72
02
F5
ENDCHAR
STARTCHAR 3040
ENCODING 12352
SWIDTH 480 0
DWIDTH 5 0
BBX 8 8 0 -1
BITMAP
FF
7F
55
7F
2A
FF
2A
C9
ENDCHAR
STARTCHAR 3041
ENCODING 12353
SWIDTH 480 0
DWIDTH 5 0
BBX 8 8 0 -1
BITMAP
4C
F2
21
5E
E0
7E
52
5E
ENDCHAR
STARTCHAR 3042
ENCODING 12354
SWIDTH 480 0
DWIDTH 5 0
BBX 8 8 0 -1
BITMAP
08
FF
91
FF
14
24
18
F7
ENDCHAR
STARTCHAR 3043
ENCODING 12355
SWIDTH 480 0
DWIDTH 5 0
BBX 8 8 0 -1
BITMAP
08
7F
52
69
5E
5A
5E
8F
ENDCHAR
STARTCHAR 3044
ENCODING 12356
SWIDTH 480 0
DWIDTH 5 0
BBX 8 8 0 -1
BITMAP
44
FF
51
44
7F
CA
46
5D
ENDCHAR
STARTCHAR 3045
ENCODING 12357
SWIDTH 480 0
DWIDTH 5 0
BBX 8 8 0 -1
BITMAP
04
FF
AA
FF
A0
AE
EA
0E
ENDCHAR
STARTCHAR 3046
ENCODING 12358
SWIDTH 480 0
DWIDTH 5 0
BBX 8 8 0 -1
BITMAP
08
FF
91
7E
2C
FF
2A
C9
ENDCHAR
STARTCHAR 3047
ENCODING 12359
SWIDTH 480 0
DWIDTH 5 0
BBX 8 8 0 -1
BITMAP
E7
E7
89
BF
95
FF
A5
BD
ENDCHAR
STARTCHAR 3048
ENCODING 12360
SWIDTH 480 0
DWIDTH 5 0
BBX 8 8 0 -1
BITMAP
A4
FF
51
E4
FF
4A
E6
5D
ENDCHAR
STARTCHAR 3049
ENCODING 12361
SWIDTH 480 0
DWIDTH 5 0
BBX 8 8 0 -1
BITMAP
08
FF
1C
2A
C9
3E
22
3E
ENDCHAR
STARTCHAR 304a
ENCODING 12362
SWIDTH 480 0
DWIDTH 5 0
BBX 8 8 0 -1
BITMAP
42
52
4A
4A
42
52
65
89
ENDCHAR
STARTCHAR 304b
ENCODING 12363
SWIDTH 480 0
DWIDTH 5 0
BBX 8 8 0 -1
BITMAP
3F
45
DF
45
5F
44
44
58
ENDCHAR
STARTCHAR 304c
ENCODING 12364
SWIDTH 480 0
DWIDTH 5 0
BBX 8 8 0 -1
BITMAP
24
5F
C2
4A
4A
4A
44
5F
ENDCHAR
STARTCHAR 304d
ENCODING 12365
SWIDTH 480 0
DWIDTH 5 0
BBX 8 8 0 -1
BITMAP
24
5F
C8
54
75
52
52
59
ENDCHAR
STARTCHAR 304e
ENCODING 12366
SWIDTH 480 0
DWIDTH 5 0
BBX 8 8 0 -1
BITMAP
2E
4A
DF
52
5E
54
7F
44
ENDCHAR
STARTCHAR 304f
ENCODING 12367
SWIDTH 480 0
DWIDTH 5 0
BBX 8 8 0 -1
BITMAP
FF
95
BF
95
BF
95
A5
FF
ENDCHAR
STARTCHAR 3050
ENCODING 12368
SWIDTH 480 0
DWIDTH 5 0
BBX 8 8 0 -1
BITMAP
08
FF
0A
7E
48
7F
15
E3
ENDCHAR
STARTCHAR 3051
ENCODING 12369
SWIDTH 480 0
DWIDTH 5 0
BBX 8 8 0 -1
BITMAP
7E
08
FF
2A
C9
FF
14
3F
ENDCHAR
STARTCHAR 3052
ENCODING 12370
SWIDTH 480 0
DWIDTH 5 0
BBX 8 8 0 -1
BITMAP
05
7F
7C
54
7D
6A
52
AD
ENDCHAR
STARTCHAR 3053
ENCODING 12371
SWIDTH 480 0
DWIDTH 5 0
BBX 8 8 0 -1
BITMAP
F2
92
FF
82
FA
A2
F2
A6
ENDCHAR
STARTCHAR 3054
ENCODING 12372
SWIDTH 480 0
DWIDTH 5 0
BBX 8 8 0 -1
BITMAP
4A
4F
FA
CF
4A
4F
4A
4F
ENDCHAR
STARTCHAR 3055
ENCODING 12373
SWIDTH 480 0
DWIDTH 5 0
BBX 8 8 0 -1
BITMAP
08
FF
14
FF
22
3E
AA
9D
ENDCHAR
STARTCHAR 3056
ENCODING 12374
SWIDTH 480 0
DWIDTH 5 0
BBX 8 8 0 -1
BITMAP
79
7F
55
79
93
20
AA
9D
ENDCHAR
STARTCHAR 3057
ENCODING 12375
SWIDTH 480 0
DWIDTH 5 0
BBX 8 8 0 -1
BITMAP
7E
42
7E
20
7F
95
29
52
ENDCHAR
STARTCHAR 3058
ENCODING 12376
SWIDTH 480 0
DWIDTH 5 0
BBX 8 8 0 -1
BITMAP
44
FF
4A
F1
DF
55
5D
43
ENDCHAR
STARTCHAR 3059
ENCODING 12377
SWIDTH 480 0
DWIDTH 5 0
BBX 8 8 0 -1
BITMAP
28
7C
14
3E
22
7F
81
55
ENDCHAR
STARTCHAR 305a
ENCODING 12378
SWIDTH 480 0
DWIDTH 5 0
BBX 8 8 0 -1
BITMAP
7E
4A
7E
4A
FF
4A
64
C3
ENDCHAR
STARTCHAR 305b
ENCODING 12379
SWIDTH 480 0
DWIDTH 5 0
BBX 8 8 0 -1
BITMAP
7E
4A
7E
7E
24
FF
24
C3
ENDCHAR
STARTCHAR 305c
ENCODING 12380
SWIDTH 480 0
DWIDTH 5 0
BBX 8 8 0 -1
BITMAP
17
ED
22
FC
27
7D
A2
2C
ENDCHAR
STARTCHAR 305d
ENCODING 12381
SWIDTH 480 0
DWIDTH 5 0
BBX 8 8 0 -1
BITMAP
4A
AF
5A
8F
EA
4F
EA
4F
ENDCHAR
STARTCHAR 305e
ENCODING 12382
SWIDTH 480 0
DWIDTH 5 0
BBX 8 8 0 -1
BITMAP
4E
AA
5F
92
FE
54
FF
44
ENDCHAR
STARTCHAR 305f
ENCODING 12383
SWIDTH 480 0
DWIDTH 5 0
BBX 8 8 0 -1
BITMAP
7F
49
7F
49
7F
22
3E
22
ENDCHAR
STARTCHAR 3060
ENCODING 12384
SWIDTH 480 0
DWIDTH 5 0
BBX 8 8 0 -1
BITMAP
24
FF
7F
2A
C9
FF
14
3F
ENDCHAR
STARTCHAR 3061
ENCODING 12385
SWIDTH 480 0
DWIDTH 5 0
BBX 8 8 0 -1
BITMAP
08
FF
10
21
6A
A4
22
31
ENDCHAR
STARTCHAR 3062
ENCODING 12386
SWIDTH 480 0
DWIDTH 5 0
BBX 8 8 0 -1
BITMAP
5F
F5
1F
F5
1F
EA
AE
EA
ENDCHAR
STARTCHAR 3063
ENCODING 12387
SWIDTH 480 0
DWIDTH 5 0
BBX 8 8 0 -1
BITMAP
84
4F
05
DF
4A
5F
42
BF
ENDCHAR
STARTCHAR 3064
ENCODING 12388
SWIDTH 480 0
DWIDTH 5 0
BBX 8 8 0 -1
BITMAP
84
5E
16
FF
4A
4E
5A
BF
ENDCHAR
STARTCHAR 3065
ENCODING 12389
SWIDTH 480 0
DWIDTH 5 0
BBX 8 8 0 -1
BITMAP
FF
A0
BE
C8
BE
94
E2
FF
ENDCHAR
STARTCHAR 3066
ENCODING 12390
SWIDTH 480 0
DWIDTH 5 0
BBX 8 8 0 -1
BITMAP
24
24
FF
24
24
FF
24
44
ENDCHAR
STARTCHAR 3067
ENCODING 12391
SWIDTH 480 0
DWIDTH 5 0
BBX 8 8 0 -1
BITMAP
08
FF
10
64
1A
74
0A
F1
ENDCHAR
STARTCHAR 3068
ENCODING 12392
SWIDTH 480 0
DWIDTH 5 0
BBX 8 8 0 -1
BITMAP
45
5F
E4
5C
54
7D
C2
1D
ENDCHAR
STARTCHAR 3069
ENCODING 12393
SWIDTH 480 0
DWIDTH 5 0
BBX 8 8 0 -1
BITMAP
08
FF
12
7D
3E
22
3E
22
ENDCHAR
STARTCHAR 306a
ENCODING 12394
SWIDTH 480 0
DWIDTH 5 0
BBX 8 8 0 -1
BITMAP
47
F5
46
75
D5
75
56
54
ENDCHAR
STARTCHAR 306b
ENCODING 12395
SWIDTH 480 0
DWIDTH 5 0
BBX 8 8 0 -1
BITMAP
E9
52
49
72
FF
6B
72
05
ENDCHAR
STARTCHAR 306c
ENCODING 12396
SWIDTH 480 0
DWIDTH 5 0
BBX 8 1 0 3
BITMAP
FF
ENDCHAR
STARTCHAR 306d
ENCODING 12397
SWIDTH 480 0
DWIDTH 5 0
BBX 8 8 0 -1
BITMAP
08
7F
08
FF
A1
3C
20
3E
ENDCHAR
STARTCHAR 306e
ENCODING 12398
SWIDTH 480 0
DWIDTH 5 0
BBX 8 8 0 -1
BITMAP
91
4A
9F
4A
11
4E
4A
9F
ENDCHAR
STARTCHAR 306f
ENCODING 12399
SWIDTH 480 0
DWIDTH 5 0
BBX 8 8 0 -1
BITMAP
8C
54
1F
D5
5F
4C
57
BF
ENDCHAR
STARTCHAR 3070
ENCODING 12400
SWIDTH 480 0
DWIDTH 5 0
BBX 8 8 0 -1
BITMAP
27
D8
4B
F7
55
F7
D5
57
ENDCHAR
STARTCHAR 3071
ENCODING 12401
SWIDTH 480 0
DWIDTH 5 0
BBX 8 8 0 -1
BITMAP
24
FF
24
88
4F
15
44
9B
ENDCHAR
STARTCHAR 3072
ENCODING 12402
SWIDTH 480 0
DWIDTH 5 0
BBX 8 8 0 -1
BITMAP
24
FF
24
7E
08
FF
08
18
ENDCHAR
STARTCHAR 3073
ENCODING 12403
SWIDTH 480 0
DWIDTH 5 0
BBX 8 8 0 -1
BITMAP
5B
89
F2
BB
A9
FB
09
B2
ENDCHAR
STARTCHAR 3074
ENCODING 12404
SWIDTH 480 0
DWIDTH 5 0
BBX 8 8 0 -1
BITMAP
10
24
FE
29
28
28
49
8F
ENDCHAR
STARTCHAR 3075
ENCODING 12405
SWIDTH 480 0
DWIDTH 5 0
BBX 8 8 0 -1
BITMAP
20
CF
89
E9
89
EF
88
08
ENDCHAR
STARTCHAR 3076
ENCODING 12406
SWIDTH 480 0
DWIDTH 5 0
BBX 8 8 0 -1
BITMAP
1F
F5
BF
B5
B5
FB
11
1F
ENDCHAR
STARTCHAR 3077
ENCODING 12407
SWIDTH 480 0
DWIDTH 5 0
BBX 8 8 0 -1
BITMAP
3C
24
7E
42
7E
42
7E
E3
ENDCHAR
STARTCHAR 3078
ENCODING 12408
SWIDTH 480 0
DWIDTH 5 0
BBX 8 8 0 -1
BITMAP
FF
89
FF
89
95
E3
81
FF
ENDCHAR
STARTCHAR 3079
ENCODING 12409
SWIDTH 480 0
DWIDTH 5 0
BBX 8 8 0 -1
BITMAP
5F
55
FF
75
B5
DB
71
9F
ENDCHAR
STARTCHAR 307a
ENCODING 12410
SWIDTH 480 0
DWIDTH 5 0
BBX 8 8 0 -1
BITMAP
F2
12
F2
82
F2
12
12
E2
ENDCHAR
STARTCHAR 307b
ENCODING 12411
SWIDTH 480 0
DWIDTH 5 0
BBX 8 8 0 -1
BITMAP
48
A8
0F
F5
A4
E4
8A
F1
ENDCHAR
STARTCHAR 307c
ENCODING 12412
SWIDTH 480 0
DWIDTH 5 0
BBX 8 8 0 -1
BITMAP
87
58
95
5F
04
5F
44
9F
ENDCHAR
STARTCHAR 307d
ENCODING 12413
SWIDTH 480 0
DWIDTH 5 0
BBX 8 8 0 -1
BITMAP
4A
52
7E
42
5E
56
5E
97
ENDCHAR
STARTCHAR 307e
ENCODING 12414
SWIDTH 480 0
DWIDTH 5 0
BBX 8 8 0 -1
BITMAP
24
FF
E4
BB
C4
BF
CA
9D
ENDCHAR
STARTCHAR 3121
ENCODING 12577
SWIDTH 480 0
DWIDTH 5 0
BBX 8 8 0 -1
BITMAP
E4
BF
D1
AE
A0
DF
8A
93
ENDCHAR
STARTCHAR 3122
ENCODING 12578
SWIDTH 480 0
DWIDTH 5 0
BBX 8 8 0 -1
BITMAP
E4
AA
D5
AE
A2
DF
8A
9D
ENDCHAR
STARTCHAR 3123
ENCODING 12579
SWIDTH 480 0
DWIDTH 5 0
BBX 8 8 0 -1
BITMAP
E1
BE
CA
AF
A1
CF
8D
97
ENDCHAR
STARTCHAR 3124
ENCODING 12580
SWIDTH 480 0
DWIDTH 5 0
BBX 8 8 0 -1
BITMAP
26
FE
57
FD
07
75
57
7D
ENDCHAR
STARTCHAR 3125
ENCODING 12581
SWIDTH 480 0
DWIDTH 5 0
BBX 8 8 0 -1
BITMAP
02
E2
BF
A2
AA
E2
02
06
ENDCHAR
STARTCHAR 3126
ENCODING 12582
SWIDTH 480 0
DWIDTH 5 0
BBX 8 8 0 -1
BITMAP
10
10
FF
20
7E
A2
22
3E
ENDCHAR
STARTCHAR 3127
ENCODING 12583
SWIDTH 480 0
DWIDTH 5 0
BBX 8 8 0 -1
BITMAP
08
FF
81
7E
08
FF
08
18
ENDCHAR
STARTCHAR 3128
ENCODING 12584
SWIDTH 480 0
DWIDTH 5 0
BBX 8 8 0 -1
BITMAP
10
3E
22
3F
20
3F
01
AB
ENDCHAR
STARTCHAR 3129
ENCODING 12585
SWIDTH 480 0
DWIDTH 5 0
BBX 8 8 0 -1
BITMAP
FF
11
D5
11
33
DD
11
33
ENDCHAR
STARTCHAR 312a
ENCODING 12586
SWIDTH 480 0
DWIDTH 5 0
BBX 8 8 0 -1
BITMAP
9F
44
04
DF
44
44
4C
BF
ENDCHAR
STARTCHAR 312b
ENCODING 12587
SWIDTH 480 0
DWIDTH 5 0
BBX 8 8 0 -1
BITMAP
FF
08
FF
89
EB
89
EB
89
ENDCHAR
STARTCHAR 312c
ENCODING 12588
SWIDTH 480 0
DWIDTH 5 0
BBX 8 8 0 -1
BITMAP
10
67
55
55
55
F7
14
24
ENDCHAR
STARTCHAR 312d
ENCODING 12589
SWIDTH 480 0
DWIDTH 5 0
BBX 8 8 0 -1
BITMAP
52
FF
2D
FF
A4
FF
69
AD
ENDCHAR
STARTCHAR 312e
ENCODING 12590
SWIDTH 480 0
DWIDTH 5 0
BBX 8 8 0 -1
BITMAP
08
FF
A5
4E
EA
EE
4D
B7
ENDCHAR
STARTCHAR 312f
ENCODING 12591
SWIDTH 480 0
DWIDTH 5 0
BBX 8 8 0 -1
BITMAP
7E
12
12
7F
12
12
22
FF
ENDCHAR
STARTCHAR 3130
ENCODING 12592
SWIDTH 480 0
DWIDTH 5 0
BBX 8 8 0 -1
BITMAP
EA
4F
5A
6F
EA
6F
6A
0F
ENDCHAR
STARTCHAR 3131
ENCODING 12593
SWIDTH 480 0
DWIDTH 5 0
BBX 8 8 0 -1
BITMAP
10
67
41
41
77
41
41
7F
ENDCHAR
STARTCHAR 3132
ENCODING 12594
SWIDTH 480 0
DWIDTH 5 0
BBX 8 8 0 -1
BITMAP
9E
12
96
3F
21
6F
6B
AF
ENDCHAR
STARTCHAR 3133
ENCODING 12595
SWIDTH 480 0
DWIDTH 5 0
BBX 8 8 0 -1
BITMAP
06
FF
B6
BD
B6
FF
16
2F
ENDCHAR
STARTCHAR 3134
ENCODING 12596
SWIDTH 480 0
DWIDTH 5 0
BBX 8 8 0 -1
BITMAP
0F
E9
AF
A9
AF
E9
0F
19
ENDCHAR
STARTCHAR 3135
ENCODING 12597
SWIDTH 480 0
DWIDTH 5 0
BBX 8 8 0 -1
BITMAP
2A
FF
7F
55
7F
77
46
72
ENDCHAR
STARTCHAR 3136
ENCODING 12598
SWIDTH 480 0
DWIDTH 5 0
BBX 8 8 0 -1
BITMAP
24
FF
F2
9F
F2
8A
F2
A6
ENDCHAR
STARTCHAR 3137
ENCODING 12599
SWIDTH 480 0
DWIDTH 5 0
BBX 8 8 0 -1
BITMAP
5E
92
FF
B5
BF
EA
04
AB
ENDCHAR
STARTCHAR 3138
ENCODING 12600
SWIDTH 480 0
DWIDTH 5 0
BBX 8 8 0 -1
BITMAP
45
4F
E6
7F
AC
D7
64
87
ENDCHAR
STARTCHAR 3139
ENCODING 12601
SWIDTH 480 0
DWIDTH 5 0
BBX 8 8 0 -1
BITMAP
7F
7F
6A
7F
6A
7A
66
BB
ENDCHAR
STARTCHAR 313a
ENCODING 12602
SWIDTH 480 0
DWIDTH 5 0
BBX 8 8 0 -1
BITMAP
85
5F
84
5F
1F
55
5F
95
ENDCHAR
STARTCHAR 313b
ENCODING 12603
SWIDTH 480 0
DWIDTH 5 0
BBX 8 8 0 -1
BITMAP
01
7E
4A
4A
4A
4A
4A
9D
ENDCHAR
STARTCHAR 313c
ENCODING 12604
SWIDTH 480 0
DWIDTH 5 0
BBX 8 8 0 -1
BITMAP
E7
A5
E7
BD
89
BD
89
BD
ENDCHAR
STARTCHAR 313d
ENCODING 12605
SWIDTH 480 0
DWIDTH 5 0
BBX 8 8 0 -1
BITMAP
0A
FF
BB
B1
BF
FF
0A
06
ENDCHAR
STARTCHAR 313e
ENCODING 12606
SWIDTH 480 0
DWIDTH 5 0
BBX 8 7 0 -1
BITMAP
7E
00
FF
10
14
22
7D
ENDCHAR
STARTCHAR 313f
ENCODING 12607
SWIDTH 480 0
DWIDTH 5 0
BBX 8 8 0 -1
BITMAP
9F
51
04
DF
55
5F
44
BF
ENDCHAR
STARTCHAR 3140
ENCODING 12608
SWIDTH 480 0
DWIDTH 5 0
BBX 8 8 0 -1
BITMAP
3E
08
FF
AB
3C
FF
12
7D
ENDCHAR
STARTCHAR 3141
ENCODING 12609
SWIDTH 480 0
DWIDTH 5 0
BBX 8 8 0 -1
BITMAP
24
FF
22
5C
C4
5F
44
5F
ENDCHAR
STARTCHAR 3142
ENCODING 12610
SWIDTH 480 0
DWIDTH 5 0
BBX 8 8 0 -1
BITMAP
5F
AA
0E
EA
AE
EA
9F
E2
ENDCHAR
STARTCHAR 3143
ENCODING 12611
SWIDTH 480 0
DWIDTH 5 0
BBX 8 8 0 -1
BITMAP
37
F9
AD
F5
52
FA
55
79
ENDCHAR
STARTCHAR 3144
ENCODING 12612
SWIDTH 480 0
DWIDTH 5 0
BBX 8 8 0 -1
BITMAP
52
FF
A5
3C
10
7E
42
7E
ENDCHAR
STARTCHAR 3145
ENCODING 12613
SWIDTH 480 0
DWIDTH 5 0
BBX 8 8 0 -1
BITMAP
77
55
77
55
10
FF
14
3F
ENDCHAR
STARTCHAR 3146
ENCODING 12614
SWIDTH 480 0
DWIDTH 5 0
BBX 8 8 0 -1
BITMAP
F1
92
F0
21
FA
50
71
AA
ENDCHAR
STARTCHAR 3147
ENCODING 12615
SWIDTH 480 0
DWIDTH 5 0
BBX 8 8 0 -1
BITMAP
04
FF
B5
F5
BF
A4
EA
11
ENDCHAR
STARTCHAR 3148
ENCODING 12616
SWIDTH 480 0
DWIDTH 5 0
BBX 8 8 0 -1
BITMAP
08
7E
4A
7E
4A
7E
0D
F3
ENDCHAR
STARTCHAR 3149
ENCODING 12617
SWIDTH 480 0
DWIDTH 5 0
BBX 8 8 0 -1
BITMAP
52
FF
89
08
FF
1C
2A
C9
ENDCHAR
STARTCHAR 314a
ENCODING 12618
SWIDTH 480 0
DWIDTH 5 0
BBX 8 8 0 -1
BITMAP
38
00
78
09
EA
2C
4A
99
ENDCHAR
STARTCHAR 314b
ENCODING 12619
SWIDTH 480 0
DWIDTH 5 0
BBX 8 8 0 -1
BITMAP
8C
40
9C
45
1E
46
4D
95
ENDCHAR
STARTCHAR 314c
ENCODING 12620
SWIDTH 480 0
DWIDTH 5 0
BBX 8 8 0 -1
BITMAP
84
5F
95
5F
15
5F
42
9D
ENDCHAR
STARTCHAR 314d
ENCODING 12621
SWIDTH 480 0
DWIDTH 5 0
BBX 8 8 0 -1
BITMAP
EA
5F
4A
FF
55
7F
CA
11
ENDCHAR
STARTCHAR 314e
ENCODING 12622
SWIDTH 480 0
DWIDTH 5 0
BBX 8 8 0 -1
BITMAP
7C
24
3F
49
95
7F
55
FF
ENDCHAR
STARTCHAR 314f
ENCODING 12623
SWIDTH 480 0
DWIDTH 5 0
BBX 8 8 0 -1
BITMAP
8F
E4
8F
F9
2F
F9
6F
B9
ENDCHAR
STARTCHAR 3150
ENCODING 12624
SWIDTH 480 0
DWIDTH 5 0
BBX 8 8 0 -1
BITMAP
8F
E4
8F
F9
6F
F9
2F
B9
ENDCHAR
STARTCHAR 3151
ENCODING 12625
SWIDTH 480 0
DWIDTH 5 0
BBX 8 8 0 -1
BITMAP
24
FF
24
7E
4A
FF
14
E3
ENDCHAR
STARTCHAR 3152
ENCODING 12626
SWIDTH 480 0
DWIDTH 5 0
BBX 8 8 0 -1
BITMAP
4B
BC
5F
D5
5D
59
7D
4B
ENDCHAR
STARTCHAR 3153
ENCODING 12627
SWIDTH 480 0
DWIDTH 5 0
BBX 8 8 0 -1
BITMAP
4C
E0
1C
E5
1E
E6
AD
F5
ENDCHAR
STARTCHAR 3154
ENCODING 12628
SWIDTH 480 0
DWIDTH 5 0
BBX 8 8 0 -1
BITMAP
51
AA
FF
51
FF
4A
EA
D3
ENDCHAR
STARTCHAR 3155
ENCODING 12629
SWIDTH 480 0
DWIDTH 5 0
BBX 8 8 0 -1
BITMAP
84
3F
8A
13
35
5D
52
9D
ENDCHAR
STARTCHAR 3156
ENCODING 12630
SWIDTH 480 0
DWIDTH 5 0
BBX 8 8 0 -1
BITMAP
08
7F
5E
E3
5E
D2
4C
B3
ENDCHAR
STARTCHAR 3157
ENCODING 12631
SWIDTH 480 0
DWIDTH 5 0
BBX 8 8 0 -1
BITMAP
22
14
FF
22
C1
7F
55
FF
ENDCHAR
STARTCHAR 3158
ENCODING 12632
SWIDTH 480 0
DWIDTH 5 0
BBX 8 8 0 -1
BITMAP
F7
A5
F5
A7
F4
16
D5
29
ENDCHAR
STARTCHAR 3159
ENCODING 12633
SWIDTH 480 0
DWIDTH 5 0
BBX 8 8 0 -1
BITMAP
51
4A
FF
D1
5F
4A
4A
53
ENDCHAR
STARTCHAR 315a
ENCODING 12634
SWIDTH 480 0
DWIDTH 5 0
BBX 8 8 0 -1
BITMAP
4E
EA
0E
E8
0F
F9
AD
E2
ENDCHAR
STARTCHAR 315b
ENCODING 12635
SWIDTH 480 0
DWIDTH 5 0
BBX 8 8 0 -1
BITMAP
22
7F
2A
FA
2B
7A
6D
9F
ENDCHAR
STARTCHAR 315c
ENCODING 12636
SWIDTH 480 0
DWIDTH 5 0
BBX 8 8 0 -1
BITMAP
E7
E7
95
BD
A5
BD
99
AD
ENDCHAR
STARTCHAR 315d
ENCODING 12637
SWIDTH 480 0
DWIDTH 5 0
BBX 8 8 0 -1
BITMAP
5F
E4
4F
E9
CF
5A
44
5B
ENDCHAR
STARTCHAR 315e
ENCODING 12638
SWIDTH 480 0
DWIDTH 5 0
BBX 8 8 0 -1
BITMAP
7F
6A
7B
47
7A
6A
7D
AD
ENDCHAR
STARTCHAR 315f
ENCODING 12639
SWIDTH 480 0
DWIDTH 5 0
BBX 8 8 0 -1
BITMAP
7F
49
49
49
7F
41
41
43
ENDCHAR
STARTCHAR 3160
ENCODING 12640
SWIDTH 480 0
DWIDTH 5 0
BBX 8 8 0 -1
BITMAP
FF
BD
FF
A5
BD
F5
93
FF
ENDCHAR
STARTCHAR 3161
ENCODING 12641
SWIDTH 480 0
DWIDTH 5 0
BBX 8 8 0 -1
BITMAP
5F
55
F7
52
5F
7A
D5
1F
ENDCHAR
STARTCHAR 3162
ENCODING 12642
SWIDTH 480 0
DWIDTH 5 0
BBX 8 8 0 -1
BITMAP
08
FF
22
C9
3E
2A
3E
0F
ENDCHAR
STARTCHAR 3163
ENCODING 12643
SWIDTH 480 0
DWIDTH 5 0
BBX 8 8 0 -1
BITMAP
08
FF
A5
3C
10
FF
14
3F
ENDCHAR
STARTCHAR 3164
ENCODING 12644
SWIDTH 480 0
DWIDTH 5 0
BBX 8 8 0 -1
BITMAP
E1
2E
42
EB
2A
AF
40
BF
ENDCHAR
STARTCHAR 3165
ENCODING 12645
SWIDTH 480 0
DWIDTH 5 0
BBX 8 8 0 -1
BITMAP
77
55
F5
24
C7
2A
A1
9D
ENDCHAR
STARTCHAR 3166
ENCODING 12646
SWIDTH 480 0
DWIDTH 5 0
BBX 8 8 0 -1
BITMAP
48
FF
52
69
DE
5A
5E
4F
ENDCHAR
STARTCHAR 3167
ENCODING 12647
SWIDTH 480 0
DWIDTH 5 0
BBX 8 8 0 -1
BITMAP
42
FD
55
48
7F
CA
54
6B
ENDCHAR
STARTCHAR 3168
ENCODING 12648
SWIDTH 480 0
DWIDTH 5 0
BBX 8 8 0 -1
BITMAP
92
52
A1
40
1E
52
52
9E
ENDCHAR
STARTCHAR 3169
ENCODING 12649
SWIDTH 480 0
DWIDTH 5 0
BBX 8 8 0 -1
BITMAP
84
5F
91
4E
1F
55
5F
8A
ENDCHAR
STARTCHAR 316a
ENCODING 12650
SWIDTH 480 0
DWIDTH 5 0
BBX 8 8 0 -1
BITMAP
29
49
14
E3
28
49
14
E3
ENDCHAR
STARTCHAR 316b
ENCODING 12651
SWIDTH 480 0
DWIDTH 5 0
BBX 8 8 0 -1
BITMAP
47
49
E2
D7
55
57
B5
97
ENDCHAR
STARTCHAR 316c
ENCODING 12652
SWIDTH 480 0
DWIDTH 5 0
BBX 8 8 0 -1
BITMAP
5F
4A
FF
DB
5F
44
AE
9F
ENDCHAR
STARTCHAR 316d
ENCODING 12653
SWIDTH 480 0
DWIDTH 5 0
BBX 8 8 0 -1
BITMAP
24
FF
22
FF
36
FF
00
95
ENDCHAR
STARTCHAR 316e
ENCODING 12654
SWIDTH 480 0
DWIDTH 5 0
BBX 8 8 0 -1
BITMAP
A4
4F
64
BF
69
AF
3A
4D
ENDCHAR
STARTCHAR 316f
ENCODING 12655
SWIDTH 480 0
DWIDTH 5 0
BBX 8 8 0 -1
BITMAP
4E
A2
5F
84
ED
56
EA
55
ENDCHAR
STARTCHAR 3170
ENCODING 12656
SWIDTH 480 0
DWIDTH 5 0
BBX 8 8 0 -1
BITMAP
66
FA
DF
FB
9F
F8
69
FF
ENDCHAR
STARTCHAR 3171
ENCODING 12657
SWIDTH 480 0
DWIDTH 5 0
BBX 8 8 0 -1
BITMAP
24
FF
24
77
55
F5
24
C7
ENDCHAR
STARTCHAR 3172
ENCODING 12658
SWIDTH 480 0
DWIDTH 5 0
BBX 8 8 0 -1
BITMAP
24
FF
24
7F
55
5D
6B
7F
ENDCHAR
STARTCHAR 3173
ENCODING 12659
SWIDTH 480 0
DWIDTH 5 0
BBX 8 8 0 -1
BITMAP
88
1E
3F
D2
5E
7A
49
BF
ENDCHAR
STARTCHAR 3174
ENCODING 12660
SWIDTH 480 0
DWIDTH 5 0
BBX 8 8 0 -1
BITMAP
4A
AA
F1
40
EF
49
E9
CF
ENDCHAR
STARTCHAR 3175
ENCODING 12661
SWIDTH 480 0
DWIDTH 5 0
BBX 8 8 0 -1
BITMAP
77
D5
2C
FF
24
3F
01
AB
ENDCHAR
STARTCHAR 3176
ENCODING 12662
SWIDTH 480 0
DWIDTH 5 0
BBX 8 8 0 -1
BITMAP
48
5F
EA
4E
40
7F
D5
3F
ENDCHAR
STARTCHAR 3177
ENCODING 12663
SWIDTH 480 0
DWIDTH 5 0
BBX 8 8 0 -1
BITMAP
44
EA
51
74
52
50
54
A2
ENDCHAR
STARTCHAR 3178
ENCODING 12664
SWIDTH 480 0
DWIDTH 5 0
BBX 8 8 0 -1
BITMAP
9F
48
9F
48
0F
51
41
86
ENDCHAR
STARTCHAR 3179
ENCODING 12665
SWIDTH 480 0
DWIDTH 5 0
BBX 8 8 0 -1
BITMAP
DF
F5
DF
55
FF
4F
65
CB
ENDCHAR
STARTCHAR 317a
ENCODING 12666
SWIDTH 480 0
DWIDTH 5 0
BBX 8 8 0 -1
BITMAP
E7
A5
A5
BD
81
81
FF
81
ENDCHAR
STARTCHAR 317b
ENCODING 12667
SWIDTH 480 0
DWIDTH 5 0
BBX 8 8 0 -1
BITMAP
08
7E
4A
4A
4A
FF
14
E3
ENDCHAR
STARTCHAR 317c
ENCODING 12668
SWIDTH 480 0
DWIDTH 5 0
BBX 8 8 0 -1
BITMAP
10
7E
6A
7E
5A
FF
24
C3
ENDCHAR
STARTCHAR 317d
ENCODING 12669
SWIDTH 480 0
DWIDTH 5 0
BBX 8 8 0 -1
BITMAP
44
BF
44
C4
5F
44
44
5F
ENDCHAR
STARTCHAR 317e
ENCODING 12670
SWIDTH 480 0
DWIDTH 5 0
BBX 8 8 0 -1
BITMAP
08
7F
48
44
58
59
69
8E
ENDCHAR
STARTCHAR 3221
ENCODING 12833
SWIDTH 480 0
DWIDTH 5 0
BBX 8 8 0 -1
BITMAP
5F
F5
5F
55
7F
C4
44
44
ENDCHAR
STARTCHAR 3222
ENCODING 12834
SWIDTH 480 0
DWIDTH 5 0
BBX 8 8 0 -1
BITMAP
1F
E4
A4
FF
A4
A4
E4
1F
ENDCHAR
STARTCHAR 3223
ENCODING 12835
SWIDTH 480 0
DWIDTH 5 0
BBX 8 8 0 -1
BITMAP
4A
FF
4A
FF
D5
5F
4A
71
ENDCHAR
STARTCHAR 3224
ENCODING 12836
SWIDTH 480 0
DWIDTH 5 0
BBX 8 8 0 -1
BITMAP
08
E8
8F
D5
A4
D4
8A
F1
ENDCHAR
STARTCHAR 3225
ENCODING 12837
SWIDTH 480 0
DWIDTH 5 0
BBX 8 8 0 -1
BITMAP
EE
8A
D3
A0
DE
8A
E4
1B
ENDCHAR
STARTCHAR 3226
ENCODING 12838
SWIDTH 480 0
DWIDTH 5 0
BBX 8 8 0 -1
BITMAP
FF
08
08
7E
08
08
08
FF
ENDCHAR
STARTCHAR 3227
ENCODING 12839
SWIDTH 480 0
DWIDTH 5 0
BBX 8 8 0 -1
BITMAP
26
59
BE
02
FF
99
55
B3
ENDCHAR
STARTCHAR 3228
ENCODING 12840
SWIDTH 480 0
DWIDTH 5 0
BBX 8 8 0 -1
BITMAP
48
FF
35
5F
FF
7F
44
5B
ENDCHAR
STARTCHAR 3229
ENCODING 12841
SWIDTH 480 0
DWIDTH 5 0
BBX 8 8 0 -1
BITMAP
2A
FF
91
3C
24
3F
01
AB
ENDCHAR
STARTCHAR 322a
ENCODING 12842
SWIDTH 480 0
DWIDTH 5 0
BBX 8 8 0 -1
BITMAP
04
FE
9A
DE
A8
DF
81
F5
ENDCHAR
STARTCHAR 322b
ENCODING 12843
SWIDTH 480 0
DWIDTH 5 0
BBX 8 8 0 -1
BITMAP
24
FF
24
FF
52
52
7E
C3
ENDCHAR
STARTCHAR 322c
ENCODING 12844
SWIDTH 480 0
DWIDTH 5 0
BBX 8 8 0 -1
BITMAP
FF
A3
95
FF
89
AB
BF
81
ENDCHAR
STARTCHAR 322d
ENCODING 12845
SWIDTH 480 0
DWIDTH 5 0
BBX 8 8 0 -1
BITMAP
84
5F
95
55
15
5F
44
84
ENDCHAR
STARTCHAR 322e
ENCODING 12846
SWIDTH 480 0
DWIDTH 5 0
BBX 8 8 0 -1
BITMAP
24
FF
24
42
AB
6A
A2
4D
ENDCHAR
STARTCHAR 322f
ENCODING 12847
SWIDTH 480 0
DWIDTH 5 0
BBX 8 8 0 -1
BITMAP
24
5F
CA
5F
4A
4E
4D
57
ENDCHAR
STARTCHAR 3230
ENCODING 12848
SWIDTH 480 0
DWIDTH 5 0
BBX 8 8 0 -1
BITMAP
7F
41
7F
52
7D
5E
48
BF
ENDCHAR
STARTCHAR 3231
ENCODING 12849
SWIDTH 480 0
DWIDTH 5 0
BBX 8 8 0 -1
BITMAP
44
5F
EA
DF
4A
4E
4D
57
ENDCHAR
STARTCHAR 3232
ENCODING 12850
SWIDTH 480 0
DWIDTH 5 0
BBX 8 8 0 -1
BITMAP
E4
BF
EA
BF
EA
AE
AD
B7
ENDCHAR
STARTCHAR 3233
ENCODING 12851
SWIDTH 480 0
DWIDTH 5 0
BBX 8 8 0 -1
BITMAP
5E
E4
5F
F5
DF
55
5F
55
ENDCHAR
STARTCHAR 3234
ENCODING 12852
SWIDTH 480 0
DWIDTH 5 0
BBX 8 8 0 -1
BITMAP
A4
F4
A4
3F
E4
24
24
3F
ENDCHAR
STARTCHAR 3235
ENCODING 12853
SWIDTH 480 0
DWIDTH 5 0
BBX 8 8 0 -1
BITMAP
7E
04
18
20
40
81
81
7F
ENDCHAR
STARTCHAR 3236
ENCODING 12854
SWIDTH 480 0
DWIDTH 5 0
BBX 8 8 0 -1
BITMAP
28
7F
D2
69
5E
5A
5E
4F
ENDCHAR
STARTCHAR 3237
ENCODING 12855
SWIDTH 480 0
DWIDTH 5 0
BBX 8 8 0 -1
BITMAP
47
75
A5
FD
25
B7
A4
F4
ENDCHAR
STARTCHAR 3238
ENCODING 12856
SWIDTH 480 0
DWIDTH 5 0
BBX 8 8 0 -1
BITMAP
7E
4A
7E
56
7E
2A
A1
9D
ENDCHAR
STARTCHAR 3239
ENCODING 12857
SWIDTH 480 0
DWIDTH 5 0
BBX 8 8 0 -1
BITMAP
9E
5E
92
5E
00
5F
55
BF
ENDCHAR
STARTCHAR 323a
ENCODING 12858
SWIDTH 480 0
DWIDTH 5 0
BBX 8 8 0 -1
BITMAP
21
DE
4A
EF
41
EF
CD
57
ENDCHAR
STARTCHAR 323b
ENCODING 12859
SWIDTH 480 0
DWIDTH 5 0
BBX 8 8 0 -1
BITMAP
08
7F
14
FF
22
3E
22
3E
ENDCHAR
STARTCHAR 323c
ENCODING 12860
SWIDTH 480 0
DWIDTH 5 0
BBX 8 8 0 -1
BITMAP
FF
10
18
14
12
10
10
10
ENDCHAR
STARTCHAR 323d
ENCODING 12861
SWIDTH 480 0
DWIDTH 5 0
BBX 8 8 0 -1
BITMAP
28
48
C9
4E
48
48
49
4F
ENDCHAR
STARTCHAR 323e
ENCODING 12862
SWIDTH 480 0
DWIDTH 5 0
BBX 8 8 0 -1
BITMAP
2F
48
CF
49
4D
4A
4A
55
ENDCHAR
STARTCHAR 323f
ENCODING 12863
SWIDTH 480 0
DWIDTH 5 0
BBX 8 8 0 -1
BITMAP
3F
41
DD
55
55
5D
41
43
ENDCHAR
STARTCHAR 3240
ENCODING 12864
SWIDTH 480 0
DWIDTH 5 0
BBX 8 8 0 -1
BITMAP
30
50
FF
55
55
55
55
6F
ENDCHAR
STARTCHAR 3241
ENCODING 12865
SWIDTH 480 0
DWIDTH 5 0
BBX 8 8 0 -1
BITMAP
3F
44
DF
55
55
55
55
5F
ENDCHAR
STARTCHAR 3242
ENCODING 12866
SWIDTH 480 0
DWIDTH 5 0
BBX 8 8 0 -1
BITMAP
24
4E
C4
5F
44
4E
44
5F
ENDCHAR
STARTCHAR 3243
ENCODING 12867
SWIDTH 480 0
DWIDTH 5 0
BBX 8 8 0 -1
BITMAP
40
47
F5
55
55
55
55
B7
ENDCHAR
STARTCHAR 3244
ENCODING 12868
SWIDTH 480 0
DWIDTH 5 0
BBX 8 8 0 -1
BITMAP
FF
02
7A
4A
4A
7A
02
06
ENDCHAR
STARTCHAR 3245
ENCODING 12869
SWIDTH 480 0
DWIDTH 5 0
BBX 8 8 0 -1
BITMAP
08
FF
08
7F
22
FF
55
B7
ENDCHAR
STARTCHAR 3246
ENCODING 12870
SWIDTH 480 0
DWIDTH 5 0
BBX 8 8 0 -1
BITMAP
FF
10
3E
22
3E
64
18
E7
ENDCHAR
STARTCHAR 3247
ENCODING 12871
SWIDTH 480 0
DWIDTH 5 0
BBX 8 8 0 -1
BITMAP
44
5F
F1
6E
AD
D6
6A
95
ENDCHAR
STARTCHAR 3248
ENCODING 12872
SWIDTH 480 0
DWIDTH 5 0
BBX 8 8 0 -1
BITMAP
08
FF
BD
30
DB
2C
CA
31
ENDCHAR
STARTCHAR 3249
ENCODING 12873
SWIDTH 480 0
DWIDTH 5 0
BBX 8 8 0 -1
BITMAP
08
FF
BD
24
FF
3E
D5
28
ENDCHAR
STARTCHAR 324a
ENCODING 12874
SWIDTH 480 0
DWIDTH 5 0
BBX 8 8 0 -1
BITMAP
22
CA
42
EA
43
EE
C2
42
ENDCHAR
STARTCHAR 324b
ENCODING 12875
SWIDTH 480 0
DWIDTH 5 0
BBX 8 8 0 -1
BITMAP
1F
F5
BF
F0
BF
B5
FA
15
ENDCHAR
STARTCHAR 324c
ENCODING 12876
SWIDTH 480 0
DWIDTH 5 0
BBX 8 8 0 -1
BITMAP
7E
4A
7E
4A
FF
1C
2A
C9
ENDCHAR
STARTCHAR 324d
ENCODING 12877
SWIDTH 480 0
DWIDTH 5 0
BBX 8 8 0 -1
BITMAP
40
F7
55
B7
08
FF
2A
C9
ENDCHAR
STARTCHAR 324e
ENCODING 12878
SWIDTH 480 0
DWIDTH 5 0
BBX 8 8 0 -1
BITMAP
F8
28
AF
25
F4
24
AA
31
ENDCHAR
STARTCHAR 324f
ENCODING 12879
SWIDTH 480 0
DWIDTH 5 0
BBX 8 8 0 -1
BITMAP
BF
41
9D
55
15
5D
41
83
ENDCHAR
STARTCHAR 3250
ENCODING 12880
SWIDTH 480 0
DWIDTH 5 0
BBX 8 8 0 -1
BITMAP
08
49
49
8A
08
14
22
C1
ENDCHAR
STARTCHAR 3251
ENCODING 12881
SWIDTH 480 0
DWIDTH 5 0
BBX 8 8 0 -1
BITMAP
FF
41
5D
F5
55
7D
C1
03
ENDCHAR
STARTCHAR 3252
ENCODING 12882
SWIDTH 480 0
DWIDTH 5 0
BBX 8 8 0 -1
BITMAP
4F
E9
2B
3F
51
F7
55
57
ENDCHAR
STARTCHAR 3253
ENCODING 12883
SWIDTH 480 0
DWIDTH 5 0
BBX 8 8 0 -1
BITMAP
06
78
08
FF
1C
2A
C9
08
ENDCHAR
STARTCHAR 3254
ENCODING 12884
SWIDTH 480 0
DWIDTH 5 0
BBX 8 8 0 -1
BITMAP
24
DF
51
EE
4D
F6
CA
55
ENDCHAR
STARTCHAR 3255
ENCODING 12885
SWIDTH 480 0
DWIDTH 5 0
BBX 8 8 0 -1
BITMAP
44
77
A2
7F
49
7F
55
7F
ENDCHAR
STARTCHAR 3256
ENCODING 12886
SWIDTH 480 0
DWIDTH 5 0
BBX 8 8 0 -1
BITMAP
24
FF
24
29
4E
C8
49
4F
ENDCHAR
STARTCHAR 3257
ENCODING 12887
SWIDTH 480 0
DWIDTH 5 0
BBX 8 8 0 -1
BITMAP
24
FF
24
FF
7A
4A
7A
06
ENDCHAR
STARTCHAR 3258
ENCODING 12888
SWIDTH 480 0
DWIDTH 5 0
BBX 8 8 0 -1
BITMAP
24
FF
24
40
F7
55
55
B7
ENDCHAR
STARTCHAR 3259
ENCODING 12889
SWIDTH 480 0
DWIDTH 5 0
BBX 8 8 0 -1
BITMAP
24
FF
24
5F
DD
55
5D
43
ENDCHAR
STARTCHAR 325a
ENCODING 12890
SWIDTH 480 0
DWIDTH 5 0
BBX 8 8 0 -1
BITMAP
24
FF
24
7E
FF
2A
FF
08
ENDCHAR
STARTCHAR 325b
ENCODING 12891
SWIDTH 480 0
DWIDTH 5 0
BBX 8 8 0 -1
BITMAP
24
FF
4A
7E
4A
FF
2A
C9
ENDCHAR
STARTCHAR 325c
ENCODING 12892
SWIDTH 480 0
DWIDTH 5 0
BBX 8 8 0 -1
BITMAP
5F
55
FF
B0
FF
55
7A
D5
ENDCHAR
STARTCHAR 325d
ENCODING 12893
SWIDTH 480 0
DWIDTH 5 0
BBX 8 8 0 -1
BITMAP
5F
F5
1F
F5
1F
E4
AE
F5
ENDCHAR
STARTCHAR 325e
ENCODING 12894
SWIDTH 480 0
DWIDTH 5 0
BBX 8 8 0 -1
BITMAP
0A
FF
AE
BF
AE
E4
1F
04
ENDCHAR
STARTCHAR 325f
ENCODING 12895
SWIDTH 480 0
DWIDTH 5 0
BBX 8 8 0 -1
BITMAP
29
4E
C9
4F
3E
22
3E
E3
ENDCHAR
STARTCHAR 3260
ENCODING 12896
SWIDTH 480 0
DWIDTH 5 0
BBX 8 8 0 -1
BITMAP
90
3F
15
D5
55
57
6C
BF
ENDCHAR
STARTCHAR 3261
ENCODING 12897
SWIDTH 480 0
DWIDTH 5 0
BBX 8 8 0 -1
BITMAP
8E
4A
1F
D1
57
55
40
BF
ENDCHAR
STARTCHAR 3262
ENCODING 12898
SWIDTH 480 0
DWIDTH 5 0
BBX 8 8 0 -1
BITMAP
3E
FF
AB
77
71
47
72
4D
ENDCHAR
STARTCHAR 3263
ENCODING 12899
SWIDTH 480 0
DWIDTH 5 0
BBX 8 8 0 -1
BITMAP
44
44
FF
AA
EA
44
64
DB
ENDCHAR
STARTCHAR 3264
ENCODING 12900
SWIDTH 480 0
DWIDTH 5 0
BBX 8 8 0 -1
BITMAP
4D
74
7F
D4
55
5A
72
55
ENDCHAR
STARTCHAR 3265
ENCODING 12901
SWIDTH 480 0
DWIDTH 5 0
BBX 8 8 0 -1
BITMAP
47
5A
5F
EA
EE
FB
EA
0D
ENDCHAR
STARTCHAR 3266
ENCODING 12902
SWIDTH 480 0
DWIDTH 5 0
BBX 8 8 0 -1
BITMAP
15
E5
24
FF
24
F5
22
2D
ENDCHAR
STARTCHAR 3267
ENCODING 12903
SWIDTH 480 0
DWIDTH 5 0
BBX 8 8 0 -1
BITMAP
3E
24
24
FF
0C
14
64
0C
ENDCHAR
STARTCHAR 3268
ENCODING 12904
SWIDTH 480 0
DWIDTH 5 0
BBX 8 8 0 -1
BITMAP
FF
08
BF
AB
BF
AB
BF
FF
ENDCHAR
STARTCHAR 3269
ENCODING 12905
SWIDTH 480 0
DWIDTH 5 0
BBX 8 8 0 -1
BITMAP
F4
A4
F4
94
F4
AA
FA
11
ENDCHAR
STARTCHAR 326a
ENCODING 12906
SWIDTH 480 0
DWIDTH 5 0
BBX 8 8 0 -1
BITMAP
24
FF
24
7E
24
FF
14
64
ENDCHAR
STARTCHAR 326b
ENCODING 12907
SWIDTH 480 0
DWIDTH 5 0
BBX 8 8 0 -1
BITMAP
47
5A
FF
AA
EE
5B
6A
DD
ENDCHAR
STARTCHAR 326c
ENCODING 12908
SWIDTH 480 0
DWIDTH 5 0
BBX 8 8 0 -1
BITMAP
47
F5
57
BE
22
22
3E
E3
ENDCHAR
STARTCHAR 326d
ENCODING 12909
SWIDTH 480 0
DWIDTH 5 0
BBX 8 8 0 -1
BITMAP
EA
AF
FA
2F
6A
AF
2A
6F
ENDCHAR
STARTCHAR 326e
ENCODING 12910
SWIDTH 480 0
DWIDTH 5 0
BBX 8 8 0 -1
BITMAP
47
BA
1F
EA
AE
FB
8A
ED
ENDCHAR
STARTCHAR 326f
ENCODING 12911
SWIDTH 480 0
DWIDTH 5 0
BBX 8 8 0 -1
BITMAP
47
F5
57
BE
24
3F
01
AA
ENDCHAR
STARTCHAR 3270
ENCODING 12912
SWIDTH 480 0
DWIDTH 5 0
BBX 8 8 0 -1
BITMAP
18
24
C3
24
24
24
24
44
ENDCHAR
STARTCHAR 3271
ENCODING 12913
SWIDTH 480 0
DWIDTH 5 0
BBX 8 8 0 -1
BITMAP
18
24
DB
00
FF
10
24
7A
ENDCHAR
STARTCHAR 3272
ENCODING 12914
SWIDTH 480 0
DWIDTH 5 0
BBX 8 8 0 -1
BITMAP
6F
A5
75
5A
5F
72
5F
92
ENDCHAR
STARTCHAR 3273
ENCODING 12915
SWIDTH 480 0
DWIDTH 5 0
BBX 8 8 0 -1
BITMAP
FF
81
BD
A5
A5
BD
81
FF
ENDCHAR
STARTCHAR 3274
ENCODING 12916
SWIDTH 480 0
DWIDTH 5 0
BBX 8 8 0 -1
BITMAP
48
5F
FF
55
5F
6D
CE
17
ENDCHAR
STARTCHAR 3275
ENCODING 12917
SWIDTH 480 0
DWIDTH 5 0
BBX 8 8 0 -1
BITMAP
44
5F
ED
4F
44
7F
DA
2D
ENDCHAR
STARTCHAR 3276
ENCODING 12918
SWIDTH 480 0
DWIDTH 5 0
BBX 8 8 0 -1
BITMAP
EF
29
4D
ED
29
AF
40
BF
ENDCHAR
STARTCHAR 3277
ENCODING 12919
SWIDTH 480 0
DWIDTH 5 0
BBX 8 8 0 -1
BITMAP
48
5E
EA
CA
7F
48
54
63
ENDCHAR
STARTCHAR 3278
ENCODING 12920
SWIDTH 480 0
DWIDTH 5 0
BBX 8 8 0 -1
BITMAP
5F
49
E6
D9
44
5F
44
5F
ENDCHAR
STARTCHAR 3279
ENCODING 12921
SWIDTH 480 0
DWIDTH 5 0
BBX 8 8 0 -1
BITMAP
48
5F
EE
CA
7F
52
5F
42
ENDCHAR
STARTCHAR 327a
ENCODING 12922
SWIDTH 480 0
DWIDTH 5 0
BBX 8 8 0 -1
BITMAP
5F
50
F2
DB
5A
52
52
6D
ENDCHAR
STARTCHAR 327b
ENCODING 12923
SWIDTH 480 0
DWIDTH 5 0
BBX 8 8 0 -1
BITMAP
44
5F
ED
CF
44
7F
5A
6D
ENDCHAR
STARTCHAR 327c
ENCODING 12924
SWIDTH 480 0
DWIDTH 5 0
BBX 8 8 0 -1
BITMAP
05
04
FF
04
55
FA
52
95
ENDCHAR
STARTCHAR 327d
ENCODING 12925
SWIDTH 480 0
DWIDTH 5 0
BBX 8 8 0 -1
BITMAP
4F
E9
4F
40
6F
C5
49
53
ENDCHAR
STARTCHAR 327e
ENCODING 12926
SWIDTH 480 0
DWIDTH 5 0
BBX 8 8 0 -1
BITMAP
E8
28
2F
F2
8A
84
A4
FB
ENDCHAR
STARTCHAR 3321
ENCODING 13089
SWIDTH 480 0
DWIDTH 5 0
BBX 8 8 0 -1
BITMAP
42
FA
D2
FA
F3
6E
62
BF
ENDCHAR
STARTCHAR 3322
ENCODING 13090
SWIDTH 480 0
DWIDTH 5 0
BBX 8 8 0 -1
BITMAP
08
FF
AE
EA
BF
B2
FF
02
ENDCHAR
STARTCHAR 3323
ENCODING 13091
SWIDTH 480 0
DWIDTH 5 0
BBX 8 8 0 -1
BITMAP
45
E4
5F
E4
D5
7A
52
55
ENDCHAR
STARTCHAR 3324
ENCODING 13092
SWIDTH 480 0
DWIDTH 5 0
BBX 8 8 0 -1
BITMAP
88
1F
8E
0A
3F
52
5F
82
ENDCHAR
STARTCHAR 3325
ENCODING 13093
SWIDTH 480 0
DWIDTH 5 0
BBX 8 8 0 -1
BITMAP
7F
44
55
55
64
44
4A
B1
ENDCHAR
STARTCHAR 3326
ENCODING 13094
SWIDTH 480 0
DWIDTH 5 0
BBX 8 8 0 -1
BITMAP
7E
52
7E
52
7E
66
A5
44
ENDCHAR
STARTCHAR 3327
ENCODING 13095
SWIDTH 480 0
DWIDTH 5 0
BBX 8 8 0 -1
BITMAP
49
7E
49
EF
10
3E
22
3E
ENDCHAR
STARTCHAR 3328
ENCODING 13096
SWIDTH 480 0
DWIDTH 5 0
BBX 8 8 0 -1
BITMAP
44
AA
51
8E
E0
5F
EA
5D
ENDCHAR
STARTCHAR 3329
ENCODING 13097
SWIDTH 480 0
DWIDTH 5 0
BBX 8 8 0 -1
BITMAP
24
FF
18
24
E7
24
24
44
ENDCHAR
STARTCHAR 332a
ENCODING 13098
SWIDTH 480 0
DWIDTH 5 0
BBX 8 8 0 -1
BITMAP
67
FD
72
57
BE
3E
0A
7D
ENDCHAR
STARTCHAR 332b
ENCODING 13099
SWIDTH 480 0
DWIDTH 5 0
BBX 8 8 0 -1
BITMAP
E7
A5
E7
81
BF
95
BF
95
ENDCHAR
STARTCHAR 332c
ENCODING 13100
SWIDTH 480 0
DWIDTH 5 0
BBX 8 8 0 -1
BITMAP
F2
BB
D2
BB
A4
CF
89
8F
ENDCHAR
STARTCHAR 332d
ENCODING 13101
SWIDTH 480 0
DWIDTH 5 0
BBX 8 8 0 -1
BITMAP
7E
42
7E
42
7E
42
7E
E3
ENDCHAR
STARTCHAR 332e
ENCODING 13102
SWIDTH 480 0
DWIDTH 5 0
BBX 8 8 0 -1
BITMAP
2E
BA
FA
FA
9A
FA
6A
F3
ENDCHAR
STARTCHAR 332f
ENCODING 13103
SWIDTH 480 0
DWIDTH 5 0
BBX 8 8 0 -1
BITMAP
24
F4
2F
55
25
D5
25
DB
ENDCHAR
STARTCHAR 3330
ENCODING 13104
SWIDTH 480 0
DWIDTH 5 0
BBX 8 8 0 -1
BITMAP
44
74
54
96
75
14
24
C4
ENDCHAR
STARTCHAR 3331
ENCODING 13105
SWIDTH 480 0
DWIDTH 5 0
BBX 8 8 0 -1
BITMAP
04
FF
A4
AA
A5
EA
06
19
ENDCHAR
STARTCHAR 3332
ENCODING 13106
SWIDTH 480 0
DWIDTH 5 0
BBX 8 8 0 -1
BITMAP
08
FF
89
7E
08
FF
22
3E
ENDCHAR
STARTCHAR 3333
ENCODING 13107
SWIDTH 480 0
DWIDTH 5 0
BBX 8 8 0 -1
BITMAP
49
7F
44
4E
44
5F
44
BF
ENDCHAR
STARTCHAR 3334
ENCODING 13108
SWIDTH 480 0
DWIDTH 5 0
BBX 8 8 0 -1
BITMAP
5F
56
FE
D7
5E
52
56
5B
ENDCHAR
STARTCHAR 3335
ENCODING 13109
SWIDTH 480 0
DWIDTH 5 0
BBX 8 8 0 -1
BITMAP
5F
F6
5E
F7
DE
52
56
5B
ENDCHAR
STARTCHAR 3336
ENCODING 13110
SWIDTH 480 0
DWIDTH 5 0
BBX 8 8 0 -1
BITMAP
9F
57
92
5F
12
57
52
AF
ENDCHAR
STARTCHAR 3337
ENCODING 13111
SWIDTH 480 0
DWIDTH 5 0
BBX 8 8 0 -1
BITMAP
EF
49
4F
7F
E2
7F
6A
06
ENDCHAR
STARTCHAR 3338
ENCODING 13112
SWIDTH 480 0
DWIDTH 5 0
BBX 8 8 0 -1
BITMAP
22
FF
2A
7F
00
7F
55
FF
ENDCHAR
STARTCHAR 3339
ENCODING 13113
SWIDTH 480 0
DWIDTH 5 0
BBX 8 8 0 -1
BITMAP
4B
BC
4B
DD
49
5D
49
5D
ENDCHAR
STARTCHAR 333a
ENCODING 13114
SWIDTH 480 0
DWIDTH 5 0
BBX 8 8 0 -1
BITMAP
44
FF
04
EA
05
EA
A6
F9
ENDCHAR
STARTCHAR 333b
ENCODING 13115
SWIDTH 480 0
DWIDTH 5 0
BBX 8 8 0 -1
BITMAP
42
AB
EF
4F
E9
4F
E6
CF
ENDCHAR
STARTCHAR 333c
ENCODING 13116
SWIDTH 480 0
DWIDTH 5 0
BBX 8 8 0 -1
BITMAP
74
5F
F4
9A
75
5A
76
59
ENDCHAR
STARTCHAR 333d
ENCODING 13117
SWIDTH 480 0
DWIDTH 5 0
BBX 8 8 0 -1
BITMAP
9F
55
9F
55
1F
44
4E
9F
ENDCHAR
STARTCHAR 333e
ENCODING 13118
SWIDTH 480 0
DWIDTH 5 0
BBX 8 8 0 -1
BITMAP
26
77
79
76
89
7F
36
5D
ENDCHAR
STARTCHAR 333f
ENCODING 13119
SWIDTH 480 0
DWIDTH 5 0
BBX 8 8 0 -1
BITMAP
44
4E
E4
BF
E4
4E
64
DF
ENDCHAR
STARTCHAR 3340
ENCODING 13120
SWIDTH 480 0
DWIDTH 5 0
BBX 8 8 0 -1
BITMAP
5F
40
EE
4A
4E
6A
CE
1F
ENDCHAR
STARTCHAR 3341
ENCODING 13121
SWIDTH 480 0
DWIDTH 5 0
BBX 8 8 0 -1
BITMAP
44
FF
44
FF
D5
55
55
44
ENDCHAR
STARTCHAR 3342
ENCODING 13122
SWIDTH 480 0
DWIDTH 5 0
BBX 8 8 0 -1
BITMAP
4F
48
EF
AA
EB
4D
69
D2
ENDCHAR
STARTCHAR 3343
ENCODING 13123
SWIDTH 480 0
DWIDTH 5 0
BBX 8 8 0 -1
BITMAP
44
A7
E9
55
E9
4F
E1
C3
ENDCHAR
STARTCHAR 3344
ENCODING 13124
SWIDTH 480 0
DWIDTH 5 0
BBX 8 8 0 -1
BITMAP
41
F5
FD
55
FD
75
51
73
ENDCHAR
STARTCHAR 3345
ENCODING 13125
SWIDTH 480 0
DWIDTH 5 0
BBX 8 8 0 -1
BITMAP
12
FF
D2
FF
F6
FF
36
5A
ENDCHAR
STARTCHAR 3346
ENCODING 13126
SWIDTH 480 0
DWIDTH 5 0
BBX 8 8 0 -1
BITMAP
20
3C
64
18
24
FF
24
3C
ENDCHAR
STARTCHAR 3347
ENCODING 13127
SWIDTH 480 0
DWIDTH 5 0
BBX 8 8 0 -1
BITMAP
08
7F
57
7D
6E
7D
56
B4
ENDCHAR
STARTCHAR 3348
ENCODING 13128
SWIDTH 480 0
DWIDTH 5 0
BBX 8 8 0 -1
BITMAP
44
FF
50
54
74
D4
59
6F
ENDCHAR
STARTCHAR 3349
ENCODING 13129
SWIDTH 480 0
DWIDTH 5 0
BBX 8 8 0 -1
BITMAP
4A
FF
51
4E
6A
CE
4D
57
ENDCHAR
STARTCHAR 334a
ENCODING 13130
SWIDTH 480 0
DWIDTH 5 0
BBX 8 8 0 -1
BITMAP
48
EE
5A
E4
CA
5F
4A
4E
ENDCHAR
STARTCHAR 334b
ENCODING 13131
SWIDTH 480 0
DWIDTH 5 0
BBX 8 8 0 -1
BITMAP
44
FF
44
EA
C5
4A
46
59
ENDCHAR
STARTCHAR 334c
ENCODING 13132
SWIDTH 480 0
DWIDTH 5 0
BBX 8 8 0 -1
BITMAP
4E
FA
4B
F0
9E
6A
64
BB
ENDCHAR
STARTCHAR 334d
ENCODING 13133
SWIDTH 480 0
DWIDTH 5 0
BBX 8 8 0 -1
BITMAP
AA
5F
6E
AC
6F
AA
24
5B
ENDCHAR
STARTCHAR 334e
ENCODING 13134
SWIDTH 480 0
DWIDTH 5 0
BBX 8 8 0 -1
BITMAP
E4
5F
55
6F
FA
6F
6A
0F
ENDCHAR
STARTCHAR 334f
ENCODING 13135
SWIDTH 480 0
DWIDTH 5 0
BBX 8 8 0 -1
BITMAP
2A
DF
4E
EC
4F
EA
C4
5B
ENDCHAR
STARTCHAR 3350
ENCODING 13136
SWIDTH 480 0
DWIDTH 5 0
BBX 8 8 0 -1
BITMAP
52
FF
A5
3C
24
3C
19
EF
ENDCHAR
STARTCHAR 3351
ENCODING 13137
SWIDTH 480 0
DWIDTH 5 0
BBX 8 8 0 -1
BITMAP
3C
C8
7F
49
7F
49
7F
81
ENDCHAR
STARTCHAR 3352
ENCODING 13138
SWIDTH 480 0
DWIDTH 5 0
BBX 8 8 0 -1
BITMAP
22
77
22
FF
55
DD
55
99
ENDCHAR
STARTCHAR 3353
ENCODING 13139
SWIDTH 480 0
DWIDTH 5 0
BBX 8 8 0 -1
BITMAP
44
FF
4A
F1
EA
4A
E4
5B
ENDCHAR
STARTCHAR 3354
ENCODING 13140
SWIDTH 480 0
DWIDTH 5 0
BBX 8 8 0 -1
BITMAP
27
FD
76
55
75
FD
26
64
ENDCHAR
STARTCHAR 3355
ENCODING 13141
SWIDTH 480 0
DWIDTH 5 0
BBX 8 8 0 -1
BITMAP
E7
A5
E7
9D
B5
89
B7
9D
ENDCHAR
STARTCHAR 3356
ENCODING 13142
SWIDTH 480 0
DWIDTH 5 0
BBX 8 8 0 -1
BITMAP
FF
AA
CE
A0
BF
D1
9F
95
ENDCHAR
STARTCHAR 3357
ENCODING 13143
SWIDTH 480 0
DWIDTH 5 0
BBX 8 8 0 -1
BITMAP
24
FF
24
7E
4A
7E
FF
08
ENDCHAR
STARTCHAR 3358
ENCODING 13144
SWIDTH 480 0
DWIDTH 5 0
BBX 8 8 0 -1
BITMAP
52
FF
BD
04
08
FF
08
18
ENDCHAR
STARTCHAR 3359
ENCODING 13145
SWIDTH 480 0
DWIDTH 5 0
BBX 8 8 0 -1
BITMAP
0C
30
3F
24
FF
08
49
7F
ENDCHAR
STARTCHAR 335a
ENCODING 13146
SWIDTH 480 0
DWIDTH 5 0
BBX 8 8 0 -1
BITMAP
91
3C
66
BD
08
FF
2A
C9
ENDCHAR
STARTCHAR 335b
ENCODING 13147
SWIDTH 480 0
DWIDTH 5 0
BBX 8 8 0 -1
BITMAP
27
FA
8F
75
D7
25
DF
75
ENDCHAR
STARTCHAR 335c
ENCODING 13148
SWIDTH 480 0
DWIDTH 5 0
BBX 8 8 0 -1
BITMAP
F7
D2
F7
FD
47
75
97
2D
ENDCHAR
STARTCHAR 335d
ENCODING 13149
SWIDTH 480 0
DWIDTH 5 0
BBX 8 8 0 -1
BITMAP
4A
FE
4A
5F
6A
DE
4A
5E
ENDCHAR
STARTCHAR 335e
ENCODING 13150
SWIDTH 480 0
DWIDTH 5 0
BBX 8 8 0 -1
BITMAP
44
77
AA
08
FF
24
24
FF
ENDCHAR
STARTCHAR 335f
ENCODING 13151
SWIDTH 480 0
DWIDTH 5 0
BBX 8 8 0 -1
BITMAP
5F
F5
52
FD
C4
5F
44
5F
ENDCHAR
STARTCHAR 3360
ENCODING 13152
SWIDTH 480 0
DWIDTH 5 0
BBX 8 8 0 -1
BITMAP
5F
EE
4A
EE
DF
4E
4A
5F
ENDCHAR
STARTCHAR 3361
ENCODING 13153
SWIDTH 480 0
DWIDTH 5 0
BBX 8 8 0 -1
BITMAP
2F
F9
2F
79
6E
AB
2E
33
ENDCHAR
STARTCHAR 3362
ENCODING 13154
SWIDTH 480 0
DWIDTH 5 0
BBX 8 8 0 -1
BITMAP
46
9A
FF
AA
BE
FA
0A
AD
ENDCHAR
STARTCHAR 3363
ENCODING 13155
SWIDTH 480 0
DWIDTH 5 0
BBX 8 8 0 -1
BITMAP
88
53
91
5F
08
5F
41
AB
ENDCHAR
STARTCHAR 3364
ENCODING 13156
SWIDTH 480 0
DWIDTH 5 0
BBX 8 8 0 -1
BITMAP
21
FD
AD
75
25
FD
51
73
ENDCHAR
STARTCHAR 3365
ENCODING 13157
SWIDTH 480 0
DWIDTH 5 0
BBX 8 8 0 -1
BITMAP
0E
EA
AE
A8
AF
F9
0D
02
ENDCHAR
STARTCHAR 3366
ENCODING 13158
SWIDTH 480 0
DWIDTH 5 0
BBX 8 8 0 -1
BITMAP
4C
52
E1
DE
40
5E
52
5E
ENDCHAR
STARTCHAR 3367
ENCODING 13159
SWIDTH 480 0
DWIDTH 5 0
BBX 8 8 0 -1
BITMAP
41
EE
42
4F
62
CF
49
4F
ENDCHAR
STARTCHAR 3368
ENCODING 13160
SWIDTH 480 0
DWIDTH 5 0
BBX 8 8 0 -1
BITMAP
81
5E
84
5F
04
5F
51
9F
ENDCHAR
STARTCHAR 3369
ENCODING 13161
SWIDTH 480 0
DWIDTH 5 0
BBX 8 8 0 -1
BITMAP
8E
4A
8E
48
0F
59
4D
82
ENDCHAR
STARTCHAR 336a
ENCODING 13162
SWIDTH 480 0
DWIDTH 5 0
BBX 8 8 0 -1
BITMAP
8E
4A
9F
51
0E
4A
4E
8A
ENDCHAR
STARTCHAR 336b
ENCODING 13163
SWIDTH 480 0
DWIDTH 5 0
BBX 8 8 0 -1
BITMAP
24
FF
22
3E
20
7F
A1
3A
ENDCHAR
STARTCHAR 336c
ENCODING 13164
SWIDTH 480 0
DWIDTH 5 0
BBX 8 8 0 -1
BITMAP
4E
EA
2E
48
EF
79
4D
42
ENDCHAR
STARTCHAR 336d
ENCODING 13165
SWIDTH 480 0
DWIDTH 5 0
BBX 8 8 0 -1
BITMAP
44
FF
55
EE
E4
5F
EA
4E
ENDCHAR
STARTCHAR 336e
ENCODING 13166
SWIDTH 480 0
DWIDTH 5 0
BBX 8 8 0 -1
BITMAP
3E
22
3E
22
3E
22
22
FF
ENDCHAR
STARTCHAR 336f
ENCODING 13167
SWIDTH 480 0
DWIDTH 5 0
BBX 8 8 0 -1
BITMAP
5F
95
F2
BD
A4
FF
04
BF
ENDCHAR
STARTCHAR 3370
ENCODING 13168
SWIDTH 480 0
DWIDTH 5 0
BBX 8 8 0 -1
BITMAP
04
E4
BF
A4
A4
E4
04
04
ENDCHAR
STARTCHAR 3371
ENCODING 13169
SWIDTH 480 0
DWIDTH 5 0
BBX 8 8 0 -1
BITMAP
4A
FF
40
EA
DB
4A
4A
4B
ENDCHAR
STARTCHAR 3372
ENCODING 13170
SWIDTH 480 0
DWIDTH 5 0
BBX 8 8 0 -1
BITMAP
4A
FF
4E
FF
CE
44
5F
44
ENDCHAR
STARTCHAR 3373
ENCODING 13171
SWIDTH 480 0
DWIDTH 5 0
BBX 8 8 0 -1
BITMAP
A8
EF
51
ED
E5
4D
E8
4F
ENDCHAR
STARTCHAR 3374
ENCODING 13172
SWIDTH 480 0
DWIDTH 5 0
BBX 8 8 0 -1
BITMAP
4C
EE
54
FF
C4
4E
55
44
ENDCHAR
STARTCHAR 3375
ENCODING 13173
SWIDTH 480 0
DWIDTH 5 0
BBX 8 8 0 -1
BITMAP
28
5F
55
5D
63
14
25
C7
ENDCHAR
STARTCHAR 3376
ENCODING 13174
SWIDTH 480 0
DWIDTH 5 0
BBX 8 8 0 -1
BITMAP
10
FF
A5
7E
2A
3E
09
0F
ENDCHAR
STARTCHAR 3377
ENCODING 13175
SWIDTH 480 0
DWIDTH 5 0
BBX 8 8 0 -1
BITMAP
24
FF
9F
04
9F
15
5F
95
ENDCHAR
STARTCHAR 3378
ENCODING 13176
SWIDTH 480 0
DWIDTH 5 0
BBX 8 8 0 -1
BITMAP
14
E3
14
1C
EB
7E
2A
FF
ENDCHAR
STARTCHAR 3379
ENCODING 13177
SWIDTH 480 0
DWIDTH 5 0
BBX 8 8 0 -1
BITMAP
4A
BF
EC
5F
ED
5F
FE
CD
ENDCHAR
STARTCHAR 337a
ENCODING 13178
SWIDTH 480 0
DWIDTH 5 0
BBX 8 8 0 -1
BITMAP
04
17
F4
BF
BB
B5
FB
1F
ENDCHAR
STARTCHAR 337b
ENCODING 13179
SWIDTH 480 0
DWIDTH 5 0
BBX 8 8 0 -1
BITMAP
E4
EE
EA
EE
E8
4F
41
55
ENDCHAR
STARTCHAR 337c
ENCODING 13180
SWIDTH 480 0
DWIDTH 5 0
BBX 8 8 0 -1
BITMAP
2F
F4
2F
79
6F
A9
29
2F
ENDCHAR
STARTCHAR 337d
ENCODING 13181
SWIDTH 480 0
DWIDTH 5 0
BBX 8 8 0 -1
BITMAP
24
FF
3C
08
FF
1A
28
D8
ENDCHAR
STARTCHAR 337e
ENCODING 13182
SWIDTH 480 0
DWIDTH 5 0
BBX 8 8 0 -1
BITMAP
24
FF
24
FF
BD
24
3C
FF
ENDCHAR
STARTCHAR 3421
ENCODING 13345
SWIDTH 480 0
DWIDTH 5 0
BBX 8 8 0 -1
BITMAP
D7
79
D7
BC
D7
79
71
96
ENDCHAR
STARTCHAR 3422
ENCODING 13346
SWIDTH 480 0
DWIDTH 5 0
BBX 8 8 0 -1
BITMAP
11
15
95
55
25
25
51
83
ENDCHAR
STARTCHAR 3423
ENCODING 13347
SWIDTH 480 0
DWIDTH 5 0
BBX 8 8 0 -1
BITMAP
24
FF
11
95
55
25
51
83
ENDCHAR
STARTCHAR 3424
ENCODING 13348
SWIDTH 480 0
DWIDTH 5 0
BBX 8 8 0 -1
BITMAP
FF
20
3C
24
34
24
3D
E7
ENDCHAR
STARTCHAR 3425
ENCODING 13349
SWIDTH 480 0
DWIDTH 5 0
BBX 8 8 0 -1
BITMAP
24
F7
28
77
52
74
F9
27
ENDCHAR
STARTCHAR 3426
ENCODING 13350
SWIDTH 480 0
DWIDTH 5 0
BBX 8 8 0 -1
BITMAP
3F
51
DF
40
55
55
55
61
ENDCHAR
STARTCHAR 3427
ENCODING 13351
SWIDTH 480 0
DWIDTH 5 0
BBX 8 8 0 -1
BITMAP
FF
81
62
0F
F2
6A
66
BF
ENDCHAR
STARTCHAR 3428
ENCODING 13352
SWIDTH 480 0
DWIDTH 5 0
BBX 8 8 0 -1
BITMAP
08
FF
95
7E
14
FF
22
CD
ENDCHAR
STARTCHAR 3429
ENCODING 13353
SWIDTH 480 0
DWIDTH 5 0
BBX 8 8 0 -1
BITMAP
71
25
25
F5
25
25
21
23
ENDCHAR
STARTCHAR 342a
ENCODING 13354
SWIDTH 480 0
DWIDTH 5 0
BBX 8 8 0 -1
BITMAP
54
FF
55
75
55
FD
A5
FB
ENDCHAR
STARTCHAR 342b
ENCODING 13355
SWIDTH 480 0
DWIDTH 5 0
BBX 8 8 0 -1
BITMAP
44
7F
A5
7D
D5
7D
55
7B
ENDCHAR
STARTCHAR 342c
ENCODING 13356
SWIDTH 480 0
DWIDTH 5 0
BBX 8 8 0 -1
BITMAP
52
FF
24
FF
46
BD
20
3C
ENDCHAR
STARTCHAR 342d
ENCODING 13357
SWIDTH 480 0
DWIDTH 5 0
BBX 8 8 0 -1
BITMAP
0C
F4
BF
B5
BB
FF
04
1B
ENDCHAR
STARTCHAR 342e
ENCODING 13358
SWIDTH 480 0
DWIDTH 5 0
BBX 8 8 0 -1
BITMAP
4A
5F
EA
4E
4A
7F
D4
1F
ENDCHAR
STARTCHAR 342f
ENCODING 13359
SWIDTH 480 0
DWIDTH 5 0
BBX 8 8 0 -1
BITMAP
08
3E
14
2A
FF
55
22
D5
ENDCHAR
STARTCHAR 3430
ENCODING 13360
SWIDTH 480 0
DWIDTH 5 0
BBX 8 8 0 -1
BITMAP
08
FF
81
3C
7E
28
29
CF
ENDCHAR
STARTCHAR 3431
ENCODING 13361
SWIDTH 480 0
DWIDTH 5 0
BBX 8 8 0 -1
BITMAP
08
FF
BD
24
3C
3E
22
3E
ENDCHAR
STARTCHAR 3432
ENCODING 13362
SWIDTH 480 0
DWIDTH 5 0
BBX 8 8 0 -1
BITMAP
08
FF
A5
7E
3C
24
3D
EF
ENDCHAR
STARTCHAR 3433
ENCODING 13363
SWIDTH 480 0
DWIDTH 5 0
BBX 8 8 0 -1
BITMAP
7E
08
08
FF
08
08
08
08
ENDCHAR
STARTCHAR 3434
ENCODING 13364
SWIDTH 480 0
DWIDTH 5 0
BBX 8 8 0 -1
BITMAP
22
F5
28
77
52
7F
F2
22
ENDCHAR
STARTCHAR 3435
ENCODING 13365
SWIDTH 480 0
DWIDTH 5 0
BBX 8 8 0 -1
BITMAP
08
3E
2A
7F
49
7F
AA
9D
ENDCHAR
STARTCHAR 3436
ENCODING 13366
SWIDTH 480 0
DWIDTH 5 0
BBX 8 8 0 -1
BITMAP
05
7F
45
72
B5
00
AA
9D
ENDCHAR
STARTCHAR 3437
ENCODING 13367
SWIDTH 480 0
DWIDTH 5 0
BBX 8 8 0 -1
BITMAP
4E
5B
EE
CF
49
4F
4F
59
ENDCHAR
STARTCHAR 3438
ENCODING 13368
SWIDTH 480 0
DWIDTH 5 0
BBX 8 8 0 -1
BITMAP
43
5F
F2
DA
5D
62
59
6E
ENDCHAR
STARTCHAR 3439
ENCODING 13369
SWIDTH 480 0
DWIDTH 5 0
BBX 8 8 0 -1
BITMAP
4C
F4
5F
55
7B
DF
44
5B
ENDCHAR
STARTCHAR 343a
ENCODING 13370
SWIDTH 480 0
DWIDTH 5 0
BBX 8 8 0 -1
BITMAP
E8
48
EF
B2
EA
A4
E4
3B
ENDCHAR
STARTCHAR 343b
ENCODING 13371
SWIDTH 480 0
DWIDTH 5 0
BBX 8 8 0 -1
BITMAP
4A
FF
4A
EA
CE
4A
4A
4E
ENDCHAR
STARTCHAR 343c
ENCODING 13372
SWIDTH 480 0
DWIDTH 5 0
BBX 8 8 0 -1
BITMAP
5F
E0
4E
EA
CE
4A
4E
5F
ENDCHAR
STARTCHAR 343d
ENCODING 13373
SWIDTH 480 0
DWIDTH 5 0
BBX 8 8 0 -1
BITMAP
44
FF
51
EE
CA
4F
49
4F
ENDCHAR
STARTCHAR 343e
ENCODING 13374
SWIDTH 480 0
DWIDTH 5 0
BBX 8 8 0 -1
BITMAP
48
E8
4F
F5
04
E4
4A
F1
ENDCHAR
STARTCHAR 343f
ENCODING 13375
SWIDTH 480 0
DWIDTH 5 0
BBX 8 8 0 -1
BITMAP
44
74
A7
7B
D2
7A
52
7D
ENDCHAR
STARTCHAR 3440
ENCODING 13376
SWIDTH 480 0
DWIDTH 5 0
BBX 8 8 0 -1
BITMAP
9F
44
84
5F
04
44
44
84
ENDCHAR
STARTCHAR 3441
ENCODING 13377
SWIDTH 480 0
DWIDTH 5 0
BBX 8 8 0 -1
BITMAP
94
7F
BE
2A
3E
7F
48
B7
ENDCHAR
STARTCHAR 3442
ENCODING 13378
SWIDTH 480 0
DWIDTH 5 0
BBX 8 8 0 -1
BITMAP
BF
6D
BF
61
2D
6D
6D
A1
ENDCHAR
STARTCHAR 3443
ENCODING 13379
SWIDTH 480 0
DWIDTH 5 0
BBX 8 8 0 -1
BITMAP
88
4F
94
4F
1A
4F
4A
8F
ENDCHAR
STARTCHAR 3444
ENCODING 13380
SWIDTH 480 0
DWIDTH 5 0
BBX 8 8 0 -1
BITMAP
FF
55
5F
FF
52
7E
DA
2D
ENDCHAR
STARTCHAR 3445
ENCODING 13381
SWIDTH 480 0
DWIDTH 5 0
BBX 8 8 0 -1
BITMAP
24
FF
24
24
3C
24
24
3C
ENDCHAR
STARTCHAR 3446
ENCODING 13382
SWIDTH 480 0
DWIDTH 5 0
BBX 8 8 0 -1
BITMAP
F4
A7
F8
A7
F0
7F
55
FF
ENDCHAR
STARTCHAR 3447
ENCODING 13383
SWIDTH 480 0
DWIDTH 5 0
BBX 8 8 0 -1
BITMAP
06
78
7E
10
FF
62
A2
3E
ENDCHAR
STARTCHAR 3448
ENCODING 13384
SWIDTH 480 0
DWIDTH 5 0
BBX 8 8 0 -1
BITMAP
44
77
A2
7E
08
FF
08
08
ENDCHAR
STARTCHAR 3449
ENCODING 13385
SWIDTH 480 0
DWIDTH 5 0
BBX 8 8 0 -1
BITMAP
44
77
AA
FF
A5
3E
22
3E
ENDCHAR
STARTCHAR 344a
ENCODING 13386
SWIDTH 480 0
DWIDTH 5 0
BBX 8 8 0 -1
BITMAP
44
77
AA
77
55
7F
55
5D
ENDCHAR
STARTCHAR 344b
ENCODING 13387
SWIDTH 480 0
DWIDTH 5 0
BBX 8 8 0 -1
BITMAP
42
BD
55
88
FF
4A
F4
4B
ENDCHAR
STARTCHAR 344c
ENCODING 13388
SWIDTH 480 0
DWIDTH 5 0
BBX 8 8 0 -1
BITMAP
20
3E
48
08
FF
08
49
7F
ENDCHAR
STARTCHAR 344d
ENCODING 13389
SWIDTH 480 0
DWIDTH 5 0
BBX 8 8 0 -1
BITMAP
22
F5
28
7F
55
7F
F5
2F
ENDCHAR
STARTCHAR 344e
ENCODING 13390
SWIDTH 480 0
DWIDTH 5 0
BBX 8 8 0 -1
BITMAP
7F
52
72
5F
72
52
52
92
ENDCHAR
STARTCHAR 344f
ENCODING 13391
SWIDTH 480 0
DWIDTH 5 0
BBX 8 8 0 -1
BITMAP
2E
7B
5C
5B
FC
5E
5A
9F
ENDCHAR
STARTCHAR 3450
ENCODING 13392
SWIDTH 480 0
DWIDTH 5 0
BBX 8 8 0 -1
BITMAP
24
FF
FF
81
3C
FF
28
CF
ENDCHAR
STARTCHAR 3451
ENCODING 13393
SWIDTH 480 0
DWIDTH 5 0
BBX 8 8 0 -1
BITMAP
47
75
A7
7F
D5
7F
56
7B
ENDCHAR
STARTCHAR 3452
ENCODING 13394
SWIDTH 480 0
DWIDTH 5 0
BBX 8 8 0 -1
BITMAP
44
FF
15
FF
15
FF
AE
F5
ENDCHAR
STARTCHAR 3453
ENCODING 13395
SWIDTH 480 0
DWIDTH 5 0
BBX 8 8 0 -1
BITMAP
3E
2A
FF
2A
3E
22
3E
E3
ENDCHAR
STARTCHAR 3454
ENCODING 13396
SWIDTH 480 0
DWIDTH 5 0
BBX 8 8 0 -1
BITMAP
9F
15
3F
D2
5E
5C
6B
BF
ENDCHAR
STARTCHAR 3455
ENCODING 13397
SWIDTH 480 0
DWIDTH 5 0
BBX 8 8 0 -1
BITMAP
5C
B7
F8
57
F8
4E
EA
DF
ENDCHAR
STARTCHAR 3456
ENCODING 13398
SWIDTH 480 0
DWIDTH 5 0
BBX 8 8 0 -1
BITMAP
E7
A5
E7
9D
95
9D
95
9D
ENDCHAR
STARTCHAR 3457
ENCODING 13399
SWIDTH 480 0
DWIDTH 5 0
BBX 8 8 0 -1
BITMAP
E7
A5
E7
89
BF
89
9D
AB
ENDCHAR
STARTCHAR 3458
ENCODING 13400
SWIDTH 480 0
DWIDTH 5 0
BBX 8 8 0 -1
BITMAP
E7
A5
E7
A5
99
BD
99
A5
ENDCHAR
STARTCHAR 3459
ENCODING 13401
SWIDTH 480 0
DWIDTH 5 0
BBX 8 8 0 -1
BITMAP
E7
A9
C2
B7
B5
D7
95
97
ENDCHAR
STARTCHAR 345a
ENCODING 13402
SWIDTH 480 0
DWIDTH 5 0
BBX 8 8 0 -1
BITMAP
24
F6
2F
79
5F
7A
FF
22
ENDCHAR
STARTCHAR 345b
ENCODING 13403
SWIDTH 480 0
DWIDTH 5 0
BBX 8 8 0 -1
BITMAP
44
BF
11
EE
AA
EF
89
EF
ENDCHAR
STARTCHAR 345c
ENCODING 13404
SWIDTH 480 0
DWIDTH 5 0
BBX 8 8 0 -1
BITMAP
44
BF
51
EE
4A
EF
A9
EF
ENDCHAR
STARTCHAR 345d
ENCODING 13405
SWIDTH 480 0
DWIDTH 5 0
BBX 8 8 0 -1
BITMAP
10
EC
14
14
54
24
55
87
ENDCHAR
STARTCHAR 345e
ENCODING 13406
SWIDTH 480 0
DWIDTH 5 0
BBX 8 8 0 -1
BITMAP
18
24
DB
3C
08
7E
42
7E
ENDCHAR
STARTCHAR 345f
ENCODING 13407
SWIDTH 480 0
DWIDTH 5 0
BBX 8 8 0 -1
BITMAP
49
7F
00
7F
5E
44
7F
84
ENDCHAR
STARTCHAR 3460
ENCODING 13408
SWIDTH 480 0
DWIDTH 5 0
BBX 8 8 0 -1
BITMAP
49
7F
2A
7F
74
57
7A
95
ENDCHAR
STARTCHAR 3461
ENCODING 13409
SWIDTH 480 0
DWIDTH 5 0
BBX 8 8 0 -1
BITMAP
EE
40
5F
EA
4A
6A
CA
13
ENDCHAR
STARTCHAR 3462
ENCODING 13410
SWIDTH 480 0
DWIDTH 5 0
BBX 8 8 0 -1
BITMAP
08
7F
54
FF
6D
FF
55
9F
ENDCHAR
STARTCHAR 3463
ENCODING 13411
SWIDTH 480 0
DWIDTH 5 0
BBX 8 8 0 -1
BITMAP
FE
B2
FE
B2
FE
B5
F6
19
ENDCHAR
STARTCHAR 3464
ENCODING 13412
SWIDTH 480 0
DWIDTH 5 0
BBX 8 8 0 -1
BITMAP
49
7F
00
FF
20
7F
A1
3F
ENDCHAR
STARTCHAR 3465
ENCODING 13413
SWIDTH 480 0
DWIDTH 5 0
BBX 8 8 0 -1
BITMAP
D8
4E
D8
4F
2E
F6
96
FB
ENDCHAR
STARTCHAR 3466
ENCODING 13414
SWIDTH 480 0
DWIDTH 5 0
BBX 8 8 0 -1
BITMAP
7F
54
5F
74
5F
52
5E
B3
ENDCHAR
STARTCHAR 3467
ENCODING 13415
SWIDTH 480 0
DWIDTH 5 0
BBX 8 8 0 -1
BITMAP
7F
50
5A
7F
5A
5F
5A
9F
ENDCHAR
STARTCHAR 3468
ENCODING 13416
SWIDTH 480 0
DWIDTH 5 0
BBX 8 8 0 -1
BITMAP
0F
64
0F
F9
6F
69
6F
B9
ENDCHAR
STARTCHAR 3469
ENCODING 13417
SWIDTH 480 0
DWIDTH 5 0
BBX 8 8 0 -1
BITMAP
27
FA
57
FD
97
E5
97
ED
ENDCHAR
STARTCHAR 346a
ENCODING 13418
SWIDTH 480 0
DWIDTH 5 0
BBX 8 8 0 -1
BITMAP
7F
52
7F
6D
7F
55
7F
95
ENDCHAR
STARTCHAR 346b
ENCODING 13419
SWIDTH 480 0
DWIDTH 5 0
BBX 8 8 0 -1
BITMAP
18
24
C3
08
2E
28
28
FF
ENDCHAR
STARTCHAR 346c
ENCODING 13420
SWIDTH 480 0
DWIDTH 5 0
BBX 8 8 0 -1
BITMAP
24
5F
C4
5F
51
4A
44
5B
ENDCHAR
STARTCHAR 346d
ENCODING 13421
SWIDTH 480 0
DWIDTH 5 0
BBX 8 8 0 -1
BITMAP
3C
C8
7F
5E
52
56
51
9F
ENDCHAR
STARTCHAR 346e
ENCODING 13422
SWIDTH 480 0
DWIDTH 5 0
BBX 8 8 0 -1
BITMAP
08
FF
7E
24
FF
7E
42
7E
ENDCHAR
STARTCHAR 346f
ENCODING 13423
SWIDTH 480 0
DWIDTH 5 0
BBX 8 8 0 -1
BITMAP
77
5D
FF
14
E3
77
55
77
ENDCHAR
STARTCHAR 3470
ENCODING 13424
SWIDTH 480 0
DWIDTH 5 0
BBX 8 8 0 -1
BITMAP
24
7E
24
24
FF
4A
9D
3E
ENDCHAR
STARTCHAR 3471
ENCODING 13425
SWIDTH 480 0
DWIDTH 5 0
BBX 8 8 0 -1
BITMAP
08
7E
14
62
FF
52
72
06
ENDCHAR
STARTCHAR 3472
ENCODING 13426
SWIDTH 480 0
DWIDTH 5 0
BBX 8 8 0 -1
BITMAP
44
5F
EE
6A
AE
DF
6A
8E
ENDCHAR
STARTCHAR 3473
ENCODING 13427
SWIDTH 480 0
DWIDTH 5 0
BBX 8 8 0 -1
BITMAP
08
FF
91
7E
24
FF
52
76
ENDCHAR
STARTCHAR 3474
ENCODING 13428
SWIDTH 480 0
DWIDTH 5 0
BBX 8 8 0 -1
BITMAP
44
5F
44
FF
F1
EA
E4
1B
ENDCHAR
STARTCHAR 3475
ENCODING 13429
SWIDTH 480 0
DWIDTH 5 0
BBX 8 8 0 -1
BITMAP
24
18
64
FF
28
7E
AA
2A
ENDCHAR
STARTCHAR 3476
ENCODING 13430
SWIDTH 480 0
DWIDTH 5 0
BBX 8 8 0 -1
BITMAP
29
4A
29
4A
FF
4A
44
AB
ENDCHAR
STARTCHAR 3477
ENCODING 13431
SWIDTH 480 0
DWIDTH 5 0
BBX 8 8 0 -1
BITMAP
7E
02
7E
41
7F
2A
A5
9D
ENDCHAR
STARTCHAR 3478
ENCODING 13432
SWIDTH 480 0
DWIDTH 5 0
BBX 8 8 0 -1
BITMAP
5F
F5
5F
6E
CE
44
5F
44
ENDCHAR
STARTCHAR 3479
ENCODING 13433
SWIDTH 480 0
DWIDTH 5 0
BBX 8 8 0 -1
BITMAP
2E
FA
2A
7A
6A
AA
2A
33
ENDCHAR
STARTCHAR 347a
ENCODING 13434
SWIDTH 480 0
DWIDTH 5 0
BBX 8 8 0 -1
BITMAP
48
EF
56
7F
56
5F
56
A9
ENDCHAR
STARTCHAR 347b
ENCODING 13435
SWIDTH 480 0
DWIDTH 5 0
BBX 8 8 0 -1
BITMAP
EF
AA
EA
BF
E6
86
AA
D3
ENDCHAR
STARTCHAR 347c
ENCODING 13436
SWIDTH 480 0
DWIDTH 5 0
BBX 8 8 0 -1
BITMAP
57
FD
57
75
57
FD
55
8B
ENDCHAR
STARTCHAR 347d
ENCODING 13437
SWIDTH 480 0
DWIDTH 5 0
BBX 8 8 0 -1
BITMAP
4A
FF
4A
EE
CA
5F
4A
51
ENDCHAR
STARTCHAR 347e
ENCODING 13438
SWIDTH 480 0
DWIDTH 5 0
BBX 8 8 0 -1
BITMAP
08
FF
22
7D
2A
FF
2A
C9
ENDCHAR
STARTCHAR 3521
ENCODING 13601
SWIDTH 480 0
DWIDTH 5 0
BBX 8 8 0 -1
BITMAP
49
F2
49
F2
DF
4B
52
45
ENDCHAR
STARTCHAR 3522
ENCODING 13602
SWIDTH 480 0
DWIDTH 5 0
BBX 8 8 0 -1
BITMAP
2E
A2
AE
BF
B5
2E
2E
44
ENDCHAR
STARTCHAR 3523
ENCODING 13603
SWIDTH 480 0
DWIDTH 5 0
BBX 8 8 0 -1
BITMAP
4E
FA
AB
F0
4E
AA
64
BB
ENDCHAR
STARTCHAR 3524
ENCODING 13604
SWIDTH 480 0
DWIDTH 5 0
BBX 8 8 0 -1
BITMAP
40
7E
80
38
FC
54
25
D3
ENDCHAR
STARTCHAR 3525
ENCODING 13605
SWIDTH 480 0
DWIDTH 5 0
BBX 8 8 0 -1
BITMAP
90
5F
A0
4C
1E
42
42
81
ENDCHAR
STARTCHAR 3526
ENCODING 13606
SWIDTH 480 0
DWIDTH 5 0
BBX 8 8 0 -1
BITMAP
29
4A
29
4A
FF
7A
54
7B
ENDCHAR
STARTCHAR 3527
ENCODING 13607
SWIDTH 480 0
DWIDTH 5 0
BBX 8 8 0 -1
BITMAP
42
EC
28
2F
4A
EA
4A
52
ENDCHAR
STARTCHAR 3528
ENCODING 13608
SWIDTH 480 0
DWIDTH 5 0
BBX 8 8 0 -1
BITMAP
3E
08
FF
2A
DD
08
FF
18
ENDCHAR
STARTCHAR 3529
ENCODING 13609
SWIDTH 480 0
DWIDTH 5 0
BBX 8 8 0 -1
BITMAP
2A
C4
5A
FF
54
FF
D5
55
ENDCHAR
STARTCHAR 352a
ENCODING 13610
SWIDTH 480 0
DWIDTH 5 0
BBX 8 8 0 -1
BITMAP
4F
A1
41
8F
E8
48
E9
4F
ENDCHAR
STARTCHAR 352b
ENCODING 13611
SWIDTH 480 0
DWIDTH 5 0
BBX 8 8 0 -1
BITMAP
52
BF
55
ED
52
7A
7A
55
ENDCHAR
STARTCHAR 352c
ENCODING 13612
SWIDTH 480 0
DWIDTH 5 0
BBX 8 8 0 -1
BITMAP
4F
E9
4F
EF
49
4F
A6
9B
ENDCHAR
STARTCHAR 352d
ENCODING 13613
SWIDTH 480 0
DWIDTH 5 0
BBX 8 8 0 -1
BITMAP
4F
E1
01
EF
08
E8
A9
EF
ENDCHAR
STARTCHAR 352e
ENCODING 13614
SWIDTH 480 0
DWIDTH 5 0
BBX 8 8 0 -1
BITMAP
08
3E
FF
22
3E
22
3E
E3
ENDCHAR
STARTCHAR 352f
ENCODING 13615
SWIDTH 480 0
DWIDTH 5 0
BBX 8 8 0 -1
BITMAP
27
71
27
FC
24
77
60
9F
ENDCHAR
STARTCHAR 3530
ENCODING 13616
SWIDTH 480 0
DWIDTH 5 0
BBX 8 8 0 -1
BITMAP
48
E8
5E
EA
EA
4A
EA
53
ENDCHAR
STARTCHAR 3531
ENCODING 13617
SWIDTH 480 0
DWIDTH 5 0
BBX 8 8 0 -1
BITMAP
3F
B5
7F
2E
FE
64
7F
84
ENDCHAR
STARTCHAR 3532
ENCODING 13618
SWIDTH 480 0
DWIDTH 5 0
BBX 8 8 0 -1
BITMAP
4E
AA
0A
EA
AA
EA
8A
F3
ENDCHAR
STARTCHAR 3533
ENCODING 13619
SWIDTH 480 0
DWIDTH 5 0
BBX 8 8 0 -1
BITMAP
E4
DF
EA
D1
FF
35
BD
43
ENDCHAR
STARTCHAR 3534
ENCODING 13620
SWIDTH 480 0
DWIDTH 5 0
BBX 8 8 0 -1
BITMAP
20
7E
7E
4A
7E
2A
2D
CF
ENDCHAR
STARTCHAR 3535
ENCODING 13621
SWIDTH 480 0
DWIDTH 5 0
BBX 8 8 0 -1
BITMAP
70
FC
54
FE
92
FE
11
1F
ENDCHAR
STARTCHAR 3536
ENCODING 13622
SWIDTH 480 0
DWIDTH 5 0
BBX 8 8 0 -1
BITMAP
34
5E
CA
4F
51
5F
61
5B
ENDCHAR
STARTCHAR 3537
ENCODING 13623
SWIDTH 480 0
DWIDTH 5 0
BBX 8 8 0 -1
BITMAP
2A
5F
C4
5F
4C
5F
4A
5D
ENDCHAR
STARTCHAR 3538
ENCODING 13624
SWIDTH 480 0
DWIDTH 5 0
BBX 8 8 0 -1
BITMAP
44
5F
E4
7F
B1
CA
64
9B
ENDCHAR
STARTCHAR 3539
ENCODING 13625
SWIDTH 480 0
DWIDTH 5 0
BBX 8 8 0 -1
BITMAP
08
FF
81
3C
24
3C
24
FF
ENDCHAR
STARTCHAR 353a
ENCODING 13626
SWIDTH 480 0
DWIDTH 5 0
BBX 8 8 0 -1
BITMAP
35
F4
BF
E4
B5
FA
B2
FD
ENDCHAR
STARTCHAR 353b
ENCODING 13627
SWIDTH 480 0
DWIDTH 5 0
BBX 8 8 0 -1
BITMAP
44
FF
44
7F
D1
4A
44
5B
ENDCHAR
STARTCHAR 353c
ENCODING 13628
SWIDTH 480 0
DWIDTH 5 0
BBX 8 8 0 -1
BITMAP
57
FA
57
5B
66
FF
56
69
ENDCHAR
STARTCHAR 353d
ENCODING 13629
SWIDTH 480 0
DWIDTH 5 0
BBX 8 8 0 -1
BITMAP
54
FC
57
7B
52
FA
52
8D
ENDCHAR
STARTCHAR 353e
ENCODING 13630
SWIDTH 480 0
DWIDTH 5 0
BBX 8 8 0 -1
BITMAP
CA
FF
C4
5F
6C
DF
4A
5D
ENDCHAR
STARTCHAR 353f
ENCODING 13631
SWIDTH 480 0
DWIDTH 5 0
BBX 8 8 0 -1
BITMAP
AF
C5
82
EF
85
EE
4C
B3
ENDCHAR
STARTCHAR 3540
ENCODING 13632
SWIDTH 480 0
DWIDTH 5 0
BBX 8 8 0 -1
BITMAP
42
FC
34
3F
54
F4
52
59
ENDCHAR
STARTCHAR 3541
ENCODING 13633
SWIDTH 480 0
DWIDTH 5 0
BBX 8 8 0 -1
BITMAP
14
7F
08
FF
25
FF
24
6B
ENDCHAR
STARTCHAR 3542
ENCODING 13634
SWIDTH 480 0
DWIDTH 5 0
BBX 8 8 0 -1
BITMAP
4A
5F
E4
BF
EC
5F
6A
DD
ENDCHAR
STARTCHAR 3543
ENCODING 13635
SWIDTH 480 0
DWIDTH 5 0
BBX 8 8 0 -1
BITMAP
44
FF
11
EE
0A
EE
AA
FF
ENDCHAR
STARTCHAR 3544
ENCODING 13636
SWIDTH 480 0
DWIDTH 5 0
BBX 8 8 0 -1
BITMAP
4A
FF
04
FF
0C
FF
AA
FD
ENDCHAR
STARTCHAR 3545
ENCODING 13637
SWIDTH 480 0
DWIDTH 5 0
BBX 8 8 0 -1
BITMAP
48
EF
51
4B
65
CF
45
4B
ENDCHAR
STARTCHAR 3546
ENCODING 13638
SWIDTH 480 0
DWIDTH 5 0
BBX 8 8 0 -1
BITMAP
24
FF
40
7F
81
55
39
57
ENDCHAR
STARTCHAR 3547
ENCODING 13639
SWIDTH 480 0
DWIDTH 5 0
BBX 8 8 0 -1
BITMAP
A8
EF
51
EB
E5
4F
E5
4B
ENDCHAR
STARTCHAR 3548
ENCODING 13640
SWIDTH 480 0
DWIDTH 5 0
BBX 8 8 0 -1
BITMAP
08
FF
08
7E
00
7E
42
7E
ENDCHAR
STARTCHAR 3549
ENCODING 13641
SWIDTH 480 0
DWIDTH 5 0
BBX 8 8 0 -1
BITMAP
08
EF
B0
AE
A4
E8
11
0F
ENDCHAR
STARTCHAR 354a
ENCODING 13642
SWIDTH 480 0
DWIDTH 5 0
BBX 8 8 0 -1
BITMAP
17
FB
D3
FD
C4
DF
04
1B
ENDCHAR
STARTCHAR 354b
ENCODING 13643
SWIDTH 480 0
DWIDTH 5 0
BBX 8 8 0 -1
BITMAP
24
FF
24
7F
60
AF
29
2F
ENDCHAR
STARTCHAR 354c
ENCODING 13644
SWIDTH 480 0
DWIDTH 5 0
BBX 8 8 0 -1
BITMAP
5E
E4
5F
ED
D4
5F
5B
55
ENDCHAR
STARTCHAR 354d
ENCODING 13645
SWIDTH 480 0
DWIDTH 5 0
BBX 8 8 0 -1
BITMAP
44
EF
04
EF
00
EF
A9
EF
ENDCHAR
STARTCHAR 354e
ENCODING 13646
SWIDTH 480 0
DWIDTH 5 0
BBX 8 8 0 -1
BITMAP
E4
47
44
74
DF
59
79
0F
ENDCHAR
STARTCHAR 354f
ENCODING 13647
SWIDTH 480 0
DWIDTH 5 0
BBX 8 8 0 -1
BITMAP
48
EF
54
E4
DF
44
44
44
ENDCHAR
STARTCHAR 3550
ENCODING 13648
SWIDTH 480 0
DWIDTH 5 0
BBX 8 8 0 -1
BITMAP
3E
08
FF
2A
DD
6B
1C
EB
ENDCHAR
STARTCHAR 3551
ENCODING 13649
SWIDTH 480 0
DWIDTH 5 0
BBX 8 8 0 -1
BITMAP
27
75
25
FD
25
57
F4
04
ENDCHAR
STARTCHAR 3552
ENCODING 13650
SWIDTH 480 0
DWIDTH 5 0
BBX 8 8 0 -1
BITMAP
08
FF
9D
34
08
FF
22
3E
ENDCHAR
STARTCHAR 3553
ENCODING 13651
SWIDTH 480 0
DWIDTH 5 0
BBX 8 8 0 -1
BITMAP
EB
BF
EB
BF
EB
B7
BE
A2
ENDCHAR
STARTCHAR 3554
ENCODING 13652
SWIDTH 480 0
DWIDTH 5 0
BBX 8 8 0 -1
BITMAP
0E
7F
4E
79
4E
5F
50
9F
ENDCHAR
STARTCHAR 3555
ENCODING 13653
SWIDTH 480 0
DWIDTH 5 0
BBX 8 8 0 -1
BITMAP
8A
5F
04
D5
5F
44
48
BF
ENDCHAR
STARTCHAR 3556
ENCODING 13654
SWIDTH 480 0
DWIDTH 5 0
BBX 8 8 0 -1
BITMAP
06
38
20
3F
24
24
24
FF
ENDCHAR
STARTCHAR 3557
ENCODING 13655
SWIDTH 480 0
DWIDTH 5 0
BBX 8 8 0 -1
BITMAP
10
1E
12
22
44
0C
12
E1
ENDCHAR
STARTCHAR 3558
ENCODING 13656
SWIDTH 480 0
DWIDTH 5 0
BBX 8 8 0 -1
BITMAP
28
48
DE
4A
4A
4A
52
63
ENDCHAR
STARTCHAR 3559
ENCODING 13657
SWIDTH 480 0
DWIDTH 5 0
BBX 8 8 0 -1
BITMAP
24
44
DF
44
44
4E
55
44
ENDCHAR
STARTCHAR 355a
ENCODING 13658
SWIDTH 480 0
DWIDTH 5 0
BBX 8 8 0 -1
BITMAP
7E
22
24
3E
32
2A
44
BB
ENDCHAR
STARTCHAR 355b
ENCODING 13659
SWIDTH 480 0
DWIDTH 5 0
BBX 8 8 0 -1
BITMAP
0F
E9
AA
AF
A9
ED
12
2D
ENDCHAR
STARTCHAR 355c
ENCODING 13660
SWIDTH 480 0
DWIDTH 5 0
BBX 8 8 0 -1
BITMAP
08
FF
A5
3C
10
7E
42
7E
ENDCHAR
STARTCHAR 355d
ENCODING 13661
SWIDTH 480 0
DWIDTH 5 0
BBX 8 8 0 -1
BITMAP
7E
02
7E
80
FF
01
01
06
ENDCHAR
STARTCHAR 355e
ENCODING 13662
SWIDTH 480 0
DWIDTH 5 0
BBX 8 8 0 -1
BITMAP
38
48
7E
02
7E
2A
A1
9D
ENDCHAR
STARTCHAR 355f
ENCODING 13663
SWIDTH 480 0
DWIDTH 5 0
BBX 8 8 0 -1
BITMAP
34
24
F7
29
B5
62
B2
2D
ENDCHAR
STARTCHAR 3560
ENCODING 13664
SWIDTH 480 0
DWIDTH 5 0
BBX 8 8 0 -1
BITMAP
2F
F4
24
77
69
A1
21
26
ENDCHAR
STARTCHAR 3561
ENCODING 13665
SWIDTH 480 0
DWIDTH 5 0
BBX 8 8 0 -1
BITMAP
0A
FF
08
6A
1C
2A
C9
18
ENDCHAR
STARTCHAR 3562
ENCODING 13666
SWIDTH 480 0
DWIDTH 5 0
BBX 8 8 0 -1
BITMAP
8F
49
8A
4F
09
4D
52
AD
ENDCHAR
STARTCHAR 3563
ENCODING 13667
SWIDTH 480 0
DWIDTH 5 0
BBX 8 8 0 -1
BITMAP
84
5F
82
4A
0A
4A
44
9F
ENDCHAR
STARTCHAR 3564
ENCODING 13668
SWIDTH 480 0
DWIDTH 5 0
BBX 8 8 0 -1
BITMAP
3C
48
14
E3
28
49
14
E3
ENDCHAR
STARTCHAR 3565
ENCODING 13669
SWIDTH 480 0
DWIDTH 5 0
BBX 8 8 0 -1
BITMAP
E5
5F
44
F5
4E
6E
D5
04
ENDCHAR
STARTCHAR 3566
ENCODING 13670
SWIDTH 480 0
DWIDTH 5 0
BBX 8 8 0 -1
BITMAP
08
FF
A5
46
10
7C
25
C7
ENDCHAR
STARTCHAR 3567
ENCODING 13671
SWIDTH 480 0
DWIDTH 5 0
BBX 8 8 0 -1
BITMAP
08
FF
A5
46
74
57
F9
57
ENDCHAR
STARTCHAR 3568
ENCODING 13672
SWIDTH 480 0
DWIDTH 5 0
BBX 8 8 0 -1
BITMAP
44
77
A2
7C
3E
32
4C
B3
ENDCHAR
STARTCHAR 3569
ENCODING 13673
SWIDTH 480 0
DWIDTH 5 0
BBX 8 8 0 -1
BITMAP
4F
A9
4A
8F
E9
4D
EA
55
ENDCHAR
STARTCHAR 356a
ENCODING 13674
SWIDTH 480 0
DWIDTH 5 0
BBX 8 8 0 -1
BITMAP
42
AA
4A
8A
EB
5E
E2
42
ENDCHAR
STARTCHAR 356b
ENCODING 13675
SWIDTH 480 0
DWIDTH 5 0
BBX 8 8 0 -1
BITMAP
46
A9
50
8F
E0
4F
E9
4F
ENDCHAR
STARTCHAR 356c
ENCODING 13676
SWIDTH 480 0
DWIDTH 5 0
BBX 8 8 0 -1
BITMAP
5F
51
51
5F
51
51
51
5F
ENDCHAR
STARTCHAR 356d
ENCODING 13677
SWIDTH 480 0
DWIDTH 5 0
BBX 8 8 0 -1
BITMAP
48
48
7E
88
08
FF
08
08
ENDCHAR
STARTCHAR 356e
ENCODING 13678
SWIDTH 480 0
DWIDTH 5 0
BBX 8 8 0 -1
BITMAP
08
7E
08
08
FF
10
22
FD
ENDCHAR
STARTCHAR 356f
ENCODING 13679
SWIDTH 480 0
DWIDTH 5 0
BBX 8 8 0 -1
BITMAP
7F
7F
44
7F
44
5F
51
9F
ENDCHAR
STARTCHAR 3570
ENCODING 13680
SWIDTH 480 0
DWIDTH 5 0
BBX 8 8 0 -1
BITMAP
7F
40
7E
42
42
7E
40
7F
ENDCHAR
STARTCHAR 3571
ENCODING 13681
SWIDTH 480 0
DWIDTH 5 0
BBX 8 8 0 -1
BITMAP
4F
E8
4F
49
69
CF
48
4F
ENDCHAR
STARTCHAR 3572
ENCODING 13682
SWIDTH 480 0
DWIDTH 5 0
BBX 8 8 0 -1
BITMAP
58
FE
5A
5A
7A
EB
50
6F
ENDCHAR
STARTCHAR 3573
ENCODING 13683
SWIDTH 480 0
DWIDTH 5 0
BBX 8 8 0 -1
BITMAP
2A
FF
22
DD
3E
FF
08
18
ENDCHAR
STARTCHAR 3574
ENCODING 13684
SWIDTH 480 0
DWIDTH 5 0
BBX 8 8 0 -1
BITMAP
9F
90
5E
9F
08
FF
2A
C9
ENDCHAR
STARTCHAR 3575
ENCODING 13685
SWIDTH 480 0
DWIDTH 5 0
BBX 8 8 0 -1
BITMAP
0E
7F
48
5F
4F
40
6D
BF
ENDCHAR
STARTCHAR 3576
ENCODING 13686
SWIDTH 480 0
DWIDTH 5 0
BBX 8 8 0 -1
BITMAP
48
EF
14
E4
1F
E4
A4
E4
ENDCHAR
STARTCHAR 3577
ENCODING 13687
SWIDTH 480 0
DWIDTH 5 0
BBX 8 8 0 -1
BITMAP
EF
A8
EF
49
69
CF
C8
EF
ENDCHAR
STARTCHAR 3578
ENCODING 13688
SWIDTH 480 0
DWIDTH 5 0
BBX 8 8 0 -1
BITMAP
4F
AF
EA
4F
EA
4F
ED
D7
ENDCHAR
STARTCHAR 3579
ENCODING 13689
SWIDTH 480 0
DWIDTH 5 0
BBX 8 8 0 -1
BITMAP
8E
54
BF
55
1F
55
5F
AB
ENDCHAR
STARTCHAR 357a
ENCODING 13690
SWIDTH 480 0
DWIDTH 5 0
BBX 8 8 0 -1
BITMAP
53
BF
4B
DF
4A
3E
FF
6A
ENDCHAR
STARTCHAR 357b
ENCODING 13691
SWIDTH 480 0
DWIDTH 5 0
BBX 8 8 0 -1
BITMAP
38
C8
7E
4A
7E
4A
7E
95
ENDCHAR
STARTCHAR 357c
ENCODING 13692
SWIDTH 480 0
DWIDTH 5 0
BBX 8 8 0 -1
BITMAP
08
FF
22
7E
04
08
08
18
ENDCHAR
STARTCHAR 357d
ENCODING 13693
SWIDTH 480 0
DWIDTH 5 0
BBX 8 8 0 -1
BITMAP
08
FF
22
7E
04
FF
08
18
ENDCHAR
STARTCHAR 357e
ENCODING 13694
SWIDTH 480 0
DWIDTH 5 0
BBX 8 8 0 -1
BITMAP
08
FF
3E
22
3E
08
4A
99
ENDCHAR
STARTCHAR 3621
ENCODING 13857
SWIDTH 480 0
DWIDTH 5 0
BBX 8 8 0 -1
BITMAP
2A
4A
DF
4A
4A
5F
4A
51
ENDCHAR
STARTCHAR 3622
ENCODING 13858
SWIDTH 480 0
DWIDTH 5 0
BBX 8 8 0 -1
BITMAP
24
5F
C4
55
5F
44
4A
51
ENDCHAR
STARTCHAR 3623
ENCODING 13859
SWIDTH 480 0
DWIDTH 5 0
BBX 8 8 0 -1
BITMAP
2E
5F
CA
55
44
5F
51
55
ENDCHAR
STARTCHAR 3624
ENCODING 13860
SWIDTH 480 0
DWIDTH 5 0
BBX 8 8 0 -1
BITMAP
46
6A
52
6A
7E
28
29
CF
ENDCHAR
STARTCHAR 3625
ENCODING 13861
SWIDTH 480 0
DWIDTH 5 0
BBX 8 8 0 -1
BITMAP
22
F7
55
FF
55
77
66
BB
ENDCHAR
STARTCHAR 3626
ENCODING 13862
SWIDTH 480 0
DWIDTH 5 0
BBX 8 8 0 -1
BITMAP
24
24
FF
24
24
FF
24
C2
ENDCHAR
STARTCHAR 3627
ENCODING 13863
SWIDTH 480 0
DWIDTH 5 0
BBX 8 8 0 -1
BITMAP
81
A5
95
89
95
A3
81
FF
ENDCHAR
STARTCHAR 3628
ENCODING 13864
SWIDTH 480 0
DWIDTH 5 0
BBX 8 8 0 -1
BITMAP
48
5E
EA
40
52
7F
5B
5B
ENDCHAR
STARTCHAR 3629
ENCODING 13865
SWIDTH 480 0
DWIDTH 5 0
BBX 8 8 0 -1
BITMAP
FF
BE
88
BE
88
88
BE
FF
ENDCHAR
STARTCHAR 362a
ENCODING 13866
SWIDTH 480 0
DWIDTH 5 0
BBX 8 8 0 -1
BITMAP
5F
97
BF
B7
FF
B3
36
5A
ENDCHAR
STARTCHAR 362b
ENCODING 13867
SWIDTH 480 0
DWIDTH 5 0
BBX 8 8 0 -1
BITMAP
02
EA
AA
AA
AB
FE
02
02
ENDCHAR
STARTCHAR 362c
ENCODING 13868
SWIDTH 480 0
DWIDTH 5 0
BBX 8 8 0 -1
BITMAP
3E
FF
22
DD
14
7F
55
5D
ENDCHAR
STARTCHAR 362d
ENCODING 13869
SWIDTH 480 0
DWIDTH 5 0
BBX 8 8 0 -1
BITMAP
44
5F
EA
5F
49
6F
CA
13
ENDCHAR
STARTCHAR 362e
ENCODING 13870
SWIDTH 480 0
DWIDTH 5 0
BBX 8 8 0 -1
BITMAP
44
5F
44
F5
FF
E4
EA
11
ENDCHAR
STARTCHAR 362f
ENCODING 13871
SWIDTH 480 0
DWIDTH 5 0
BBX 8 8 0 -1
BITMAP
E9
3F
E4
9F
F5
3F
25
DF
ENDCHAR
STARTCHAR 3630
ENCODING 13872
SWIDTH 480 0
DWIDTH 5 0
BBX 8 8 0 -1
BITMAP
FF
2E
EE
9F
EE
2E
2E
DF
ENDCHAR
STARTCHAR 3631
ENCODING 13873
SWIDTH 480 0
DWIDTH 5 0
BBX 8 8 0 -1
BITMAP
44
5F
E4
C4
5F
44
49
5F
ENDCHAR
STARTCHAR 3632
ENCODING 13874
SWIDTH 480 0
DWIDTH 5 0
BBX 8 8 0 -1
BITMAP
EE
4A
6E
D3
00
2A
A5
9D
ENDCHAR
STARTCHAR 3633
ENCODING 13875
SWIDTH 480 0
DWIDTH 5 0
BBX 8 8 0 -1
BITMAP
24
7E
24
FF
24
D3
50
95
ENDCHAR
STARTCHAR 3634
ENCODING 13876
SWIDTH 480 0
DWIDTH 5 0
BBX 8 8 0 -1
BITMAP
44
FF
44
55
7F
C4
4A
51
ENDCHAR
STARTCHAR 3635
ENCODING 13877
SWIDTH 480 0
DWIDTH 5 0
BBX 8 8 0 -1
BITMAP
24
7C
27
F9
55
A2
72
2D
ENDCHAR
STARTCHAR 3636
ENCODING 13878
SWIDTH 480 0
DWIDTH 5 0
BBX 8 8 0 -1
BITMAP
4E
FF
4A
F5
C4
5F
51
55
ENDCHAR
STARTCHAR 3637
ENCODING 13879
SWIDTH 480 0
DWIDTH 5 0
BBX 8 8 0 -1
BITMAP
9F
51
91
5F
0A
4A
52
A3
ENDCHAR
STARTCHAR 3638
ENCODING 13880
SWIDTH 480 0
DWIDTH 5 0
BBX 8 8 0 -1
BITMAP
BF
44
64
BF
64
A4
24
5F
ENDCHAR
STARTCHAR 3639
ENCODING 13881
SWIDTH 480 0
DWIDTH 5 0
BBX 8 8 0 -1
BITMAP
A4
5F
64
B5
7F
A4
2A
51
ENDCHAR
STARTCHAR 363a
ENCODING 13882
SWIDTH 480 0
DWIDTH 5 0
BBX 8 8 0 -1
BITMAP
8E
FF
4A
F5
44
5F
B1
95
ENDCHAR
STARTCHAR 363b
ENCODING 13883
SWIDTH 480 0
DWIDTH 5 0
BBX 8 8 0 -1
BITMAP
E8
AF
F1
AB
ED
AF
A1
A3
ENDCHAR
STARTCHAR 363c
ENCODING 13884
SWIDTH 480 0
DWIDTH 5 0
BBX 8 8 0 -1
BITMAP
08
1E
4A
F7
55
3E
3E
22
ENDCHAR
STARTCHAR 363d
ENCODING 13885
SWIDTH 480 0
DWIDTH 5 0
BBX 8 8 0 -1
BITMAP
7F
5D
77
5D
77
FF
22
C1
ENDCHAR
STARTCHAR 363e
ENCODING 13886
SWIDTH 480 0
DWIDTH 5 0
BBX 8 8 0 -1
BITMAP
22
FF
1C
FF
36
DD
22
2A
ENDCHAR
STARTCHAR 363f
ENCODING 13887
SWIDTH 480 0
DWIDTH 5 0
BBX 8 8 0 -1
BITMAP
5F
B5
5E
B7
7D
33
56
9A
ENDCHAR
STARTCHAR 3640
ENCODING 13888
SWIDTH 480 0
DWIDTH 5 0
BBX 8 8 0 -1
BITMAP
44
BF
EA
5F
E9
4F
EA
D3
ENDCHAR
STARTCHAR 3641
ENCODING 13889
SWIDTH 480 0
DWIDTH 5 0
BBX 8 8 0 -1
BITMAP
5B
DB
F6
9B
3C
FF
24
3C
ENDCHAR
STARTCHAR 3642
ENCODING 13890
SWIDTH 480 0
DWIDTH 5 0
BBX 8 8 0 -1
BITMAP
5B
DB
F6
9B
3C
E7
3C
F3
ENDCHAR
STARTCHAR 3643
ENCODING 13891
SWIDTH 480 0
DWIDTH 5 0
BBX 8 8 0 -1
BITMAP
54
F7
7D
92
7D
7F
01
AA
ENDCHAR
STARTCHAR 3644
ENCODING 13892
SWIDTH 480 0
DWIDTH 5 0
BBX 8 8 0 -1
BITMAP
28
57
D5
55
55
5D
56
44
ENDCHAR
STARTCHAR 3645
ENCODING 13893
SWIDTH 480 0
DWIDTH 5 0
BBX 8 8 0 -1
BITMAP
A7
BA
27
3B
26
7F
56
A9
ENDCHAR
STARTCHAR 3646
ENCODING 13894
SWIDTH 480 0
DWIDTH 5 0
BBX 8 8 0 -1
BITMAP
08
7F
2A
FF
22
FF
14
E7
ENDCHAR
STARTCHAR 3647
ENCODING 13895
SWIDTH 480 0
DWIDTH 5 0
BBX 8 8 0 -1
BITMAP
04
FF
AE
FF
AA
BF
EA
13
ENDCHAR
STARTCHAR 3648
ENCODING 13896
SWIDTH 480 0
DWIDTH 5 0
BBX 8 8 0 -1
BITMAP
55
FF
14
7F
3E
7F
2A
C9
ENDCHAR
STARTCHAR 3649
ENCODING 13897
SWIDTH 480 0
DWIDTH 5 0
BBX 8 8 0 -1
BITMAP
7F
7F
40
7F
41
5D
55
9D
ENDCHAR
STARTCHAR 364a
ENCODING 13898
SWIDTH 480 0
DWIDTH 5 0
BBX 8 8 0 -1
BITMAP
14
7F
55
55
7F
55
55
7F
ENDCHAR
STARTCHAR 364b
ENCODING 13899
SWIDTH 480 0
DWIDTH 5 0
BBX 8 8 0 -1
BITMAP
5F
E4
47
FD
D6
5D
44
5F
ENDCHAR
STARTCHAR 364c
ENCODING 13900
SWIDTH 480 0
DWIDTH 5 0
BBX 8 8 0 -1
BITMAP
7F
08
08
7E
08
0A
0A
FF
ENDCHAR
STARTCHAR 364d
ENCODING 13901
SWIDTH 480 0
DWIDTH 5 0
BBX 8 8 0 -1
BITMAP
5F
F1
5F
F1
DF
5B
5F
51
ENDCHAR
STARTCHAR 364e
ENCODING 13902
SWIDTH 480 0
DWIDTH 5 0
BBX 8 8 0 -1
BITMAP
22
BC
24
FF
24
74
A4
24
ENDCHAR
STARTCHAR 364f
ENCODING 13903
SWIDTH 480 0
DWIDTH 5 0
BBX 8 8 0 -1
BITMAP
2A
5F
CA
5F
55
5F
4E
5F
ENDCHAR
STARTCHAR 3650
ENCODING 13904
SWIDTH 480 0
DWIDTH 5 0
BBX 8 8 0 -1
BITMAP
54
FF
55
FD
AD
FD
75
FB
ENDCHAR
STARTCHAR 3651
ENCODING 13905
SWIDTH 480 0
DWIDTH 5 0
BBX 8 8 0 -1
BITMAP
48
4F
F1
4D
45
69
C1
03
ENDCHAR
STARTCHAR 3652
ENCODING 13906
SWIDTH 480 0
DWIDTH 5 0
BBX 8 8 0 -1
BITMAP
08
7F
49
49
49
49
4B
08
ENDCHAR
STARTCHAR 3653
ENCODING 13907
SWIDTH 480 0
DWIDTH 5 0
BBX 8 8 0 -1
BITMAP
44
AF
E9
4F
E4
5F
F5
D5
ENDCHAR
STARTCHAR 3654
ENCODING 13908
SWIDTH 480 0
DWIDTH 5 0
BBX 8 8 0 -1
BITMAP
02
3C
20
3F
24
24
44
84
ENDCHAR
STARTCHAR 3655
ENCODING 13909
SWIDTH 480 0
DWIDTH 5 0
BBX 8 8 0 -1
BITMAP
28
48
4F
71
64
64
6A
B1
ENDCHAR
STARTCHAR 3656
ENCODING 13910
SWIDTH 480 0
DWIDTH 5 0
BBX 8 8 0 -1
BITMAP
48
A8
EF
55
E4
44
EA
D1
ENDCHAR
STARTCHAR 3657
ENCODING 13911
SWIDTH 480 0
DWIDTH 5 0
BBX 8 8 0 -1
BITMAP
E7
42
E7
18
24
DB
3C
08
ENDCHAR
STARTCHAR 3658
ENCODING 13912
SWIDTH 480 0
DWIDTH 5 0
BBX 8 8 0 -1
BITMAP
22
FF
77
AA
3E
FF
2A
C9
ENDCHAR
STARTCHAR 3659
ENCODING 13913
SWIDTH 480 0
DWIDTH 5 0
BBX 8 8 0 -1
BITMAP
18
24
FF
2C
34
FF
95
BB
ENDCHAR
STARTCHAR 365a
ENCODING 13914
SWIDTH 480 0
DWIDTH 5 0
BBX 8 8 0 -1
BITMAP
44
77
A2
74
5F
75
55
9B
ENDCHAR
STARTCHAR 365b
ENCODING 13915
SWIDTH 480 0
DWIDTH 5 0
BBX 8 8 0 -1
BITMAP
F7
A5
F2
F5
12
FD
2A
C9
ENDCHAR
STARTCHAR 365c
ENCODING 13916
SWIDTH 480 0
DWIDTH 5 0
BBX 8 8 0 -1
BITMAP
24
FF
04
78
40
7F
48
88
ENDCHAR
STARTCHAR 365d
ENCODING 13917
SWIDTH 480 0
DWIDTH 5 0
BBX 8 8 0 -1
BITMAP
22
FF
22
7F
7F
5D
6B
7F
ENDCHAR
STARTCHAR 365e
ENCODING 13918
SWIDTH 480 0
DWIDTH 5 0
BBX 8 8 0 -1
BITMAP
44
EA
31
4E
E0
6E
42
44
ENDCHAR
STARTCHAR 365f
ENCODING 13919
SWIDTH 480 0
DWIDTH 5 0
BBX 8 8 0 -1
BITMAP
4A
FF
2A
55
EE
7F
44
55
ENDCHAR
STARTCHAR 3660
ENCODING 13920
SWIDTH 480 0
DWIDTH 5 0
BBX 8 8 0 -1
BITMAP
4A
FF
0A
FF
15
FF
AE
FF
ENDCHAR
STARTCHAR 3661
ENCODING 13921
SWIDTH 480 0
DWIDTH 5 0
BBX 8 8 0 -1
BITMAP
82
5C
10
DF
52
52
62
BF
ENDCHAR
STARTCHAR 3662
ENCODING 13922
SWIDTH 480 0
DWIDTH 5 0
BBX 8 8 0 -1
BITMAP
08
14
22
DD
08
7F
2A
7F
ENDCHAR
STARTCHAR 3663
ENCODING 13923
SWIDTH 480 0
DWIDTH 5 0
BBX 8 8 0 -1
BITMAP
04
EA
B1
AE
A0
EE
02
04
ENDCHAR
STARTCHAR 3664
ENCODING 13924
SWIDTH 480 0
DWIDTH 5 0
BBX 8 8 0 -1
BITMAP
5E
B2
FE
52
FE
55
F6
D9
ENDCHAR
STARTCHAR 3665
ENCODING 13925
SWIDTH 480 0
DWIDTH 5 0
BBX 8 8 0 -1
BITMAP
10
10
FC
14
14
24
45
87
ENDCHAR
STARTCHAR 3666
ENCODING 13926
SWIDTH 480 0
DWIDTH 5 0
BBX 8 8 0 -1
BITMAP
3E
52
DE
52
5E
7F
52
61
ENDCHAR
STARTCHAR 3667
ENCODING 13927
SWIDTH 480 0
DWIDTH 5 0
BBX 8 8 0 -1
BITMAP
20
3F
41
BD
25
25
3D
03
ENDCHAR
STARTCHAR 3668
ENCODING 13928
SWIDTH 480 0
DWIDTH 5 0
BBX 8 8 0 -1
BITMAP
FF
80
A4
94
88
94
E0
FF
ENDCHAR
STARTCHAR 3669
ENCODING 13929
SWIDTH 480 0
DWIDTH 5 0
BBX 8 8 0 -1
BITMAP
A8
4F
71
AF
6B
AF
21
43
ENDCHAR
STARTCHAR 366a
ENCODING 13930
SWIDTH 480 0
DWIDTH 5 0
BBX 8 8 0 -1
BITMAP
E4
47
49
F1
42
64
CA
11
ENDCHAR
STARTCHAR 366b
ENCODING 13931
SWIDTH 480 0
DWIDTH 5 0
BBX 8 8 0 -1
BITMAP
4F
78
AF
29
F9
2F
58
8F
ENDCHAR
STARTCHAR 366c
ENCODING 13932
SWIDTH 480 0
DWIDTH 5 0
BBX 8 8 0 -1
BITMAP
22
FF
2A
FF
08
7E
42
7E
ENDCHAR
STARTCHAR 366d
ENCODING 13933
SWIDTH 480 0
DWIDTH 5 0
BBX 8 8 0 -1
BITMAP
4F
E8
AD
ED
AA
FD
68
AF
ENDCHAR
STARTCHAR 366e
ENCODING 13934
SWIDTH 480 0
DWIDTH 5 0
BBX 8 8 0 -1
BITMAP
EF
C8
ED
CD
EA
2D
A8
4F
ENDCHAR
STARTCHAR 366f
ENCODING 13935
SWIDTH 480 0
DWIDTH 5 0
BBX 8 8 0 -1
BITMAP
F1
A6
F4
A7
F5
15
D5
2F
ENDCHAR
STARTCHAR 3670
ENCODING 13936
SWIDTH 480 0
DWIDTH 5 0
BBX 8 8 0 -1
BITMAP
F4
A7
F9
A1
F5
15
D1
23
ENDCHAR
STARTCHAR 3671
ENCODING 13937
SWIDTH 480 0
DWIDTH 5 0
BBX 8 8 0 -1
BITMAP
3E
22
3E
22
3E
FF
22
41
ENDCHAR
STARTCHAR 3672
ENCODING 13938
SWIDTH 480 0
DWIDTH 5 0
BBX 8 8 0 -1
BITMAP
3E
2A
7F
4B
5D
20
AA
9D
ENDCHAR
STARTCHAR 3673
ENCODING 13939
SWIDTH 480 0
DWIDTH 5 0
BBX 8 8 0 -1
BITMAP
0E
7F
4E
79
4E
6A
7F
92
ENDCHAR
STARTCHAR 3674
ENCODING 13940
SWIDTH 480 0
DWIDTH 5 0
BBX 8 8 0 -1
BITMAP
04
EA
BF
AA
AE
ED
0A
0D
ENDCHAR
STARTCHAR 3675
ENCODING 13941
SWIDTH 480 0
DWIDTH 5 0
BBX 8 8 0 -1
BITMAP
08
FF
A5
46
00
7E
08
FF
ENDCHAR
STARTCHAR 3676
ENCODING 13942
SWIDTH 480 0
DWIDTH 5 0
BBX 8 8 0 -1
BITMAP
2F
4D
CF
44
5F
55
57
5D
ENDCHAR
STARTCHAR 3677
ENCODING 13943
SWIDTH 480 0
DWIDTH 5 0
BBX 8 8 0 -1
BITMAP
08
FF
AD
3C
2C
FF
8D
BB
ENDCHAR
STARTCHAR 3678
ENCODING 13944
SWIDTH 480 0
DWIDTH 5 0
BBX 8 8 0 -1
BITMAP
8F
4D
0F
C4
5F
57
5D
BF
ENDCHAR
STARTCHAR 3679
ENCODING 13945
SWIDTH 480 0
DWIDTH 5 0
BBX 8 8 0 -1
BITMAP
EF
AD
CF
A4
BF
D5
97
9D
ENDCHAR
STARTCHAR 367a
ENCODING 13946
SWIDTH 480 0
DWIDTH 5 0
BBX 8 8 0 -1
BITMAP
08
7E
4A
7E
FF
89
FF
08
ENDCHAR
STARTCHAR 367b
ENCODING 13947
SWIDTH 480 0
DWIDTH 5 0
BBX 8 8 0 -1
BITMAP
52
FB
49
FF
D7
5F
53
5A
ENDCHAR
STARTCHAR 367c
ENCODING 13948
SWIDTH 480 0
DWIDTH 5 0
BBX 8 8 0 -1
BITMAP
49
AD
ED
4D
ED
4D
E9
D1
ENDCHAR
STARTCHAR 367d
ENCODING 13949
SWIDTH 480 0
DWIDTH 5 0
BBX 8 8 0 -1
BITMAP
7F
41
7F
65
5F
51
5F
91
ENDCHAR
STARTCHAR 367e
ENCODING 13950
SWIDTH 480 0
DWIDTH 5 0
BBX 8 8 0 -1
BITMAP
7F
7F
44
55
5F
44
55
9F
ENDCHAR
STARTCHAR 3721
ENCODING 14113
SWIDTH 480 0
DWIDTH 5 0
BBX 8 8 0 -1
BITMAP
5F
FF
52
5B
7F
D2
5B
6F
ENDCHAR
STARTCHAR 3722
ENCODING 14114
SWIDTH 480 0
DWIDTH 5 0
BBX 8 8 0 -1
BITMAP
08
FF
A3
7F
7F
44
65
BF
ENDCHAR
STARTCHAR 3723
ENCODING 14115
SWIDTH 480 0
DWIDTH 5 0
BBX 8 8 0 -1
BITMAP
09
FE
2C
CB
3E
3E
22
3E
ENDCHAR
STARTCHAR 3724
ENCODING 14116
SWIDTH 480 0
DWIDTH 5 0
BBX 8 8 0 -1
BITMAP
A6
EA
5A
EB
EA
4A
EA
4B
ENDCHAR
STARTCHAR 3725
ENCODING 14117
SWIDTH 480 0
DWIDTH 5 0
BBX 8 8 0 -1
BITMAP
49
BE
5D
FF
49
3E
22
3E
ENDCHAR
STARTCHAR 3726
ENCODING 14118
SWIDTH 480 0
DWIDTH 5 0
BBX 8 8 0 -1
BITMAP
08
FF
A5
CE
04
DF
04
DF
ENDCHAR
STARTCHAR 3727
ENCODING 14119
SWIDTH 480 0
DWIDTH 5 0
BBX 8 8 0 -1
BITMAP
54
F7
74
57
74
57
00
95
ENDCHAR
STARTCHAR 3728
ENCODING 14120
SWIDTH 480 0
DWIDTH 5 0
BBX 8 8 0 -1
BITMAP
EF
AF
CF
A0
BF
CD
8A
9D
ENDCHAR
STARTCHAR 3729
ENCODING 14121
SWIDTH 480 0
DWIDTH 5 0
BBX 8 8 0 -1
BITMAP
3C
48
14
E3
2A
FF
2A
C9
ENDCHAR
STARTCHAR 372a
ENCODING 14122
SWIDTH 480 0
DWIDTH 5 0
BBX 8 8 0 -1
BITMAP
FF
7F
55
7F
08
FF
2A
C9
ENDCHAR
STARTCHAR 372b
ENCODING 14123
SWIDTH 480 0
DWIDTH 5 0
BBX 8 8 0 -1
BITMAP
4E
AA
5F
95
FF
44
EE
55
ENDCHAR
STARTCHAR 372c
ENCODING 14124
SWIDTH 480 0
DWIDTH 5 0
BBX 8 8 0 -1
BITMAP
1C
08
77
22
49
FF
2A
C9
ENDCHAR
STARTCHAR 372d
ENCODING 14125
SWIDTH 480 0
DWIDTH 5 0
BBX 8 8 0 -1
BITMAP
5E
AA
FF
4E
EA
5E
FA
CD
ENDCHAR
STARTCHAR 372e
ENCODING 14126
SWIDTH 480 0
DWIDTH 5 0
BBX 8 8 0 -1
BITMAP
74
FF
75
75
25
FB
00
95
ENDCHAR
STARTCHAR 372f
ENCODING 14127
SWIDTH 480 0
DWIDTH 5 0
BBX 8 8 0 -1
BITMAP
7E
12
FF
12
7E
3E
62
BE
ENDCHAR
STARTCHAR 3730
ENCODING 14128
SWIDTH 480 0
DWIDTH 5 0
BBX 8 8 0 -1
BITMAP
22
FF
1C
FF
2A
3E
FF
95
ENDCHAR
STARTCHAR 3731
ENCODING 14129
SWIDTH 480 0
DWIDTH 5 0
BBX 8 8 0 -1
BITMAP
49
ED
0D
ED
0D
ED
A9
F1
ENDCHAR
STARTCHAR 3732
ENCODING 14130
SWIDTH 480 0
DWIDTH 5 0
BBX 8 8 0 -1
BITMAP
F5
57
FA
57
F2
47
F2
72
ENDCHAR
STARTCHAR 3733
ENCODING 14131
SWIDTH 480 0
DWIDTH 5 0
BBX 8 8 0 -1
BITMAP
FF
89
FF
4A
7E
4A
FF
08
ENDCHAR
STARTCHAR 3734
ENCODING 14132
SWIDTH 480 0
DWIDTH 5 0
BBX 8 8 0 -1
BITMAP
F7
55
FE
55
F5
45
F6
74
ENDCHAR
STARTCHAR 3735
ENCODING 14133
SWIDTH 480 0
DWIDTH 5 0
BBX 8 8 0 -1
BITMAP
24
74
24
FE
25
74
24
FC
ENDCHAR
STARTCHAR 3736
ENCODING 14134
SWIDTH 480 0
DWIDTH 5 0
BBX 8 8 0 -1
BITMAP
47
F5
57
88
FF
6A
A4
33
ENDCHAR
STARTCHAR 3737
ENCODING 14135
SWIDTH 480 0
DWIDTH 5 0
BBX 8 8 0 -1
BITMAP
27
F5
16
25
75
A5
26
24
ENDCHAR
STARTCHAR 3738
ENCODING 14136
SWIDTH 480 0
DWIDTH 5 0
BBX 8 8 0 -1
BITMAP
27
58
CA
54
49
7F
54
65
ENDCHAR
STARTCHAR 3739
ENCODING 14137
SWIDTH 480 0
DWIDTH 5 0
BBX 8 8 0 -1
BITMAP
2F
44
EF
79
6F
79
4F
59
ENDCHAR
STARTCHAR 373a
ENCODING 14138
SWIDTH 480 0
DWIDTH 5 0
BBX 8 8 0 -1
BITMAP
F9
55
55
FD
55
55
51
93
ENDCHAR
STARTCHAR 373b
ENCODING 14139
SWIDTH 480 0
DWIDTH 5 0
BBX 8 8 0 -1
BITMAP
7E
42
42
7E
28
28
49
8F
ENDCHAR
STARTCHAR 373c
ENCODING 14140
SWIDTH 480 0
DWIDTH 5 0
BBX 8 8 0 -1
BITMAP
F4
77
5D
72
4D
BE
22
3E
ENDCHAR
STARTCHAR 373d
ENCODING 14141
SWIDTH 480 0
DWIDTH 5 0
BBX 8 8 0 -1
BITMAP
08
7E
08
FF
08
7E
08
FF
ENDCHAR
STARTCHAR 373e
ENCODING 14142
SWIDTH 480 0
DWIDTH 5 0
BBX 8 8 0 -1
BITMAP
E4
4E
44
FF
44
6E
C4
1F
ENDCHAR
STARTCHAR 373f
ENCODING 14143
SWIDTH 480 0
DWIDTH 5 0
BBX 8 8 0 -1
BITMAP
F5
55
FD
51
93
7E
08
FF
ENDCHAR
STARTCHAR 3740
ENCODING 14144
SWIDTH 480 0
DWIDTH 5 0
BBX 8 8 0 -1
BITMAP
4F
E5
45
EB
08
FF
14
E3
ENDCHAR
STARTCHAR 3741
ENCODING 14145
SWIDTH 480 0
DWIDTH 5 0
BBX 8 8 0 -1
BITMAP
F9
56
50
F9
56
50
51
96
ENDCHAR
STARTCHAR 3742
ENCODING 14146
SWIDTH 480 0
DWIDTH 5 0
BBX 8 8 0 -1
BITMAP
5E
AA
44
DB
44
4E
44
5F
ENDCHAR
STARTCHAR 3743
ENCODING 14147
SWIDTH 480 0
DWIDTH 5 0
BBX 8 8 0 -1
BITMAP
08
FF
4A
4A
7E
2A
A5
9D
ENDCHAR
STARTCHAR 3744
ENCODING 14148
SWIDTH 480 0
DWIDTH 5 0
BBX 8 8 0 -1
BITMAP
08
7F
54
7F
55
6E
4C
B3
ENDCHAR
STARTCHAR 3745
ENCODING 14149
SWIDTH 480 0
DWIDTH 5 0
BBX 8 8 0 -1
BITMAP
22
F7
22
FF
7E
2A
A1
9D
ENDCHAR
STARTCHAR 3746
ENCODING 14150
SWIDTH 480 0
DWIDTH 5 0
BBX 8 8 0 -1
BITMAP
12
E7
FD
55
77
0A
A1
9D
ENDCHAR
STARTCHAR 3747
ENCODING 14151
SWIDTH 480 0
DWIDTH 5 0
BBX 8 8 0 -1
BITMAP
4E
EA
4E
48
6F
D9
4D
42
ENDCHAR
STARTCHAR 3748
ENCODING 14152
SWIDTH 480 0
DWIDTH 5 0
BBX 8 8 0 -1
BITMAP
4A
EF
5A
4F
6A
DF
49
53
ENDCHAR
STARTCHAR 3749
ENCODING 14153
SWIDTH 480 0
DWIDTH 5 0
BBX 8 8 0 -1
BITMAP
54
F4
57
79
95
52
12
6D
ENDCHAR
STARTCHAR 374a
ENCODING 14154
SWIDTH 480 0
DWIDTH 5 0
BBX 8 8 0 -1
BITMAP
7E
7E
08
FF
42
7E
2A
C9
ENDCHAR
STARTCHAR 374b
ENCODING 14155
SWIDTH 480 0
DWIDTH 5 0
BBX 8 8 0 -1
BITMAP
44
EE
44
FF
C4
4E
44
5F
ENDCHAR
STARTCHAR 374c
ENCODING 14156
SWIDTH 480 0
DWIDTH 5 0
BBX 8 8 0 -1
BITMAP
87
5C
95
4A
1F
5F
44
9B
ENDCHAR
STARTCHAR 374d
ENCODING 14157
SWIDTH 480 0
DWIDTH 5 0
BBX 8 8 0 -1
BITMAP
04
EE
E4
FF
E4
EE
04
1F
ENDCHAR
STARTCHAR 374e
ENCODING 14158
SWIDTH 480 0
DWIDTH 5 0
BBX 8 8 0 -1
BITMAP
25
DF
4C
F7
4E
EE
CA
4E
ENDCHAR
STARTCHAR 374f
ENCODING 14159
SWIDTH 480 0
DWIDTH 5 0
BBX 8 8 0 -1
BITMAP
0E
70
14
28
12
FD
2A
C9
ENDCHAR
STARTCHAR 3750
ENCODING 14160
SWIDTH 480 0
DWIDTH 5 0
BBX 8 8 0 -1
BITMAP
5E
AA
44
9B
E4
4E
E4
5F
ENDCHAR
STARTCHAR 3751
ENCODING 14161
SWIDTH 480 0
DWIDTH 5 0
BBX 8 8 0 -1
BITMAP
52
BB
52
9F
F6
5B
F2
5F
ENDCHAR
STARTCHAR 3752
ENCODING 14162
SWIDTH 480 0
DWIDTH 5 0
BBX 8 8 0 -1
BITMAP
26
FF
76
F9
2A
FD
2A
C9
ENDCHAR
STARTCHAR 3753
ENCODING 14163
SWIDTH 480 0
DWIDTH 5 0
BBX 8 8 0 -1
BITMAP
FF
A5
FF
74
24
F6
25
F4
ENDCHAR
STARTCHAR 3754
ENCODING 14164
SWIDTH 480 0
DWIDTH 5 0
BBX 8 8 0 -1
BITMAP
24
FF
14
08
F7
3E
08
FF
ENDCHAR
STARTCHAR 3755
ENCODING 14165
SWIDTH 480 0
DWIDTH 5 0
BBX 8 8 0 -1
BITMAP
24
FF
00
F9
55
FD
51
93
ENDCHAR
STARTCHAR 3756
ENCODING 14166
SWIDTH 480 0
DWIDTH 5 0
BBX 8 8 0 -1
BITMAP
52
FF
89
3E
2A
3E
0A
7D
ENDCHAR
STARTCHAR 3757
ENCODING 14167
SWIDTH 480 0
DWIDTH 5 0
BBX 8 8 0 -1
BITMAP
44
E4
1F
E4
04
E4
A4
E4
ENDCHAR
STARTCHAR 3758
ENCODING 14168
SWIDTH 480 0
DWIDTH 5 0
BBX 8 8 0 -1
BITMAP
4A
EC
09
E7
09
EF
A9
EF
ENDCHAR
STARTCHAR 3759
ENCODING 14169
SWIDTH 480 0
DWIDTH 5 0
BBX 8 8 0 -1
BITMAP
54
F7
7D
92
3D
FF
24
3C
ENDCHAR
STARTCHAR 375a
ENCODING 14170
SWIDTH 480 0
DWIDTH 5 0
BBX 8 8 0 -1
BITMAP
5E
EA
44
FB
E4
4E
E4
5F
ENDCHAR
STARTCHAR 375b
ENCODING 14171
SWIDTH 480 0
DWIDTH 5 0
BBX 8 8 0 -1
BITMAP
FF
54
2F
D9
2F
79
2F
F9
ENDCHAR
STARTCHAR 375c
ENCODING 14172
SWIDTH 480 0
DWIDTH 5 0
BBX 8 8 0 -1
BITMAP
24
CE
AA
EE
48
EF
41
B5
ENDCHAR
STARTCHAR 375d
ENCODING 14173
SWIDTH 480 0
DWIDTH 5 0
BBX 8 8 0 -1
BITMAP
24
FF
24
7E
00
FF
24
7A
ENDCHAR
STARTCHAR 375e
ENCODING 14174
SWIDTH 480 0
DWIDTH 5 0
BBX 8 8 0 -1
BITMAP
88
57
15
D5
5D
56
44
BF
ENDCHAR
STARTCHAR 375f
ENCODING 14175
SWIDTH 480 0
DWIDTH 5 0
BBX 8 8 0 -1
BITMAP
64
BF
7E
5A
5E
74
0E
B5
ENDCHAR
STARTCHAR 3760
ENCODING 14176
SWIDTH 480 0
DWIDTH 5 0
BBX 8 8 0 -1
BITMAP
31
FD
BD
A5
D5
B5
D9
B3
ENDCHAR
STARTCHAR 3761
ENCODING 14177
SWIDTH 480 0
DWIDTH 5 0
BBX 8 8 0 -1
BITMAP
25
FF
24
74
55
72
FA
25
ENDCHAR
STARTCHAR 3762
ENCODING 14178
SWIDTH 480 0
DWIDTH 5 0
BBX 8 8 0 -1
BITMAP
F6
6B
F6
49
3C
FF
08
18
ENDCHAR
STARTCHAR 3763
ENCODING 14179
SWIDTH 480 0
DWIDTH 5 0
BBX 8 8 0 -1
BITMAP
94
3C
AF
3D
15
7A
4A
95
ENDCHAR
STARTCHAR 3764
ENCODING 14180
SWIDTH 480 0
DWIDTH 5 0
BBX 8 8 0 -1
BITMAP
ED
B4
CF
A9
A9
CF
8C
95
ENDCHAR
STARTCHAR 3765
ENCODING 14181
SWIDTH 480 0
DWIDTH 5 0
BBX 8 8 0 -1
BITMAP
4B
F0
4F
F9
C9
49
49
4B
ENDCHAR
STARTCHAR 3766
ENCODING 14182
SWIDTH 480 0
DWIDTH 5 0
BBX 8 8 0 -1
BITMAP
2D
57
CB
51
44
5F
4E
55
ENDCHAR
STARTCHAR 3767
ENCODING 14183
SWIDTH 480 0
DWIDTH 5 0
BBX 8 8 0 -1
BITMAP
40
7F
49
8A
08
14
22
C1
ENDCHAR
STARTCHAR 3768
ENCODING 14184
SWIDTH 480 0
DWIDTH 5 0
BBX 8 8 0 -1
BITMAP
88
5E
8A
4A
3F
48
54
A3
ENDCHAR
STARTCHAR 3769
ENCODING 14185
SWIDTH 480 0
DWIDTH 5 0
BBX 8 8 0 -1
BITMAP
97
3B
95
3A
0C
5F
44
95
ENDCHAR
STARTCHAR 376a
ENCODING 14186
SWIDTH 480 0
DWIDTH 5 0
BBX 8 8 0 -1
BITMAP
08
FF
81
0C
24
24
42
81
ENDCHAR
STARTCHAR 376b
ENCODING 14187
SWIDTH 480 0
DWIDTH 5 0
BBX 8 8 0 -1
BITMAP
44
AF
44
8F
E0
4F
E9
4F
ENDCHAR
STARTCHAR 376c
ENCODING 14188
SWIDTH 480 0
DWIDTH 5 0
BBX 8 8 0 -1
BITMAP
10
7F
55
55
55
55
55
FF
ENDCHAR
STARTCHAR 376d
ENCODING 14189
SWIDTH 480 0
DWIDTH 5 0
BBX 8 8 0 -1
BITMAP
48
FE
0A
EA
1F
E8
B4
E3
ENDCHAR
STARTCHAR 376e
ENCODING 14190
SWIDTH 480 0
DWIDTH 5 0
BBX 8 8 0 -1
BITMAP
3F
21
3F
21
3F
21
41
83
ENDCHAR
STARTCHAR 376f
ENCODING 14191
SWIDTH 480 0
DWIDTH 5 0
BBX 8 8 0 -1
BITMAP
2A
4F
D2
42
5F
42
42
42
ENDCHAR
STARTCHAR 3770
ENCODING 14192
SWIDTH 480 0
DWIDTH 5 0
BBX 8 8 0 -1
BITMAP
24
4A
D5
5F
55
5F
44
5B
ENDCHAR
STARTCHAR 3771
ENCODING 14193
SWIDTH 480 0
DWIDTH 5 0
BBX 8 8 0 -1
BITMAP
5A
7F
CC
7F
56
6D
48
4E
ENDCHAR
STARTCHAR 3772
ENCODING 14194
SWIDTH 480 0
DWIDTH 5 0
BBX 8 8 0 -1
BITMAP
3A
4F
CB
57
5A
4F
4A
57
ENDCHAR
STARTCHAR 3773
ENCODING 14195
SWIDTH 480 0
DWIDTH 5 0
BBX 8 8 0 -1
BITMAP
24
FF
2A
FF
2A
7E
6A
A9
ENDCHAR
STARTCHAR 3774
ENCODING 14196
SWIDTH 480 0
DWIDTH 5 0
BBX 8 8 0 -1
BITMAP
52
FF
24
FF
42
BD
14
2C
ENDCHAR
STARTCHAR 3775
ENCODING 14197
SWIDTH 480 0
DWIDTH 5 0
BBX 8 8 0 -1
BITMAP
21
55
AD
FD
AD
FD
21
DB
ENDCHAR
STARTCHAR 3776
ENCODING 14198
SWIDTH 480 0
DWIDTH 5 0
BBX 8 8 0 -1
BITMAP
04
FF
B1
AE
AA
EE
0A
1F
ENDCHAR
STARTCHAR 3777
ENCODING 14199
SWIDTH 480 0
DWIDTH 5 0
BBX 8 8 0 -1
BITMAP
FF
B5
FF
AD
DB
91
9D
FF
ENDCHAR
STARTCHAR 3778
ENCODING 14200
SWIDTH 480 0
DWIDTH 5 0
BBX 8 8 0 -1
BITMAP
F7
A5
F2
F5
08
7E
08
FF
ENDCHAR
STARTCHAR 3779
ENCODING 14201
SWIDTH 480 0
DWIDTH 5 0
BBX 8 8 0 -1
BITMAP
4A
5F
EC
7F
AD
DF
4E
B5
ENDCHAR
STARTCHAR 377a
ENCODING 14202
SWIDTH 480 0
DWIDTH 5 0
BBX 8 8 0 -1
BITMAP
E8
3E
4B
FE
28
BE
48
BF
ENDCHAR
STARTCHAR 377b
ENCODING 14203
SWIDTH 480 0
DWIDTH 5 0
BBX 8 8 0 -1
BITMAP
08
FF
9D
7E
1C
7E
AA
9D
ENDCHAR
STARTCHAR 377c
ENCODING 14204
SWIDTH 480 0
DWIDTH 5 0
BBX 8 8 0 -1
BITMAP
77
D2
F5
72
A7
00
AA
9D
ENDCHAR
STARTCHAR 377d
ENCODING 14205
SWIDTH 480 0
DWIDTH 5 0
BBX 8 8 0 -1
BITMAP
52
FF
42
99
3C
FF
08
18
ENDCHAR
STARTCHAR 377e
ENCODING 14206
SWIDTH 480 0
DWIDTH 5 0
BBX 8 8 0 -1
BITMAP
5A
FF
4C
7F
D6
6D
48
4E
ENDCHAR
STARTCHAR 3821
ENCODING 14369
SWIDTH 480 0
DWIDTH 5 0
BBX 8 8 0 -1
BITMAP
44
EA
55
FF
D5
5F
4A
51
ENDCHAR
STARTCHAR 3822
ENCODING 14370
SWIDTH 480 0
DWIDTH 5 0
BBX 8 8 0 -1
BITMAP
48
EF
54
EF
DA
4F
4A
4F
ENDCHAR
STARTCHAR 3823
ENCODING 14371
SWIDTH 480 0
DWIDTH 5 0
BBX 8 8 0 -1
BITMAP
08
7E
7F
95
7E
28
FF
08
ENDCHAR
STARTCHAR 3824
ENCODING 14372
SWIDTH 480 0
DWIDTH 5 0
BBX 8 8 0 -1
BITMAP
0A
08
FF
08
08
14
22
C1
ENDCHAR
STARTCHAR 3825
ENCODING 14373
SWIDTH 480 0
DWIDTH 5 0
BBX 8 8 0 -1
BITMAP
23
FA
27
FA
DA
AA
FD
AD
ENDCHAR
STARTCHAR 3826
ENCODING 14374
SWIDTH 480 0
DWIDTH 5 0
BBX 8 8 0 -1
BITMAP
FF
4A
4A
7F
EA
6A
6A
12
ENDCHAR
STARTCHAR 3827
ENCODING 14375
SWIDTH 480 0
DWIDTH 5 0
BBX 8 8 0 -1
BITMAP
FF
49
4F
6F
E9
6F
66
1B
ENDCHAR
STARTCHAR 3828
ENCODING 14376
SWIDTH 480 0
DWIDTH 5 0
BBX 8 8 0 -1
BITMAP
4F
A9
4F
8F
E9
4F
E9
4B
ENDCHAR
STARTCHAR 3829
ENCODING 14377
SWIDTH 480 0
DWIDTH 5 0
BBX 8 8 0 -1
BITMAP
3E
22
BE
A2
BE
FF
2A
49
ENDCHAR
STARTCHAR 382a
ENCODING 14378
SWIDTH 480 0
DWIDTH 5 0
BBX 8 8 0 -1
BITMAP
FF
7E
42
7E
62
7E
62
A6
ENDCHAR
STARTCHAR 382b
ENCODING 14379
SWIDTH 480 0
DWIDTH 5 0
BBX 8 8 0 -1
BITMAP
3E
22
3E
3E
22
3E
15
E7
ENDCHAR
STARTCHAR 382c
ENCODING 14380
SWIDTH 480 0
DWIDTH 5 0
BBX 8 8 0 -1
BITMAP
4A
FF
0C
FF
0D
FF
AE
F5
ENDCHAR
STARTCHAR 382d
ENCODING 14381
SWIDTH 480 0
DWIDTH 5 0
BBX 8 8 0 -1
BITMAP
F7
A5
F2
F5
3E
22
3E
E3
ENDCHAR
STARTCHAR 382e
ENCODING 14382
SWIDTH 480 0
DWIDTH 5 0
BBX 8 8 0 -1
BITMAP
5F
E4
44
FF
E4
44
E4
44
ENDCHAR
STARTCHAR 382f
ENCODING 14383
SWIDTH 480 0
DWIDTH 5 0
BBX 8 8 0 -1
BITMAP
88
5E
1A
FF
54
5E
52
BF
ENDCHAR
STARTCHAR 3830
ENCODING 14384
SWIDTH 480 0
DWIDTH 5 0
BBX 8 8 0 -1
BITMAP
5A
AF
EB
57
FA
4F
EA
D7
ENDCHAR
STARTCHAR 3831
ENCODING 14385
SWIDTH 480 0
DWIDTH 5 0
BBX 8 8 0 -1
BITMAP
E4
AA
D5
BF
B5
DF
8A
91
ENDCHAR
STARTCHAR 3832
ENCODING 14386
SWIDTH 480 0
DWIDTH 5 0
BBX 8 8 0 -1
BITMAP
F7
92
F7
65
F7
65
77
CD
ENDCHAR
STARTCHAR 3833
ENCODING 14387
SWIDTH 480 0
DWIDTH 5 0
BBX 8 8 0 -1
BITMAP
E4
CA
F5
DF
F5
3F
AA
51
ENDCHAR
STARTCHAR 3834
ENCODING 14388
SWIDTH 480 0
DWIDTH 5 0
BBX 8 8 0 -1
BITMAP
44
6A
D5
FF
B5
BF
A4
FB
ENDCHAR
STARTCHAR 3835
ENCODING 14389
SWIDTH 480 0
DWIDTH 5 0
BBX 8 8 0 -1
BITMAP
7E
00
00
FF
28
28
49
8F
ENDCHAR
STARTCHAR 3836
ENCODING 14390
SWIDTH 480 0
DWIDTH 5 0
BBX 8 8 0 -1
BITMAP
7F
44
5F
51
5F
44
56
A5
ENDCHAR
STARTCHAR 3837
ENCODING 14391
SWIDTH 480 0
DWIDTH 5 0
BBX 8 8 0 -1
BITMAP
2A
7F
54
7F
6D
6D
7A
8D
ENDCHAR
STARTCHAR 3838
ENCODING 14392
SWIDTH 480 0
DWIDTH 5 0
BBX 8 8 0 -1
BITMAP
2F
21
41
F1
21
21
51
EA
ENDCHAR
STARTCHAR 3839
ENCODING 14393
SWIDTH 480 0
DWIDTH 5 0
BBX 8 8 0 -1
BITMAP
E4
3F
E4
88
FA
24
2A
DD
ENDCHAR
STARTCHAR 383a
ENCODING 14394
SWIDTH 480 0
DWIDTH 5 0
BBX 8 8 0 -1
BITMAP
82
5F
92
5E
12
5B
5A
A5
ENDCHAR
STARTCHAR 383b
ENCODING 14395
SWIDTH 480 0
DWIDTH 5 0
BBX 8 8 0 -1
BITMAP
9F
52
9F
59
1F
52
5B
AB
ENDCHAR
STARTCHAR 383c
ENCODING 14396
SWIDTH 480 0
DWIDTH 5 0
BBX 8 8 0 -1
BITMAP
08
FF
08
52
24
18
32
FD
ENDCHAR
STARTCHAR 383d
ENCODING 14397
SWIDTH 480 0
DWIDTH 5 0
BBX 8 8 0 -1
BITMAP
EF
49
4F
EF
49
6F
C6
1B
ENDCHAR
STARTCHAR 383e
ENCODING 14398
SWIDTH 480 0
DWIDTH 5 0
BBX 8 8 0 -1
BITMAP
44
BF
44
88
FA
44
EA
5D
ENDCHAR
STARTCHAR 383f
ENCODING 14399
SWIDTH 480 0
DWIDTH 5 0
BBX 8 8 0 -1
BITMAP
24
7F
54
58
FA
54
5A
9D
ENDCHAR
STARTCHAR 3840
ENCODING 14400
SWIDTH 480 0
DWIDTH 5 0
BBX 8 8 0 -1
BITMAP
3C
FF
00
3C
00
7E
42
7E
ENDCHAR
STARTCHAR 3841
ENCODING 14401
SWIDTH 480 0
DWIDTH 5 0
BBX 8 8 0 -1
BITMAP
44
FF
0A
FF
14
FA
B5
FE
ENDCHAR
STARTCHAR 3842
ENCODING 14402
SWIDTH 480 0
DWIDTH 5 0
BBX 8 8 0 -1
BITMAP
FE
B2
DE
B2
BE
D5
96
99
ENDCHAR
STARTCHAR 3843
ENCODING 14403
SWIDTH 480 0
DWIDTH 5 0
BBX 8 8 0 -1
BITMAP
06
78
08
2A
FF
08
08
18
ENDCHAR
STARTCHAR 3844
ENCODING 14404
SWIDTH 480 0
DWIDTH 5 0
BBX 8 8 0 -1
BITMAP
3F
55
DF
55
5F
5B
5F
5F
ENDCHAR
STARTCHAR 3845
ENCODING 14405
SWIDTH 480 0
DWIDTH 5 0
BBX 8 8 0 -1
BITMAP
08
FF
08
08
7E
42
42
7E
ENDCHAR
STARTCHAR 3846
ENCODING 14406
SWIDTH 480 0
DWIDTH 5 0
BBX 8 8 0 -1
BITMAP
02
EC
A4
B5
BF
E4
04
0C
ENDCHAR
STARTCHAR 3847
ENCODING 14407
SWIDTH 480 0
DWIDTH 5 0
BBX 8 8 0 -1
BITMAP
FF
89
BD
89
BD
A5
BD
FF
ENDCHAR
STARTCHAR 3848
ENCODING 14408
SWIDTH 480 0
DWIDTH 5 0
BBX 8 8 0 -1
BITMAP
22
2F
F2
52
5F
69
39
CF
ENDCHAR
STARTCHAR 3849
ENCODING 14409
SWIDTH 480 0
DWIDTH 5 0
BBX 8 8 0 -1
BITMAP
E1
2E
4A
4A
EA
4A
4D
D5
ENDCHAR
STARTCHAR 384a
ENCODING 14410
SWIDTH 480 0
DWIDTH 5 0
BBX 8 8 0 -1
BITMAP
FE
02
02
FE
80
80
81
FF
ENDCHAR
STARTCHAR 384b
ENCODING 14411
SWIDTH 480 0
DWIDTH 5 0
BBX 8 8 0 -1
BITMAP
08
7F
7F
6A
7E
6A
7F
88
ENDCHAR
STARTCHAR 384c
ENCODING 14412
SWIDTH 480 0
DWIDTH 5 0
BBX 8 8 0 -1
BITMAP
E1
2E
EA
8A
EA
2A
2D
D5
ENDCHAR
STARTCHAR 384d
ENCODING 14413
SWIDTH 480 0
DWIDTH 5 0
BBX 8 8 0 -1
BITMAP
7F
00
7F
41
7F
40
40
80
ENDCHAR
STARTCHAR 384e
ENCODING 14414
SWIDTH 480 0
DWIDTH 5 0
BBX 8 8 0 -1
BITMAP
48
E8
4F
52
EA
A4
A4
FB
ENDCHAR
STARTCHAR 384f
ENCODING 14415
SWIDTH 480 0
DWIDTH 5 0
BBX 8 8 0 -1
BITMAP
22
FF
22
72
6F
A9
29
2F
ENDCHAR
STARTCHAR 3850
ENCODING 14416
SWIDTH 480 0
DWIDTH 5 0
BBX 8 8 0 -1
BITMAP
97
3D
97
3D
2F
7D
45
89
ENDCHAR
STARTCHAR 3851
ENCODING 14417
SWIDTH 480 0
DWIDTH 5 0
BBX 8 8 0 -1
BITMAP
A1
4E
6A
AA
6A
AA
2D
55
ENDCHAR
STARTCHAR 3852
ENCODING 14418
SWIDTH 480 0
DWIDTH 5 0
BBX 8 8 0 -1
BITMAP
57
FD
57
FD
6F
FD
C5
49
ENDCHAR
STARTCHAR 3853
ENCODING 14419
SWIDTH 480 0
DWIDTH 5 0
BBX 8 8 0 -1
BITMAP
44
FF
2A
55
EE
67
49
42
ENDCHAR
STARTCHAR 3854
ENCODING 14420
SWIDTH 480 0
DWIDTH 5 0
BBX 8 8 0 -1
BITMAP
EE
AA
EB
B0
EE
AA
A4
BB
ENDCHAR
STARTCHAR 3855
ENCODING 14421
SWIDTH 480 0
DWIDTH 5 0
BBX 8 8 0 -1
BITMAP
27
FD
27
25
77
55
55
7B
ENDCHAR
STARTCHAR 3856
ENCODING 14422
SWIDTH 480 0
DWIDTH 5 0
BBX 8 8 0 -1
BITMAP
24
FF
E0
2F
4A
EA
4D
D5
ENDCHAR
STARTCHAR 3857
ENCODING 14423
SWIDTH 480 0
DWIDTH 5 0
BBX 8 8 0 -1
BITMAP
0E
7F
4E
79
4E
54
55
A3
ENDCHAR
STARTCHAR 3858
ENCODING 14424
SWIDTH 480 0
DWIDTH 5 0
BBX 8 8 0 -1
BITMAP
44
FF
0A
F5
0E
E7
A9
E2
ENDCHAR
STARTCHAR 3859
ENCODING 14425
SWIDTH 480 0
DWIDTH 5 0
BBX 8 8 0 -1
BITMAP
E4
BF
EA
55
6E
C7
C9
E2
ENDCHAR
STARTCHAR 385a
ENCODING 14426
SWIDTH 480 0
DWIDTH 5 0
BBX 8 8 0 -1
BITMAP
22
5F
F2
22
FF
A9
79
EF
ENDCHAR
STARTCHAR 385b
ENCODING 14427
SWIDTH 480 0
DWIDTH 5 0
BBX 8 8 0 -1
BITMAP
FF
7F
41
7F
54
5F
74
9F
ENDCHAR
STARTCHAR 385c
ENCODING 14428
SWIDTH 480 0
DWIDTH 5 0
BBX 8 8 0 -1
BITMAP
FF
4A
7F
55
7F
75
77
BD
ENDCHAR
STARTCHAR 385d
ENCODING 14429
SWIDTH 480 0
DWIDTH 5 0
BBX 8 8 0 -1
BITMAP
44
FF
44
FF
B1
EA
44
FB
ENDCHAR
STARTCHAR 385e
ENCODING 14430
SWIDTH 480 0
DWIDTH 5 0
BBX 8 8 0 -1
BITMAP
7E
10
10
7E
12
12
12
FF
ENDCHAR
STARTCHAR 385f
ENCODING 14431
SWIDTH 480 0
DWIDTH 5 0
BBX 8 8 0 -1
BITMAP
FF
20
3C
24
24
3C
04
FF
ENDCHAR
STARTCHAR 3860
ENCODING 14432
SWIDTH 480 0
DWIDTH 5 0
BBX 8 8 0 -1
BITMAP
3F
48
C8
5E
4A
4A
4A
7F
ENDCHAR
STARTCHAR 3861
ENCODING 14433
SWIDTH 480 0
DWIDTH 5 0
BBX 8 8 0 -1
BITMAP
20
3E
48
08
FF
08
08
08
ENDCHAR
STARTCHAR 3862
ENCODING 14434
SWIDTH 480 0
DWIDTH 5 0
BBX 8 8 0 -1
BITMAP
1E
52
5E
7E
02
FF
22
C1
ENDCHAR
STARTCHAR 3863
ENCODING 14435
SWIDTH 480 0
DWIDTH 5 0
BBX 8 8 0 -1
BITMAP
7E
10
7E
12
FF
7E
42
7E
ENDCHAR
STARTCHAR 3864
ENCODING 14436
SWIDTH 480 0
DWIDTH 5 0
BBX 8 8 0 -1
BITMAP
27
2D
FF
5F
51
6F
36
C9
ENDCHAR
STARTCHAR 3865
ENCODING 14437
SWIDTH 480 0
DWIDTH 5 0
BBX 8 8 0 -1
BITMAP
44
AA
44
DF
4E
5A
44
5B
ENDCHAR
STARTCHAR 3866
ENCODING 14438
SWIDTH 480 0
DWIDTH 5 0
BBX 8 8 0 -1
BITMAP
53
9F
6B
DF
4B
5F
5A
5E
ENDCHAR
STARTCHAR 3867
ENCODING 14439
SWIDTH 480 0
DWIDTH 5 0
BBX 8 8 0 -1
BITMAP
5E
48
FE
CA
5F
5E
52
5E
ENDCHAR
STARTCHAR 3868
ENCODING 14440
SWIDTH 480 0
DWIDTH 5 0
BBX 8 8 0 -1
BITMAP
5E
E8
5E
EA
DF
5E
52
5E
ENDCHAR
STARTCHAR 3869
ENCODING 14441
SWIDTH 480 0
DWIDTH 5 0
BBX 8 8 0 -1
BITMAP
44
EA
5F
EA
CE
5F
57
5D
ENDCHAR
STARTCHAR 386a
ENCODING 14442
SWIDTH 480 0
DWIDTH 5 0
BBX 8 8 0 -1
BITMAP
17
FD
57
FD
6F
7D
C5
09
ENDCHAR
STARTCHAR 386b
ENCODING 14443
SWIDTH 480 0
DWIDTH 5 0
BBX 8 8 0 -1
BITMAP
24
FF
24
3C
FF
42
BD
5C
ENDCHAR
STARTCHAR 386c
ENCODING 14444
SWIDTH 480 0
DWIDTH 5 0
BBX 8 8 0 -1
BITMAP
5E
E8
1E
EA
1F
FE
B2
FE
ENDCHAR
STARTCHAR 386d
ENCODING 14445
SWIDTH 480 0
DWIDTH 5 0
BBX 8 8 0 -1
BITMAP
4E
FA
1E
FE
02
FF
AA
F1
ENDCHAR
STARTCHAR 386e
ENCODING 14446
SWIDTH 480 0
DWIDTH 5 0
BBX 8 8 0 -1
BITMAP
4A
FF
0E
EC
0F
EA
A4
FB
ENDCHAR
STARTCHAR 386f
ENCODING 14447
SWIDTH 480 0
DWIDTH 5 0
BBX 8 8 0 -1
BITMAP
EF
5D
EF
FD
B7
FD
A5
E9
ENDCHAR
STARTCHAR 3870
ENCODING 14448
SWIDTH 480 0
DWIDTH 5 0
BBX 8 8 0 -1
BITMAP
40
7F
40
BC
08
10
21
1F
ENDCHAR
STARTCHAR 3871
ENCODING 14449
SWIDTH 480 0
DWIDTH 5 0
BBX 8 8 0 -1
BITMAP
5F
95
FF
B5
BF
E4
0E
BF
ENDCHAR
STARTCHAR 3872
ENCODING 14450
SWIDTH 480 0
DWIDTH 5 0
BBX 8 8 0 -1
BITMAP
08
FF
14
22
55
08
14
E3
ENDCHAR
STARTCHAR 3873
ENCODING 14451
SWIDTH 480 0
DWIDTH 5 0
BBX 8 8 0 -1
BITMAP
24
5F
CA
51
4A
4A
44
5B
ENDCHAR
STARTCHAR 3874
ENCODING 14452
SWIDTH 480 0
DWIDTH 5 0
BBX 8 8 0 -1
BITMAP
2E
42
DF
4E
54
5F
44
5B
ENDCHAR
STARTCHAR 3875
ENCODING 14453
SWIDTH 480 0
DWIDTH 5 0
BBX 8 8 0 -1
BITMAP
2E
42
EF
67
6A
6F
62
4D
ENDCHAR
STARTCHAR 3876
ENCODING 14454
SWIDTH 480 0
DWIDTH 5 0
BBX 8 8 0 -1
BITMAP
24
4E
DF
4A
5F
44
5F
44
ENDCHAR
STARTCHAR 3877
ENCODING 14455
SWIDTH 480 0
DWIDTH 5 0
BBX 8 8 0 -1
BITMAP
08
49
2A
FF
14
14
25
C7
ENDCHAR
STARTCHAR 3878
ENCODING 14456
SWIDTH 480 0
DWIDTH 5 0
BBX 8 8 0 -1
BITMAP
24
22
41
91
10
14
22
7D
ENDCHAR
STARTCHAR 3879
ENCODING 14457
SWIDTH 480 0
DWIDTH 5 0
BBX 8 8 0 -1
BITMAP
08
E8
5F
49
49
69
D1
23
ENDCHAR
STARTCHAR 387a
ENCODING 14458
SWIDTH 480 0
DWIDTH 5 0
BBX 8 8 0 -1
BITMAP
24
FF
55
8D
55
55
25
DB
ENDCHAR
STARTCHAR 387b
ENCODING 14459
SWIDTH 480 0
DWIDTH 5 0
BBX 8 8 0 -1
BITMAP
20
3F
41
91
11
29
75
03
ENDCHAR
STARTCHAR 387c
ENCODING 14460
SWIDTH 480 0
DWIDTH 5 0
BBX 8 8 0 -1
BITMAP
7F
5E
52
5E
42
44
7F
84
ENDCHAR
STARTCHAR 387d
ENCODING 14461
SWIDTH 480 0
DWIDTH 5 0
BBX 8 8 0 -1
BITMAP
7F
41
41
41
41
41
7F
41
ENDCHAR
STARTCHAR 387e
ENCODING 14462
SWIDTH 480 0
DWIDTH 5 0
BBX 8 8 0 -1
BITMAP
20
FF
81
BD
A5
A5
BD
83
ENDCHAR
STARTCHAR 3921
ENCODING 14625
SWIDTH 480 0
DWIDTH 5 0
BBX 8 8 0 -1
BITMAP
06
78
40
7F
40
5E
52
9E
ENDCHAR
STARTCHAR 3922
ENCODING 14626
SWIDTH 480 0
DWIDTH 5 0
BBX 8 8 0 -1
BITMAP
16
E2
AF
A7
AA
EF
22
2D
ENDCHAR
STARTCHAR 3923
ENCODING 14627
SWIDTH 480 0
DWIDTH 5 0
BBX 8 8 0 -1
BITMAP
44
5F
E0
4E
4A
6A
CA
13
ENDCHAR
STARTCHAR 3924
ENCODING 14628
SWIDTH 480 0
DWIDTH 5 0
BBX 8 8 0 -1
BITMAP
42
5C
F0
5F
50
7F
D9
2F
ENDCHAR
STARTCHAR 3925
ENCODING 14629
SWIDTH 480 0
DWIDTH 5 0
BBX 8 8 0 -1
BITMAP
2F
21
F2
52
5F
62
32
C6
ENDCHAR
STARTCHAR 3926
ENCODING 14630
SWIDTH 480 0
DWIDTH 5 0
BBX 8 8 0 -1
BITMAP
F4
14
24
24
34
E4
25
67
ENDCHAR
STARTCHAR 3927
ENCODING 14631
SWIDTH 480 0
DWIDTH 5 0
BBX 8 8 0 -1
BITMAP
12
7E
14
FF
12
24
DF
04
ENDCHAR
STARTCHAR 3928
ENCODING 14632
SWIDTH 480 0
DWIDTH 5 0
BBX 8 8 0 -1
BITMAP
08
FF
91
7F
14
14
2A
DD
ENDCHAR
STARTCHAR 3929
ENCODING 14633
SWIDTH 480 0
DWIDTH 5 0
BBX 8 7 0 -1
BITMAP
7F
08
08
08
08
08
FF
ENDCHAR
STARTCHAR 392a
ENCODING 14634
SWIDTH 480 0
DWIDTH 5 0
BBX 8 8 0 -1
BITMAP
1F
E4
44
47
49
61
C1
06
ENDCHAR
STARTCHAR 392b
ENCODING 14635
SWIDTH 480 0
DWIDTH 5 0
BBX 8 8 0 -1
BITMAP
24
7E
24
FF
46
BD
20
3E
ENDCHAR
STARTCHAR 392c
ENCODING 14636
SWIDTH 480 0
DWIDTH 5 0
BBX 8 8 0 -1
BITMAP
08
7E
FF
24
FF
08
7E
08
ENDCHAR
STARTCHAR 392d
ENCODING 14637
SWIDTH 480 0
DWIDTH 5 0
BBX 8 8 0 -1
BITMAP
08
7F
40
48
48
48
52
BD
ENDCHAR
STARTCHAR 392e
ENCODING 14638
SWIDTH 480 0
DWIDTH 5 0
BBX 8 8 0 -1
BITMAP
08
7F
4A
7F
4A
7E
4C
B3
ENDCHAR
STARTCHAR 392f
ENCODING 14639
SWIDTH 480 0
DWIDTH 5 0
BBX 8 8 0 -1
BITMAP
04
7F
5E
67
5E
55
4E
B5
ENDCHAR
STARTCHAR 3930
ENCODING 14640
SWIDTH 480 0
DWIDTH 5 0
BBX 8 8 0 -1
BITMAP
E4
24
E4
84
E4
28
2A
DD
ENDCHAR
STARTCHAR 3931
ENCODING 14641
SWIDTH 480 0
DWIDTH 5 0
BBX 8 8 0 -1
BITMAP
5F
40
EE
CA
4E
4A
4E
5F
ENDCHAR
STARTCHAR 3932
ENCODING 14642
SWIDTH 480 0
DWIDTH 5 0
BBX 8 8 0 -1
BITMAP
4A
5F
E4
DF
48
4F
4E
53
ENDCHAR
STARTCHAR 3933
ENCODING 14643
SWIDTH 480 0
DWIDTH 5 0
BBX 8 8 0 -1
BITMAP
44
FF
40
4E
6A
CA
4A
53
ENDCHAR
STARTCHAR 3934
ENCODING 14644
SWIDTH 480 0
DWIDTH 5 0
BBX 8 8 0 -1
BITMAP
50
DF
61
5D
75
DD
41
42
ENDCHAR
STARTCHAR 3935
ENCODING 14645
SWIDTH 480 0
DWIDTH 5 0
BBX 8 8 0 -1
BITMAP
44
FF
51
4A
73
CE
44
5F
ENDCHAR
STARTCHAR 3936
ENCODING 14646
SWIDTH 480 0
DWIDTH 5 0
BBX 8 8 0 -1
BITMAP
08
E8
4F
52
4A
64
C4
1B
ENDCHAR
STARTCHAR 3937
ENCODING 14647
SWIDTH 480 0
DWIDTH 5 0
BBX 8 8 0 -1
BITMAP
7E
42
7E
30
CF
89
EB
88
ENDCHAR
STARTCHAR 3938
ENCODING 14648
SWIDTH 480 0
DWIDTH 5 0
BBX 8 8 0 -1
BITMAP
7F
41
7F
49
2A
FF
14
E7
ENDCHAR
STARTCHAR 3939
ENCODING 14649
SWIDTH 480 0
DWIDTH 5 0
BBX 8 8 0 -1
BITMAP
FF
4A
7E
4A
7E
28
18
E7
ENDCHAR
STARTCHAR 393a
ENCODING 14650
SWIDTH 480 0
DWIDTH 5 0
BBX 8 8 0 -1
BITMAP
24
FF
20
7E
6A
AA
2A
33
ENDCHAR
STARTCHAR 393b
ENCODING 14651
SWIDTH 480 0
DWIDTH 5 0
BBX 8 8 0 -1
BITMAP
44
FF
4A
F1
CA
4A
44
5B
ENDCHAR
STARTCHAR 393c
ENCODING 14652
SWIDTH 480 0
DWIDTH 5 0
BBX 8 8 0 -1
BITMAP
5F
E4
5F
FF
D5
5F
46
59
ENDCHAR
STARTCHAR 393d
ENCODING 14653
SWIDTH 480 0
DWIDTH 5 0
BBX 8 8 0 -1
BITMAP
4A
FF
4A
FF
DE
52
7F
52
ENDCHAR
STARTCHAR 393e
ENCODING 14654
SWIDTH 480 0
DWIDTH 5 0
BBX 8 8 0 -1
BITMAP
80
5F
84
44
04
44
44
9F
ENDCHAR
STARTCHAR 393f
ENCODING 14655
SWIDTH 480 0
DWIDTH 5 0
BBX 8 8 0 -1
BITMAP
8A
4A
9F
4A
0A
5F
4A
91
ENDCHAR
STARTCHAR 3940
ENCODING 14656
SWIDTH 480 0
DWIDTH 5 0
BBX 8 8 0 -1
BITMAP
94
1F
A4
1F
00
5F
51
9F
ENDCHAR
STARTCHAR 3941
ENCODING 14657
SWIDTH 480 0
DWIDTH 5 0
BBX 8 8 0 -1
BITMAP
94
3E
94
7F
26
5D
50
9E
ENDCHAR
STARTCHAR 3942
ENCODING 14658
SWIDTH 480 0
DWIDTH 5 0
BBX 8 8 0 -1
BITMAP
8A
5F
8A
7F
1E
52
7F
92
ENDCHAR
STARTCHAR 3943
ENCODING 14659
SWIDTH 480 0
DWIDTH 5 0
BBX 8 8 0 -1
BITMAP
7F
49
7F
49
7F
08
08
08
ENDCHAR
STARTCHAR 3944
ENCODING 14660
SWIDTH 480 0
DWIDTH 5 0
BBX 8 8 0 -1
BITMAP
10
7E
42
FF
08
7E
08
FF
ENDCHAR
STARTCHAR 3945
ENCODING 14661
SWIDTH 480 0
DWIDTH 5 0
BBX 8 8 0 -1
BITMAP
FF
44
5F
7F
F5
7F
66
19
ENDCHAR
STARTCHAR 3946
ENCODING 14662
SWIDTH 480 0
DWIDTH 5 0
BBX 8 8 0 -1
BITMAP
24
DF
4A
EE
5F
FB
DF
51
ENDCHAR
STARTCHAR 3947
ENCODING 14663
SWIDTH 480 0
DWIDTH 5 0
BBX 8 8 0 -1
BITMAP
44
FF
56
FF
5E
F5
EE
55
ENDCHAR
STARTCHAR 3948
ENCODING 14664
SWIDTH 480 0
DWIDTH 5 0
BBX 8 8 0 -1
BITMAP
40
BF
44
84
E4
44
E4
5F
ENDCHAR
STARTCHAR 3949
ENCODING 14665
SWIDTH 480 0
DWIDTH 5 0
BBX 8 8 0 -1
BITMAP
48
A8
5F
88
EA
4A
F5
47
ENDCHAR
STARTCHAR 394a
ENCODING 14666
SWIDTH 480 0
DWIDTH 5 0
BBX 8 8 0 -1
BITMAP
44
BF
4A
91
EA
4A
E4
5B
ENDCHAR
STARTCHAR 394b
ENCODING 14667
SWIDTH 480 0
DWIDTH 5 0
BBX 8 8 0 -1
BITMAP
5F
BB
55
9F
F5
5F
FF
51
ENDCHAR
STARTCHAR 394c
ENCODING 14668
SWIDTH 480 0
DWIDTH 5 0
BBX 8 8 0 -1
BITMAP
4A
EA
5F
EA
4A
FF
CA
52
ENDCHAR
STARTCHAR 394d
ENCODING 14669
SWIDTH 480 0
DWIDTH 5 0
BBX 8 8 0 -1
BITMAP
12
7E
14
FF
18
2E
C2
0C
ENDCHAR
STARTCHAR 394e
ENCODING 14670
SWIDTH 480 0
DWIDTH 5 0
BBX 8 8 0 -1
BITMAP
08
2E
28
FF
7E
42
7E
42
ENDCHAR
STARTCHAR 394f
ENCODING 14671
SWIDTH 480 0
DWIDTH 5 0
BBX 8 8 0 -1
BITMAP
E8
A8
FF
A8
EA
AA
B5
A7
ENDCHAR
STARTCHAR 3950
ENCODING 14672
SWIDTH 480 0
DWIDTH 5 0
BBX 8 8 0 -1
BITMAP
E4
BF
F1
AA
F3
AE
A4
BF
ENDCHAR
STARTCHAR 3951
ENCODING 14673
SWIDTH 480 0
DWIDTH 5 0
BBX 8 8 0 -1
BITMAP
08
7E
24
FF
BD
7E
7E
42
ENDCHAR
STARTCHAR 3952
ENCODING 14674
SWIDTH 480 0
DWIDTH 5 0
BBX 8 8 0 -1
BITMAP
24
7F
50
5E
FA
5A
5A
9B
ENDCHAR
STARTCHAR 3953
ENCODING 14675
SWIDTH 480 0
DWIDTH 5 0
BBX 8 8 0 -1
BITMAP
24
FF
08
FF
20
3F
2A
CB
ENDCHAR
STARTCHAR 3954
ENCODING 14676
SWIDTH 480 0
DWIDTH 5 0
BBX 8 8 0 -1
BITMAP
4F
A0
5F
C2
42
42
42
46
ENDCHAR
STARTCHAR 3955
ENCODING 14677
SWIDTH 480 0
DWIDTH 5 0
BBX 8 8 0 -1
BITMAP
4B
B4
4B
DD
55
7F
49
55
ENDCHAR
STARTCHAR 3956
ENCODING 14678
SWIDTH 480 0
DWIDTH 5 0
BBX 8 8 0 -1
BITMAP
4A
FF
0A
FF
1E
F2
BF
F2
ENDCHAR
STARTCHAR 3957
ENCODING 14679
SWIDTH 480 0
DWIDTH 5 0
BBX 8 8 0 -1
BITMAP
7E
08
FF
22
3E
22
3E
E3
ENDCHAR
STARTCHAR 3958
ENCODING 14680
SWIDTH 480 0
DWIDTH 5 0
BBX 8 8 0 -1
BITMAP
EA
BF
EA
FF
BE
F2
1F
B2
ENDCHAR
STARTCHAR 3959
ENCODING 14681
SWIDTH 480 0
DWIDTH 5 0
BBX 8 8 0 -1
BITMAP
27
FD
56
8D
55
55
26
DC
ENDCHAR
STARTCHAR 395a
ENCODING 14682
SWIDTH 480 0
DWIDTH 5 0
BBX 8 8 0 -1
BITMAP
E5
4F
E6
FF
A9
F2
AF
E2
ENDCHAR
STARTCHAR 395b
ENCODING 14683
SWIDTH 480 0
DWIDTH 5 0
BBX 8 8 0 -1
BITMAP
42
AF
E8
4A
EA
4A
ED
D7
ENDCHAR
STARTCHAR 395c
ENCODING 14684
SWIDTH 480 0
DWIDTH 5 0
BBX 8 8 0 -1
BITMAP
E2
4F
48
6A
EA
6A
6D
17
ENDCHAR
STARTCHAR 395d
ENCODING 14685
SWIDTH 480 0
DWIDTH 5 0
BBX 8 8 0 -1
BITMAP
5F
BB
F5
5F
F5
5F
FF
D1
ENDCHAR
STARTCHAR 395e
ENCODING 14686
SWIDTH 480 0
DWIDTH 5 0
BBX 8 8 0 -1
BITMAP
E7
A5
E7
89
95
BF
95
9D
ENDCHAR
STARTCHAR 395f
ENCODING 14687
SWIDTH 480 0
DWIDTH 5 0
BBX 8 8 0 -1
BITMAP
EE
BA
C4
BB
AF
CA
9F
82
ENDCHAR
STARTCHAR 3960
ENCODING 14688
SWIDTH 480 0
DWIDTH 5 0
BBX 8 8 0 -1
BITMAP
0F
E4
4F
49
4F
69
CF
19
ENDCHAR
STARTCHAR 3961
ENCODING 14689
SWIDTH 480 0
DWIDTH 5 0
BBX 8 8 0 -1
BITMAP
7E
08
FF
2A
C9
3E
22
3E
ENDCHAR
STARTCHAR 3962
ENCODING 14690
SWIDTH 480 0
DWIDTH 5 0
BBX 8 8 0 -1
BITMAP
08
FF
24
3C
FF
BD
A5
BD
ENDCHAR
STARTCHAR 3963
ENCODING 14691
SWIDTH 480 0
DWIDTH 5 0
BBX 8 8 0 -1
BITMAP
84
7E
AA
2E
38
6F
81
95
ENDCHAR
STARTCHAR 3964
ENCODING 14692
SWIDTH 480 0
DWIDTH 5 0
BBX 8 8 0 -1
BITMAP
F9
DD
AD
FD
AD
FD
F9
8B
ENDCHAR
STARTCHAR 3965
ENCODING 14693
SWIDTH 480 0
DWIDTH 5 0
BBX 8 8 0 -1
BITMAP
24
74
2F
F5
25
55
F5
0B
ENDCHAR
STARTCHAR 3966
ENCODING 14694
SWIDTH 480 0
DWIDTH 5 0
BBX 8 8 0 -1
BITMAP
3E
22
3E
FF
10
1E
02
1C
ENDCHAR
STARTCHAR 3967
ENCODING 14695
SWIDTH 480 0
DWIDTH 5 0
BBX 8 8 0 -1
BITMAP
18
24
DB
00
7E
42
42
7E
ENDCHAR
STARTCHAR 3968
ENCODING 14696
SWIDTH 480 0
DWIDTH 5 0
BBX 8 8 0 -1
BITMAP
44
5F
EA
5F
4D
76
CA
15
ENDCHAR
STARTCHAR 3969
ENCODING 14697
SWIDTH 480 0
DWIDTH 5 0
BBX 8 8 0 -1
BITMAP
45
EF
46
5F
6C
D7
41
46
ENDCHAR
STARTCHAR 396a
ENCODING 14698
SWIDTH 480 0
DWIDTH 5 0
BBX 8 8 0 -1
BITMAP
84
3F
8A
3F
2D
56
4A
95
ENDCHAR
STARTCHAR 396b
ENCODING 14699
SWIDTH 480 0
DWIDTH 5 0
BBX 8 8 0 -1
BITMAP
08
FF
14
FF
99
6E
14
6B
ENDCHAR
STARTCHAR 396c
ENCODING 14700
SWIDTH 480 0
DWIDTH 5 0
BBX 8 8 0 -1
BITMAP
08
7F
1C
7F
2A
FF
77
FF
ENDCHAR
STARTCHAR 396d
ENCODING 14701
SWIDTH 480 0
DWIDTH 5 0
BBX 8 8 0 -1
BITMAP
28
FF
2B
F5
7F
55
AB
DF
ENDCHAR
STARTCHAR 396e
ENCODING 14702
SWIDTH 480 0
DWIDTH 5 0
BBX 8 8 0 -1
BITMAP
08
FF
08
3E
22
3E
15
E7
ENDCHAR
STARTCHAR 396f
ENCODING 14703
SWIDTH 480 0
DWIDTH 5 0
BBX 8 8 0 -1
BITMAP
21
FD
25
55
25
D5
21
D3
ENDCHAR
STARTCHAR 3970
ENCODING 14704
SWIDTH 480 0
DWIDTH 5 0
BBX 8 8 0 -1
BITMAP
48
7E
88
FF
00
7E
42
7E
ENDCHAR
STARTCHAR 3971
ENCODING 14705
SWIDTH 480 0
DWIDTH 5 0
BBX 8 8 0 -1
BITMAP
FF
81
FD
91
B9
95
FD
FF
ENDCHAR
STARTCHAR 3972
ENCODING 14706
SWIDTH 480 0
DWIDTH 5 0
BBX 8 8 0 -1
BITMAP
2E
FA
6B
F0
BE
FA
64
BB
ENDCHAR
STARTCHAR 3973
ENCODING 14707
SWIDTH 480 0
DWIDTH 5 0
BBX 8 8 0 -1
BITMAP
EA
4F
F2
FF
A0
EF
A9
EF
ENDCHAR
STARTCHAR 3974
ENCODING 14708
SWIDTH 480 0
DWIDTH 5 0
BBX 8 8 0 -1
BITMAP
64
7E
AA
FE
08
7F
51
75
ENDCHAR
STARTCHAR 3975
ENCODING 14709
SWIDTH 480 0
DWIDTH 5 0
BBX 8 8 0 -1
BITMAP
7E
4A
7E
7E
08
FF
00
95
ENDCHAR
STARTCHAR 3976
ENCODING 14710
SWIDTH 480 0
DWIDTH 5 0
BBX 8 8 0 -1
BITMAP
AB
5A
67
BA
62
BE
35
5D
ENDCHAR
STARTCHAR 3977
ENCODING 14711
SWIDTH 480 0
DWIDTH 5 0
BBX 8 8 0 -1
BITMAP
84
3F
AA
3F
3F
AA
AE
DB
ENDCHAR
STARTCHAR 3978
ENCODING 14712
SWIDTH 480 0
DWIDTH 5 0
BBX 8 8 0 -1
BITMAP
FF
AA
FF
BF
E4
BF
AA
AF
ENDCHAR
STARTCHAR 3979
ENCODING 14713
SWIDTH 480 0
DWIDTH 5 0
BBX 8 8 0 -1
BITMAP
6F
F4
FE
FA
6E
6A
6E
73
ENDCHAR
STARTCHAR 397a
ENCODING 14714
SWIDTH 480 0
DWIDTH 5 0
BBX 8 8 0 -1
BITMAP
40
7F
95
15
29
00
AA
9D
ENDCHAR
STARTCHAR 397b
ENCODING 14715
SWIDTH 480 0
DWIDTH 5 0
BBX 8 8 0 -1
BITMAP
50
5F
EB
D5
49
5A
59
6E
ENDCHAR
STARTCHAR 397c
ENCODING 14716
SWIDTH 480 0
DWIDTH 5 0
BBX 8 8 0 -1
BITMAP
3C
2C
FF
A5
3C
24
3C
24
ENDCHAR
STARTCHAR 397d
ENCODING 14717
SWIDTH 480 0
DWIDTH 5 0
BBX 8 8 0 -1
BITMAP
A4
4F
69
A9
6F
A9
29
4F
ENDCHAR
STARTCHAR 397e
ENCODING 14718
SWIDTH 480 0
DWIDTH 5 0
BBX 8 8 0 -1
BITMAP
8C
44
04
C4
4A
51
40
BF
ENDCHAR
STARTCHAR 3a21
ENCODING 14881
SWIDTH 480 0
DWIDTH 5 0
BBX 8 8 0 -1
BITMAP
24
24
25
BE
A4
A4
B5
E7
ENDCHAR
STARTCHAR 3a22
ENCODING 14882
SWIDTH 480 0
DWIDTH 5 0
BBX 8 8 0 -1
BITMAP
0F
84
AF
C9
8F
A9
EF
19
ENDCHAR
STARTCHAR 3a23
ENCODING 14883
SWIDTH 480 0
DWIDTH 5 0
BBX 8 8 0 -1
BITMAP
18
24
DB
00
3C
04
08
10
ENDCHAR
STARTCHAR 3a24
ENCODING 14884
SWIDTH 480 0
DWIDTH 5 0
BBX 8 8 0 -1
BITMAP
FF
89
FF
89
9D
EB
89
FF
ENDCHAR
STARTCHAR 3a25
ENCODING 14885
SWIDTH 480 0
DWIDTH 5 0
BBX 8 8 0 -1
BITMAP
44
5F
F5
5F
55
7F
C4
04
ENDCHAR
STARTCHAR 3a26
ENCODING 14886
SWIDTH 480 0
DWIDTH 5 0
BBX 8 8 0 -1
BITMAP
2E
CA
AE
6A
AD
48
3E
FF
ENDCHAR
STARTCHAR 3a27
ENCODING 14887
SWIDTH 480 0
DWIDTH 5 0
BBX 8 8 0 -1
BITMAP
2F
2A
FF
5A
59
6F
39
CF
ENDCHAR
STARTCHAR 3a28
ENCODING 14888
SWIDTH 480 0
DWIDTH 5 0
BBX 8 8 0 -1
BITMAP
5E
52
FE
D2
5E
55
56
59
ENDCHAR
STARTCHAR 3a29
ENCODING 14889
SWIDTH 480 0
DWIDTH 5 0
BBX 8 8 0 -1
BITMAP
2E
CA
AE
6A
AD
40
AA
9D
ENDCHAR
STARTCHAR 3a2a
ENCODING 14890
SWIDTH 480 0
DWIDTH 5 0
BBX 8 8 0 -1
BITMAP
7E
48
7F
44
E3
7E
42
7E
ENDCHAR
STARTCHAR 3a2b
ENCODING 14891
SWIDTH 480 0
DWIDTH 5 0
BBX 8 8 0 -1
BITMAP
7E
7E
42
7E
49
7E
49
EF
ENDCHAR
STARTCHAR 3a2c
ENCODING 14892
SWIDTH 480 0
DWIDTH 5 0
BBX 8 8 0 -1
BITMAP
5E
F2
5E
F2
DE
55
56
59
ENDCHAR
STARTCHAR 3a2d
ENCODING 14893
SWIDTH 480 0
DWIDTH 5 0
BBX 8 8 0 -1
BITMAP
5F
F5
5F
F5
DF
5F
55
5F
ENDCHAR
STARTCHAR 3a2e
ENCODING 14894
SWIDTH 480 0
DWIDTH 5 0
BBX 8 8 0 -1
BITMAP
9E
5E
92
5E
15
56
5D
B7
ENDCHAR
STARTCHAR 3a2f
ENCODING 14895
SWIDTH 480 0
DWIDTH 5 0
BBX 8 8 0 -1
BITMAP
08
7F
5E
D2
5E
D5
56
99
ENDCHAR
STARTCHAR 3a30
ENCODING 14896
SWIDTH 480 0
DWIDTH 5 0
BBX 8 8 0 -1
BITMAP
4A
BF
4A
8A
EE
4A
EA
4E
ENDCHAR
STARTCHAR 3a31
ENCODING 14897
SWIDTH 480 0
DWIDTH 5 0
BBX 8 8 0 -1
BITMAP
7E
42
7E
42
7E
49
46
F1
ENDCHAR
STARTCHAR 3a32
ENCODING 14898
SWIDTH 480 0
DWIDTH 5 0
BBX 8 8 0 -1
BITMAP
08
DF
1F
F5
5F
AD
EE
17
ENDCHAR
STARTCHAR 3a33
ENCODING 14899
SWIDTH 480 0
DWIDTH 5 0
BBX 8 8 0 -1
BITMAP
25
B6
A4
F7
00
7E
00
FF
ENDCHAR
STARTCHAR 3a34
ENCODING 14900
SWIDTH 480 0
DWIDTH 5 0
BBX 8 8 0 -1
BITMAP
28
5F
C8
48
4F
52
52
6F
ENDCHAR
STARTCHAR 3a35
ENCODING 14901
SWIDTH 480 0
DWIDTH 5 0
BBX 8 7 0 -1
BITMAP
7E
2A
22
14
08
14
E3
ENDCHAR
STARTCHAR 3a36
ENCODING 14902
SWIDTH 480 0
DWIDTH 5 0
BBX 8 8 0 -1
BITMAP
0A
FF
AA
B3
AE
FA
04
1B
ENDCHAR
STARTCHAR 3a37
ENCODING 14903
SWIDTH 480 0
DWIDTH 5 0
BBX 8 8 0 -1
BITMAP
4A
5F
44
FF
E8
EF
F2
0F
ENDCHAR
STARTCHAR 3a38
ENCODING 14904
SWIDTH 480 0
DWIDTH 5 0
BBX 8 8 0 -1
BITMAP
20
FF
20
20
3F
44
44
BF
ENDCHAR
STARTCHAR 3a39
ENCODING 14905
SWIDTH 480 0
DWIDTH 5 0
BBX 8 8 0 -1
BITMAP
14
7F
08
FF
20
3F
44
BF
ENDCHAR
STARTCHAR 3a3a
ENCODING 14906
SWIDTH 480 0
DWIDTH 5 0
BBX 8 8 0 -1
BITMAP
08
FF
2A
C9
3E
22
3E
FF
ENDCHAR
STARTCHAR 3a3b
ENCODING 14907
SWIDTH 480 0
DWIDTH 5 0
BBX 8 8 0 -1
BITMAP
84
04
96
15
25
46
44
98
ENDCHAR
STARTCHAR 3a3c
ENCODING 14908
SWIDTH 480 0
DWIDTH 5 0
BBX 8 8 0 -1
BITMAP
EA
5F
44
FF
48
6F
D2
2F
ENDCHAR
STARTCHAR 3a3d
ENCODING 14909
SWIDTH 480 0
DWIDTH 5 0
BBX 8 8 0 -1
BITMAP
F4
44
4E
7D
D5
56
74
18
ENDCHAR
STARTCHAR 3a3e
ENCODING 14910
SWIDTH 480 0
DWIDTH 5 0
BBX 8 8 0 -1
BITMAP
48
EF
0C
F7
04
E7
A4
E4
ENDCHAR
STARTCHAR 3a3f
ENCODING 14911
SWIDTH 480 0
DWIDTH 5 0
BBX 8 8 0 -1
BITMAP
55
A4
EF
49
EF
49
EF
D9
ENDCHAR
STARTCHAR 3a40
ENCODING 14912
SWIDTH 480 0
DWIDTH 5 0
BBX 8 8 0 -1
BITMAP
84
8D
15
42
8C
FF
64
B3
ENDCHAR
STARTCHAR 3a41
ENCODING 14913
SWIDTH 480 0
DWIDTH 5 0
BBX 8 8 0 -1
BITMAP
08
4A
4A
AD
08
7E
08
FF
ENDCHAR
STARTCHAR 3a42
ENCODING 14914
SWIDTH 480 0
DWIDTH 5 0
BBX 8 8 0 -1
BITMAP
08
7F
5A
5A
6D
7E
48
BF
ENDCHAR
STARTCHAR 3a43
ENCODING 14915
SWIDTH 480 0
DWIDTH 5 0
BBX 8 8 0 -1
BITMAP
44
EE
4E
55
64
DF
44
5F
ENDCHAR
STARTCHAR 3a44
ENCODING 14916
SWIDTH 480 0
DWIDTH 5 0
BBX 8 8 0 -1
BITMAP
24
5F
C4
5F
4E
4A
4E
5B
ENDCHAR
STARTCHAR 3a45
ENCODING 14917
SWIDTH 480 0
DWIDTH 5 0
BBX 8 8 0 -1
BITMAP
35
5F
D4
5F
74
5E
54
5F
ENDCHAR
STARTCHAR 3a46
ENCODING 14918
SWIDTH 480 0
DWIDTH 5 0
BBX 8 8 0 -1
BITMAP
FF
10
7E
52
7E
52
FF
42
ENDCHAR
STARTCHAR 3a47
ENCODING 14919
SWIDTH 480 0
DWIDTH 5 0
BBX 8 8 0 -1
BITMAP
7E
42
FF
50
77
55
F2
15
ENDCHAR
ENDFONT
